<svg id="visual" viewBox="0 0 900 600" width="900" height="600" xmlns="http://www.w3.org/2000/svg" xmlns:xlink="http://www.w3.org/1999/xlink" version="1.1"><g stroke-width="1" stroke-linejoin="bevel"><path d="M449 332L414.7 346L416.3 406Z" fill="#3c3c3c" stroke="#3c3c3c"></path><path d="M416.3 406L489.3 365L449 332Z" fill="#141414" stroke="#141414"></path><path d="M416.3 406L477 408L489.3 365Z" fill="#4a4a4a" stroke="#4a4a4a"></path><path d="M576.9 337L513.6 311L489.3 365Z" fill="#787878" stroke="#787878"></path><path d="M489.3 365L513.6 311L449 332Z" fill="#787878" stroke="#787878"></path><path d="M352 435L387.4 466L416.3 406Z" fill="#888888" stroke="#888888"></path><path d="M416.3 406L470 500L477 408Z" fill="#3c3c3c" stroke="#3c3c3c"></path><path d="M328.7 356L352 435L416.3 406Z" fill="#000000" stroke="#000000"></path><path d="M513.6 311L464 262L449 332Z" fill="#787878" stroke="#787878"></path><path d="M449 332L435 240L414.7 346Z" fill="#4a4a4a" stroke="#4a4a4a"></path><path d="M414.7 346L328.7 356L416.3 406Z" fill="#2e2e2e" stroke="#2e2e2e"></path><path d="M312.4 321L328.7 356L414.7 346Z" fill="#4a4a4a" stroke="#4a4a4a"></path><path d="M513.6 311L501.3 263L464 262Z" fill="#141414" stroke="#141414"></path><path d="M360.7 547L416.3 498L387.4 466Z" fill="#4a4a4a" stroke="#4a4a4a"></path><path d="M387.4 466L416.3 498L416.3 406Z" fill="#212121" stroke="#212121"></path><path d="M416.3 498L470 500L416.3 406Z" fill="#595959" stroke="#595959"></path><path d="M591.9 356L576.9 337L489.3 365Z" fill="#787878" stroke="#787878"></path><path d="M501.6 222L435 240L464 262Z" fill="#888888" stroke="#888888"></path><path d="M464 262L435 240L449 332Z" fill="#2e2e2e" stroke="#2e2e2e"></path><path d="M586.3 430L489.3 365L477 408Z" fill="#686868" stroke="#686868"></path><path d="M513.6 311L570.3 318L501.3 263Z" fill="#4a4a4a" stroke="#4a4a4a"></path><path d="M576.9 337L570.3 318L513.6 311Z" fill="#000000" stroke="#000000"></path><path d="M614.9 276L501.6 242L501.3 263Z" fill="#000000" stroke="#000000"></path><path d="M501.3 263L501.6 242L464 262Z" fill="#595959" stroke="#595959"></path><path d="M470 500L570.6 449L477 408Z" fill="#3c3c3c" stroke="#3c3c3c"></path><path d="M316.7 269L312.4 321L414.7 346Z" fill="#595959" stroke="#595959"></path><path d="M328.7 356L309.1 432L352 435Z" fill="#686868" stroke="#686868"></path><path d="M586.3 430L591.9 356L489.3 365Z" fill="#3c3c3c" stroke="#3c3c3c"></path><path d="M576.9 337L614.9 276L570.3 318Z" fill="#141414" stroke="#141414"></path><path d="M293.1 415L309.1 432L328.7 356Z" fill="#787878" stroke="#787878"></path><path d="M352 435L324.4 466L387.4 466Z" fill="#686868" stroke="#686868"></path><path d="M570.6 449L586.3 430L477 408Z" fill="#141414" stroke="#141414"></path><path d="M309.1 432L324.4 466L352 435Z" fill="#999999" stroke="#999999"></path><path d="M259.4 324L293.1 415L328.7 356Z" fill="#4a4a4a" stroke="#4a4a4a"></path><path d="M309.1 432L309.7 458L324.4 466Z" fill="#000000" stroke="#000000"></path><path d="M293.1 415L309.7 458L309.1 432Z" fill="#2e2e2e" stroke="#2e2e2e"></path><path d="M546 177L501.6 222L501.6 242Z" fill="#686868" stroke="#686868"></path><path d="M501.6 242L501.6 222L464 262Z" fill="#999999" stroke="#999999"></path><path d="M368 213L316.7 269L435 240Z" fill="#686868" stroke="#686868"></path><path d="M435 240L316.7 269L414.7 346Z" fill="#000000" stroke="#000000"></path><path d="M312.4 321L259.4 324L328.7 356Z" fill="#595959" stroke="#595959"></path><path d="M501.6 222L420.4 205L435 240Z" fill="#212121" stroke="#212121"></path><path d="M420.4 205L368 213L435 240Z" fill="#686868" stroke="#686868"></path><path d="M324.4 466L360.7 547L387.4 466Z" fill="#212121" stroke="#212121"></path><path d="M416.3 498L467 600L470 500Z" fill="#2e2e2e" stroke="#2e2e2e"></path><path d="M274.4 600L360.7 547L324.4 466Z" fill="#999999" stroke="#999999"></path><path d="M244.9 271L259.4 324L316.7 269Z" fill="#141414" stroke="#141414"></path><path d="M316.7 269L259.4 324L312.4 321Z" fill="#787878" stroke="#787878"></path><path d="M586.3 430L640.6 395L591.9 356Z" fill="#3c3c3c" stroke="#3c3c3c"></path><path d="M591.9 356L614.9 276L576.9 337Z" fill="#4a4a4a" stroke="#4a4a4a"></path><path d="M570.3 318L614.9 276L501.3 263Z" fill="#000000" stroke="#000000"></path><path d="M668.6 402L640.6 395L648.6 486Z" fill="#4a4a4a" stroke="#4a4a4a"></path><path d="M646.9 384L614.9 276L591.9 356Z" fill="#686868" stroke="#686868"></path><path d="M420.4 205L394.4 183L368 213Z" fill="#888888" stroke="#888888"></path><path d="M368 213L340.4 179L316.7 269Z" fill="#3c3c3c" stroke="#3c3c3c"></path><path d="M409.7 148L394.4 183L420.4 205Z" fill="#888888" stroke="#888888"></path><path d="M640.6 395L646.9 384L591.9 356Z" fill="#999999" stroke="#999999"></path><path d="M360.7 547L392.7 582L416.3 498Z" fill="#888888" stroke="#888888"></path><path d="M470 500L604.9 522L570.6 449Z" fill="#2e2e2e" stroke="#2e2e2e"></path><path d="M470.3 600L604.9 522L470 500Z" fill="#212121" stroke="#212121"></path><path d="M570.6 449L648.6 486L586.3 430Z" fill="#212121" stroke="#212121"></path><path d="M640.6 395L668.6 402L646.9 384Z" fill="#888888" stroke="#888888"></path><path d="M614.9 276L546 177L501.6 242Z" fill="#787878" stroke="#787878"></path><path d="M501.6 222L409.7 148L420.4 205Z" fill="#000000" stroke="#000000"></path><path d="M338.7 143L340.4 179L394.4 183Z" fill="#787878" stroke="#787878"></path><path d="M394.4 183L340.4 179L368 213Z" fill="#686868" stroke="#686868"></path><path d="M648.6 486L640.6 395L586.3 430Z" fill="#686868" stroke="#686868"></path><path d="M646.9 384L717.1 329L614.9 276Z" fill="#888888" stroke="#888888"></path><path d="M392.7 582L467 600L416.3 498Z" fill="#999999" stroke="#999999"></path><path d="M467 600L470.3 600L470 500Z" fill="#2e2e2e" stroke="#2e2e2e"></path><path d="M237.4 214L244.9 271L316.7 269Z" fill="#999999" stroke="#999999"></path><path d="M469.3 93L409.7 148L501.6 222Z" fill="#787878" stroke="#787878"></path><path d="M604.9 522L648.6 486L570.6 449Z" fill="#787878" stroke="#787878"></path><path d="M360.7 547L340.7 600L392.7 582Z" fill="#3c3c3c" stroke="#3c3c3c"></path><path d="M392.7 582L340.7 600L467 600Z" fill="#3c3c3c" stroke="#3c3c3c"></path><path d="M274.4 600L340.7 600L360.7 547Z" fill="#212121" stroke="#212121"></path><path d="M274.4 600L324.4 466L309.7 458Z" fill="#686868" stroke="#686868"></path><path d="M189.1 448L309.7 458L293.1 415Z" fill="#787878" stroke="#787878"></path><path d="M244.9 271L213.1 283L259.4 324Z" fill="#595959" stroke="#595959"></path><path d="M259.4 324L179.9 383L293.1 415Z" fill="#212121" stroke="#212121"></path><path d="M237.4 214L213.1 283L244.9 271Z" fill="#4a4a4a" stroke="#4a4a4a"></path><path d="M409.7 148L338.7 143L394.4 183Z" fill="#4a4a4a" stroke="#4a4a4a"></path><path d="M340.4 179L237.4 214L316.7 269Z" fill="#999999" stroke="#999999"></path><path d="M282.9 154L237.4 214L340.4 179Z" fill="#595959" stroke="#595959"></path><path d="M175.9 293L179.9 383L259.4 324Z" fill="#141414" stroke="#141414"></path><path d="M179.9 383L189.1 448L293.1 415Z" fill="#141414" stroke="#141414"></path><path d="M470.3 600L595.9 600L604.9 522Z" fill="#212121" stroke="#212121"></path><path d="M691.9 539L690.4 494L648.6 486Z" fill="#000000" stroke="#000000"></path><path d="M691.9 539L648.6 486L604.9 522Z" fill="#4a4a4a" stroke="#4a4a4a"></path><path d="M648.6 486L711.1 462L668.6 402Z" fill="#888888" stroke="#888888"></path><path d="M725.4 402L717.1 329L668.6 402Z" fill="#686868" stroke="#686868"></path><path d="M668.6 402L717.1 329L646.9 384Z" fill="#888888" stroke="#888888"></path><path d="M614.9 276L657.1 185L546 177Z" fill="#3c3c3c" stroke="#3c3c3c"></path><path d="M338.7 143L282.9 154L340.4 179Z" fill="#686868" stroke="#686868"></path><path d="M690.4 494L711.1 462L648.6 486Z" fill="#141414" stroke="#141414"></path><path d="M717.1 329L694.4 245L614.9 276Z" fill="#2e2e2e" stroke="#2e2e2e"></path><path d="M711.1 462L725.4 402L668.6 402Z" fill="#3c3c3c" stroke="#3c3c3c"></path><path d="M157.1 257L175.9 293L213.1 283Z" fill="#888888" stroke="#888888"></path><path d="M213.1 283L175.9 293L259.4 324Z" fill="#141414" stroke="#141414"></path><path d="M176.6 230L213.1 283L237.4 214Z" fill="#888888" stroke="#888888"></path><path d="M486.3 77L469.3 93L546 177Z" fill="#888888" stroke="#888888"></path><path d="M546 177L469.3 93L501.6 222Z" fill="#141414" stroke="#141414"></path><path d="M351 0L294.7 90L338.7 143Z" fill="#000000" stroke="#000000"></path><path d="M338.7 143L291.1 129L282.9 154Z" fill="#999999" stroke="#999999"></path><path d="M253.9 600L274.4 600L309.7 458Z" fill="#595959" stroke="#595959"></path><path d="M694.4 245L657.1 185L614.9 276Z" fill="#141414" stroke="#141414"></path><path d="M717.1 329L729.9 322L694.4 245Z" fill="#999999" stroke="#999999"></path><path d="M733.4 328L729.9 322L717.1 329Z" fill="#686868" stroke="#686868"></path><path d="M753.1 386L733.4 328L717.1 329Z" fill="#787878" stroke="#787878"></path><path d="M729.9 322L832.4 277L694.4 245Z" fill="#000000" stroke="#000000"></path><path d="M294.7 90L291.1 129L338.7 143Z" fill="#686868" stroke="#686868"></path><path d="M182.6 152L176.6 230L237.4 214Z" fill="#595959" stroke="#595959"></path><path d="M750.1 542L771.7 456L711.1 462Z" fill="#2e2e2e" stroke="#2e2e2e"></path><path d="M670.6 600L691.9 539L604.9 522Z" fill="#2e2e2e" stroke="#2e2e2e"></path><path d="M176.6 500L253.9 600L309.7 458Z" fill="#787878" stroke="#787878"></path><path d="M189.1 448L176.6 500L309.7 458Z" fill="#141414" stroke="#141414"></path><path d="M134.6 507L176.6 500L123.9 495Z" fill="#141414" stroke="#141414"></path><path d="M136.9 391L189.1 448L179.9 383Z" fill="#000000" stroke="#000000"></path><path d="M550.9 55L486.3 77L546 177Z" fill="#3c3c3c" stroke="#3c3c3c"></path><path d="M423 13L338.7 143L409.7 148Z" fill="#686868" stroke="#686868"></path><path d="M182.6 152L237.4 214L282.9 154Z" fill="#2e2e2e" stroke="#2e2e2e"></path><path d="M771.7 456L753.1 386L725.4 402Z" fill="#595959" stroke="#595959"></path><path d="M725.4 402L753.1 386L717.1 329Z" fill="#999999" stroke="#999999"></path><path d="M771.7 456L725.4 402L711.1 462Z" fill="#595959" stroke="#595959"></path><path d="M694.4 245L666.6 161L657.1 185Z" fill="#3c3c3c" stroke="#3c3c3c"></path><path d="M657.1 185L666.6 161L546 177Z" fill="#4a4a4a" stroke="#4a4a4a"></path><path d="M684.4 61L666.6 161L744.7 89Z" fill="#4a4a4a" stroke="#4a4a4a"></path><path d="M124.6 297L179.9 383L175.9 293Z" fill="#999999" stroke="#999999"></path><path d="M124.6 297L136.9 391L179.9 383Z" fill="#686868" stroke="#686868"></path><path d="M176.6 230L157.1 257L213.1 283Z" fill="#2e2e2e" stroke="#2e2e2e"></path><path d="M199.1 600L247.1 619L253.9 600Z" fill="#999999" stroke="#999999"></path><path d="M253.9 600L247.1 619L274.4 600Z" fill="#000000" stroke="#000000"></path><path d="M274.4 600L247.1 619L340.7 600Z" fill="#686868" stroke="#686868"></path><path d="M340.7 600L247.1 619L467 600Z" fill="#888888" stroke="#888888"></path><path d="M467 600L247.1 619L470.3 600Z" fill="#787878" stroke="#787878"></path><path d="M470.3 600L247.1 619L595.9 600Z" fill="#888888" stroke="#888888"></path><path d="M247.1 619L670.6 600L595.9 600Z" fill="#999999" stroke="#999999"></path><path d="M595.9 600L670.6 600L604.9 522Z" fill="#4a4a4a" stroke="#4a4a4a"></path><path d="M750.1 542L711.1 462L690.4 494Z" fill="#686868" stroke="#686868"></path><path d="M423 13L409.7 148L469.3 93Z" fill="#686868" stroke="#686868"></path><path d="M291.1 129L227.1 112L282.9 154Z" fill="#3c3c3c" stroke="#3c3c3c"></path><path d="M110.9 271L124.6 297L157.1 257Z" fill="#999999" stroke="#999999"></path><path d="M157.1 257L124.6 297L175.9 293Z" fill="#141414" stroke="#141414"></path><path d="M176.6 500L199.1 600L253.9 600Z" fill="#3c3c3c" stroke="#3c3c3c"></path><path d="M134.6 507L199.1 600L176.6 500Z" fill="#888888" stroke="#888888"></path><path d="M750.1 542L690.4 494L691.9 539Z" fill="#141414" stroke="#141414"></path><path d="M666.6 161L550.9 55L546 177Z" fill="#999999" stroke="#999999"></path><path d="M486.3 77L423 13L469.3 93Z" fill="#4a4a4a" stroke="#4a4a4a"></path><path d="M753.1 386L783.1 350L733.4 328Z" fill="#212121" stroke="#212121"></path><path d="M733.4 328L783.1 350L729.9 322Z" fill="#141414" stroke="#141414"></path><path d="M801.4 407L783.1 350L753.1 386Z" fill="#595959" stroke="#595959"></path><path d="M123.9 495L189.1 448L101.9 441Z" fill="#595959" stroke="#595959"></path><path d="M123.9 495L176.6 500L189.1 448Z" fill="#595959" stroke="#595959"></path><path d="M294.7 90L227.1 112L291.1 129Z" fill="#2e2e2e" stroke="#2e2e2e"></path><path d="M121.3 205L110.9 271L157.1 257Z" fill="#141414" stroke="#141414"></path><path d="M101.9 441L189.1 448L136.9 391Z" fill="#999999" stroke="#999999"></path><path d="M134.6 507L99.6 600L199.1 600Z" fill="#787878" stroke="#787878"></path><path d="M227.1 112L182.6 152L282.9 154Z" fill="#686868" stroke="#686868"></path><path d="M762.1 600L750.1 542L691.9 539Z" fill="#4a4a4a" stroke="#4a4a4a"></path><path d="M789.1 514L782.7 462L771.7 456Z" fill="#4a4a4a" stroke="#4a4a4a"></path><path d="M771.7 456L801.4 407L753.1 386Z" fill="#141414" stroke="#141414"></path><path d="M92.3 431L101.9 441L136.9 391Z" fill="#787878" stroke="#787878"></path><path d="M121.3 205L157.1 257L176.6 230Z" fill="#4a4a4a" stroke="#4a4a4a"></path><path d="M0 379L92.3 431L136.9 391Z" fill="#787878" stroke="#787878"></path><path d="M92.3 431L99.3 450L101.9 441Z" fill="#595959" stroke="#595959"></path><path d="M101.9 441L99.3 450L123.9 495Z" fill="#000000" stroke="#000000"></path><path d="M782.7 462L801.4 407L771.7 456Z" fill="#3c3c3c" stroke="#3c3c3c"></path><path d="M48.3 286L136.9 391L124.6 297Z" fill="#787878" stroke="#787878"></path><path d="M108.3 515L109.3 499L92.6 509Z" fill="#3c3c3c" stroke="#3c3c3c"></path><path d="M99.3 450L109.3 499L123.9 495Z" fill="#000000" stroke="#000000"></path><path d="M123.9 495L108.3 515L134.6 507Z" fill="#212121" stroke="#212121"></path><path d="M523.6 0L423 13L486.3 77Z" fill="#4a4a4a" stroke="#4a4a4a"></path><path d="M183.6 0L193.1 115L227.1 112Z" fill="#2e2e2e" stroke="#2e2e2e"></path><path d="M227.1 112L193.1 115L182.6 152Z" fill="#000000" stroke="#000000"></path><path d="M182.6 152L121.3 205L176.6 230Z" fill="#212121" stroke="#212121"></path><path d="M251.1 0L227.1 112L294.7 90Z" fill="#4a4a4a" stroke="#4a4a4a"></path><path d="M92.6 509L109.3 499L99.3 450Z" fill="#3c3c3c" stroke="#3c3c3c"></path><path d="M109.3 499L108.3 515L123.9 495Z" fill="#2e2e2e" stroke="#2e2e2e"></path><path d="M105.6 147L121.3 205L182.6 152Z" fill="#4a4a4a" stroke="#4a4a4a"></path><path d="M750.1 542L789.1 514L771.7 456Z" fill="#000000" stroke="#000000"></path><path d="M900 432L850.7 381L900 435Z" fill="#686868" stroke="#686868"></path><path d="M814.4 600L789.1 514L750.1 542Z" fill="#787878" stroke="#787878"></path><path d="M550.9 55L533.3 9L486.3 77Z" fill="#595959" stroke="#595959"></path><path d="M559.3 0L533.3 9L550.9 55Z" fill="#595959" stroke="#595959"></path><path d="M629.6 27L594.9 28L666.6 161Z" fill="#2e2e2e" stroke="#2e2e2e"></path><path d="M666.6 161L594.9 28L550.9 55Z" fill="#595959" stroke="#595959"></path><path d="M0 461L92.6 509L99.3 450Z" fill="#2e2e2e" stroke="#2e2e2e"></path><path d="M108.3 515L99.6 600L134.6 507Z" fill="#141414" stroke="#141414"></path><path d="M523.6 0L391.7 0L423 13Z" fill="#3c3c3c" stroke="#3c3c3c"></path><path d="M423 13L391.7 0L338.7 143Z" fill="#212121" stroke="#212121"></path><path d="M559.3 0L523.6 0L533.3 9Z" fill="#4a4a4a" stroke="#4a4a4a"></path><path d="M533.3 9L523.6 0L486.3 77Z" fill="#686868" stroke="#686868"></path><path d="M391.7 0L351 0L338.7 143Z" fill="#4a4a4a" stroke="#4a4a4a"></path><path d="M670.6 600L762.1 600L691.9 539Z" fill="#000000" stroke="#000000"></path><path d="M247.1 619L762.1 600L670.6 600Z" fill="#888888" stroke="#888888"></path><path d="M594.9 28L559.3 0L550.9 55Z" fill="#212121" stroke="#212121"></path><path d="M684.4 61L629.6 27L666.6 161Z" fill="#4a4a4a" stroke="#4a4a4a"></path><path d="M594.9 28L633.9 0L559.3 0Z" fill="#141414" stroke="#141414"></path><path d="M744.7 89L666.6 161L694.4 245Z" fill="#686868" stroke="#686868"></path><path d="M351 0L316.4 0L294.7 90Z" fill="#999999" stroke="#999999"></path><path d="M850.7 381L832.4 277L783.1 350Z" fill="#686868" stroke="#686868"></path><path d="M783.1 350L832.4 277L729.9 322Z" fill="#787878" stroke="#787878"></path><path d="M850.7 381L783.1 350L801.4 407Z" fill="#595959" stroke="#595959"></path><path d="M121.3 205L56.6 273L110.9 271Z" fill="#595959" stroke="#595959"></path><path d="M110.9 271L48.3 286L124.6 297Z" fill="#141414" stroke="#141414"></path><path d="M92.3 431L0 457L99.3 450Z" fill="#686868" stroke="#686868"></path><path d="M11.3 178L56.6 273L121.3 205Z" fill="#212121" stroke="#212121"></path><path d="M880.7 484L782.7 462L789.1 514Z" fill="#787878" stroke="#787878"></path><path d="M880.7 484L801.4 407L782.7 462Z" fill="#212121" stroke="#212121"></path><path d="M56.6 273L48.3 286L110.9 271Z" fill="#686868" stroke="#686868"></path><path d="M124.9 88L182.6 152L193.1 115Z" fill="#3c3c3c" stroke="#3c3c3c"></path><path d="M124.9 88L105.6 147L182.6 152Z" fill="#000000" stroke="#000000"></path><path d="M0 277L0 286L48.3 286Z" fill="#888888" stroke="#888888"></path><path d="M900 278L840.7 253L832.4 277Z" fill="#4a4a4a" stroke="#4a4a4a"></path><path d="M832.4 277L836.4 222L694.4 245Z" fill="#141414" stroke="#141414"></path><path d="M836.4 222L744.7 89L694.4 245Z" fill="#212121" stroke="#212121"></path><path d="M684.4 61L633.9 0L629.6 27Z" fill="#141414" stroke="#141414"></path><path d="M199.1 600L99.6 600L247.1 619Z" fill="#212121" stroke="#212121"></path><path d="M83.3 600L99.6 600L108.3 515Z" fill="#141414" stroke="#141414"></path><path d="M83.3 600L108.3 515L92.6 509Z" fill="#212121" stroke="#212121"></path><path d="M316.4 0L264.9 0L294.7 90Z" fill="#888888" stroke="#888888"></path><path d="M840.7 253L836.4 222L832.4 277Z" fill="#686868" stroke="#686868"></path><path d="M719.1 0L633.9 0L684.4 61Z" fill="#212121" stroke="#212121"></path><path d="M629.6 27L633.9 0L594.9 28Z" fill="#212121" stroke="#212121"></path><path d="M719.1 0L727.1 63L762.7 14Z" fill="#888888" stroke="#888888"></path><path d="M744.7 89L727.1 63L684.4 61Z" fill="#000000" stroke="#000000"></path><path d="M264.9 0L251.1 0L294.7 90Z" fill="#3c3c3c" stroke="#3c3c3c"></path><path d="M0 600L83.3 600L92.6 509Z" fill="#2e2e2e" stroke="#2e2e2e"></path><path d="M99.6 600L83.3 600L247.1 619Z" fill="#3c3c3c" stroke="#3c3c3c"></path><path d="M251.1 0L235.4 0L227.1 112Z" fill="#686868" stroke="#686868"></path><path d="M247.1 619L814.4 600L762.1 600Z" fill="#888888" stroke="#888888"></path><path d="M762.1 600L814.4 600L750.1 542Z" fill="#3c3c3c" stroke="#3c3c3c"></path><path d="M183.6 0L124.9 88L193.1 115Z" fill="#595959" stroke="#595959"></path><path d="M0 277L48.3 286L0 274Z" fill="#2e2e2e" stroke="#2e2e2e"></path><path d="M0 286L0 379L48.3 286Z" fill="#999999" stroke="#999999"></path><path d="M48.3 286L0 379L136.9 391Z" fill="#141414" stroke="#141414"></path><path d="M900 542L880.7 484L789.1 514Z" fill="#3c3c3c" stroke="#3c3c3c"></path><path d="M850.7 381L900 278L832.4 277Z" fill="#4a4a4a" stroke="#4a4a4a"></path><path d="M840.7 253L897.7 260L836.4 222Z" fill="#2e2e2e" stroke="#2e2e2e"></path><path d="M0 379L0 428L92.3 431Z" fill="#595959" stroke="#595959"></path><path d="M0 428L0 457L92.3 431Z" fill="#212121" stroke="#212121"></path><path d="M0 457L0 461L99.3 450Z" fill="#686868" stroke="#686868"></path><path d="M48.3 286L56.6 273L0 274Z" fill="#2e2e2e" stroke="#2e2e2e"></path><path d="M900 435L850.7 381L801.4 407Z" fill="#3c3c3c" stroke="#3c3c3c"></path><path d="M880.7 484L900 435L801.4 407Z" fill="#141414" stroke="#141414"></path><path d="M0 274L56.6 273L11.3 178Z" fill="#4a4a4a" stroke="#4a4a4a"></path><path d="M11.3 178L121.3 205L105.6 147Z" fill="#212121" stroke="#212121"></path><path d="M235.4 0L183.6 0L227.1 112Z" fill="#595959" stroke="#595959"></path><path d="M0 166L11.3 178L105.6 147Z" fill="#888888" stroke="#888888"></path><path d="M900 432L900 278L850.7 381Z" fill="#212121" stroke="#212121"></path><path d="M762.7 14L727.1 63L744.7 89Z" fill="#686868" stroke="#686868"></path><path d="M838.7 106L744.7 89L836.4 222Z" fill="#787878" stroke="#787878"></path><path d="M727.1 63L719.1 0L684.4 61Z" fill="#686868" stroke="#686868"></path><path d="M900 278L900 270L840.7 253Z" fill="#787878" stroke="#787878"></path><path d="M900 270L897.7 260L840.7 253Z" fill="#2e2e2e" stroke="#2e2e2e"></path><path d="M900 542L900 499L880.7 484Z" fill="#4a4a4a" stroke="#4a4a4a"></path><path d="M880.7 484L900 499L900 435Z" fill="#4a4a4a" stroke="#4a4a4a"></path><path d="M858.4 115L838.7 106L836.4 222Z" fill="#595959" stroke="#595959"></path><path d="M0 166L105.6 147L-25.7 138Z" fill="#4a4a4a" stroke="#4a4a4a"></path><path d="M838.7 106L762.7 14L744.7 89Z" fill="#787878" stroke="#787878"></path><path d="M814.4 600L900 542L789.1 514Z" fill="#141414" stroke="#141414"></path><path d="M784.4 0L745.1 -9L762.7 14Z" fill="#686868" stroke="#686868"></path><path d="M762.7 14L745.1 -9L719.1 0Z" fill="#888888" stroke="#888888"></path><path d="M719.1 0L745.1 -9L633.9 0Z" fill="#888888" stroke="#888888"></path><path d="M633.9 0L745.1 -9L559.3 0Z" fill="#2e2e2e" stroke="#2e2e2e"></path><path d="M559.3 0L745.1 -9L523.6 0Z" fill="#2e2e2e" stroke="#2e2e2e"></path><path d="M523.6 0L44.3 -26L391.7 0Z" fill="#888888" stroke="#888888"></path><path d="M391.7 0L44.3 -26L351 0Z" fill="#212121" stroke="#212121"></path><path d="M351 0L44.3 -26L316.4 0Z" fill="#4a4a4a" stroke="#4a4a4a"></path><path d="M316.4 0L44.3 -26L264.9 0Z" fill="#686868" stroke="#686868"></path><path d="M264.9 0L44.3 -26L251.1 0Z" fill="#212121" stroke="#212121"></path><path d="M251.1 0L44.3 -26L235.4 0Z" fill="#212121" stroke="#212121"></path><path d="M235.4 0L44.3 -26L183.6 0Z" fill="#141414" stroke="#141414"></path><path d="M900 158L858.4 115L836.4 222Z" fill="#000000" stroke="#000000"></path><path d="M838.7 106L784.4 0L762.7 14Z" fill="#4a4a4a" stroke="#4a4a4a"></path><path d="M55.6 22L105.6 147L124.9 88Z" fill="#999999" stroke="#999999"></path><path d="M11.3 178L0 166L0 274Z" fill="#3c3c3c" stroke="#3c3c3c"></path><path d="M83.3 600L0 600L247.1 619Z" fill="#3c3c3c" stroke="#3c3c3c"></path><path d="M0 461L0 600L92.6 509Z" fill="#141414" stroke="#141414"></path><path d="M900 270L900 158L897.7 260Z" fill="#4a4a4a" stroke="#4a4a4a"></path><path d="M897.7 260L900 158L836.4 222Z" fill="#999999" stroke="#999999"></path><path d="M832.7 0L784.4 0L838.7 106Z" fill="#4a4a4a" stroke="#4a4a4a"></path><path d="M832.7 0L838.7 106L900 72Z" fill="#212121" stroke="#212121"></path><path d="M247.1 619L900 600L814.4 600Z" fill="#4a4a4a" stroke="#4a4a4a"></path><path d="M814.4 600L900 600L900 542Z" fill="#999999" stroke="#999999"></path><path d="M183.6 0L55.6 22L124.9 88Z" fill="#3c3c3c" stroke="#3c3c3c"></path><path d="M55.6 22L-25.7 138L105.6 147Z" fill="#000000" stroke="#000000"></path><path d="M0 166L-25.7 138L0 274Z" fill="#141414" stroke="#141414"></path><path d="M0 274L-25.7 138L0 277Z" fill="#212121" stroke="#212121"></path><path d="M0 277L-25.7 138L0 286Z" fill="#212121" stroke="#212121"></path><path d="M0 286L-25.7 138L0 379Z" fill="#686868" stroke="#686868"></path><path d="M0 379L-25.7 138L0 428Z" fill="#4a4a4a" stroke="#4a4a4a"></path><path d="M0 428L-25.7 138L0 457Z" fill="#787878" stroke="#787878"></path><path d="M0 457L-25.7 138L0 461Z" fill="#4a4a4a" stroke="#4a4a4a"></path><path d="M0 461L-25.7 138L0 600Z" fill="#2e2e2e" stroke="#2e2e2e"></path><path d="M247.1 619L928.7 600L900 600Z" fill="#2e2e2e" stroke="#2e2e2e"></path><path d="M900 600L928.7 600L900 542Z" fill="#141414" stroke="#141414"></path><path d="M900 542L928.7 600L900 499Z" fill="#2e2e2e" stroke="#2e2e2e"></path><path d="M900 499L928.7 600L900 435Z" fill="#212121" stroke="#212121"></path><path d="M900 435L928.7 600L900 432Z" fill="#686868" stroke="#686868"></path><path d="M900 432L928.7 600L900 278Z" fill="#2e2e2e" stroke="#2e2e2e"></path><path d="M900 278L928.7 600L900 270Z" fill="#212121" stroke="#212121"></path><path d="M900 270L928.7 600L900 158Z" fill="#999999" stroke="#999999"></path><path d="M900 79L838.7 106L858.4 115Z" fill="#212121" stroke="#212121"></path><path d="M784.4 0L832.7 0L745.1 -9Z" fill="#787878" stroke="#787878"></path><path d="M928.7 600L900 79L900 158Z" fill="#000000" stroke="#000000"></path><path d="M900 158L900 79L858.4 115Z" fill="#141414" stroke="#141414"></path><path d="M183.6 0L54.3 0L55.6 22Z" fill="#212121" stroke="#212121"></path><path d="M55.6 22L0 5L-25.7 138Z" fill="#999999" stroke="#999999"></path><path d="M44.3 -26L54.3 0L183.6 0Z" fill="#2e2e2e" stroke="#2e2e2e"></path><path d="M928.7 600L900 72L900 79Z" fill="#595959" stroke="#595959"></path><path d="M900 79L900 72L838.7 106Z" fill="#141414" stroke="#141414"></path><path d="M745.1 -9L44.3 -26L523.6 0Z" fill="#000000" stroke="#000000"></path><path d="M54.3 0L0 5L55.6 22Z" fill="#686868" stroke="#686868"></path><path d="M0 0L0 5L54.3 0Z" fill="#787878" stroke="#787878"></path><path d="M44.3 -26L0 0L54.3 0Z" fill="#686868" stroke="#686868"></path><path d="M0 5L0 0L-25.7 138Z" fill="#000000" stroke="#000000"></path><path d="M928.7 600L900 0L900 72Z" fill="#888888" stroke="#888888"></path><path d="M900 72L900 0L832.7 0Z" fill="#000000" stroke="#000000"></path><path d="M832.7 0L900 0L745.1 -9Z" fill="#888888" stroke="#888888"></path></g></svg>