<svg id="visual" viewBox="0 0 900 600" width="900" height="600" xmlns="http://www.w3.org/2000/svg" xmlns:xlink="http://www.w3.org/1999/xlink" version="1.1"><g stroke-width="1" stroke-linejoin="bevel"><path d="M443 313L446 286L426 291.7Z" fill="#002204" stroke="#002204"></path><path d="M446 286L418 249.3L426 291.7Z" fill="#0a5d40" stroke="#0a5d40"></path><path d="M498 298.9L485 269.1L446 286Z" fill="#002204" stroke="#002204"></path><path d="M446 286L445 240.4L418 249.3Z" fill="#065236" stroke="#065236"></path><path d="M369 291.7L390 328.1L426 291.7Z" fill="#002a12" stroke="#002a12"></path><path d="M426 291.7L390 328.1L443 313Z" fill="#127254" stroke="#127254"></path><path d="M485 269.1L445 240.4L446 286Z" fill="#0a5d40" stroke="#0a5d40"></path><path d="M496 344.7L498 298.9L443 313Z" fill="#003e24" stroke="#003e24"></path><path d="M443 313L498 298.9L446 286Z" fill="#065236" stroke="#065236"></path><path d="M445 240.4L411 235.4L418 249.3Z" fill="#002204" stroke="#002204"></path><path d="M370 280.1L369 291.7L426 291.7Z" fill="#003e24" stroke="#003e24"></path><path d="M370 280.1L426 291.7L418 249.3Z" fill="#00341b" stroke="#00341b"></path><path d="M411 235.4L370 280.1L418 249.3Z" fill="#03482d" stroke="#03482d"></path><path d="M456 412.6L496 344.7L443 313Z" fill="#065236" stroke="#065236"></path><path d="M485 269.1L455 210.4L445 240.4Z" fill="#0e674a" stroke="#0e674a"></path><path d="M445 240.4L411 211L411 235.4Z" fill="#003e24" stroke="#003e24"></path><path d="M455 210.4L411 211L445 240.4Z" fill="#03482d" stroke="#03482d"></path><path d="M411 235.4L350 262L370 280.1Z" fill="#065236" stroke="#065236"></path><path d="M382 192.3L350 262L411 235.4Z" fill="#002204" stroke="#002204"></path><path d="M370 280.1L350 262L369 291.7Z" fill="#002204" stroke="#002204"></path><path d="M362 406.4L403 392.9L390 328.1Z" fill="#000000" stroke="#000000"></path><path d="M362 406.4L390 328.1L289 376.4Z" fill="#002204" stroke="#002204"></path><path d="M390 328.1L403 392.9L443 313Z" fill="#127254" stroke="#127254"></path><path d="M524 373.4L542 323.7L496 344.7Z" fill="#0a5d40" stroke="#0a5d40"></path><path d="M496 344.7L542 323.7L498 298.9Z" fill="#002204" stroke="#002204"></path><path d="M498 298.9L574 254.9L485 269.1Z" fill="#003e24" stroke="#003e24"></path><path d="M481 169.3L460 188.4L455 210.4Z" fill="#065236" stroke="#065236"></path><path d="M460 188.4L403 197.3L411 211Z" fill="#001b00" stroke="#001b00"></path><path d="M411 211L382 192.3L411 235.4Z" fill="#003e24" stroke="#003e24"></path><path d="M481 169.3L455 210.4L546 178.3Z" fill="#00341b" stroke="#00341b"></path><path d="M455 210.4L460 188.4L411 211Z" fill="#0a5d40" stroke="#0a5d40"></path><path d="M514 392.6L524 373.4L496 344.7Z" fill="#000000" stroke="#000000"></path><path d="M403 392.9L456 412.6L443 313Z" fill="#00341b" stroke="#00341b"></path><path d="M431 412.9L456 412.6L403 392.9Z" fill="#0e674a" stroke="#0e674a"></path><path d="M456 412.6L514 392.6L496 344.7Z" fill="#001b00" stroke="#001b00"></path><path d="M375 157.7L382 192.3L403 197.3Z" fill="#03482d" stroke="#03482d"></path><path d="M403 197.3L382 192.3L411 211Z" fill="#0a5d40" stroke="#0a5d40"></path><path d="M382 192.3L324 255.1L350 262Z" fill="#065236" stroke="#065236"></path><path d="M350 262L300 292.9L369 291.7Z" fill="#00341b" stroke="#00341b"></path><path d="M524 373.4L564 322L542 323.7Z" fill="#001b00" stroke="#001b00"></path><path d="M542 323.7L574 254.9L498 298.9Z" fill="#0e674a" stroke="#0e674a"></path><path d="M586 315.1L564 322L606 363.6Z" fill="#000000" stroke="#000000"></path><path d="M564 322L566 316.1L542 323.7Z" fill="#002204" stroke="#002204"></path><path d="M300 292.9L390 328.1L369 291.7Z" fill="#001b00" stroke="#001b00"></path><path d="M403 392.9L362 406.4L431 412.9Z" fill="#03482d" stroke="#03482d"></path><path d="M546 178.3L455 210.4L485 269.1Z" fill="#0e674a" stroke="#0e674a"></path><path d="M402 109.9L375 157.7L403 197.3Z" fill="#003e24" stroke="#003e24"></path><path d="M324 255.1L300 292.9L350 262Z" fill="#001b00" stroke="#001b00"></path><path d="M566 316.1L574 254.9L542 323.7Z" fill="#002a12" stroke="#002a12"></path><path d="M492 131.6L478 161.6L481 169.3Z" fill="#127254" stroke="#127254"></path><path d="M481 169.3L478 161.6L460 188.4Z" fill="#03482d" stroke="#03482d"></path><path d="M564 322L586 315.1L566 316.1Z" fill="#002a12" stroke="#002a12"></path><path d="M566 316.1L586 315.1L574 254.9Z" fill="#03482d" stroke="#03482d"></path><path d="M606 363.6L564 322L524 373.4Z" fill="#000000" stroke="#000000"></path><path d="M382 192.3L304 237.3L324 255.1Z" fill="#03482d" stroke="#03482d"></path><path d="M324 255.1L304 237.3L300 292.9Z" fill="#002a12" stroke="#002a12"></path><path d="M520 428.4L549 404.7L514 392.6Z" fill="#000000" stroke="#000000"></path><path d="M514 392.6L549 404.7L524 373.4Z" fill="#000000" stroke="#000000"></path><path d="M456 412.6L520 428.4L514 392.6Z" fill="#00341b" stroke="#00341b"></path><path d="M449 458.1L520 428.4L456 412.6Z" fill="#00341b" stroke="#00341b"></path><path d="M449 458.1L456 412.6L431 412.9Z" fill="#002204" stroke="#002204"></path><path d="M574 173.1L586 169.6L583 167.1Z" fill="#127254" stroke="#127254"></path><path d="M574 254.9L566 211L485 269.1Z" fill="#002a12" stroke="#002a12"></path><path d="M402 109.9L403 197.3L460 188.4Z" fill="#00341b" stroke="#00341b"></path><path d="M317 162.6L292 230L304 237.3Z" fill="#002a12" stroke="#002a12"></path><path d="M358 471.3L449 458.1L431 412.9Z" fill="#001b00" stroke="#001b00"></path><path d="M566 211L546 178.3L485 269.1Z" fill="#000000" stroke="#000000"></path><path d="M344 162.7L304 237.3L382 192.3Z" fill="#00341b" stroke="#00341b"></path><path d="M267 270.1L273 286.7L300 292.9Z" fill="#000000" stroke="#000000"></path><path d="M375 157.7L349 161.7L382 192.3Z" fill="#002a12" stroke="#002a12"></path><path d="M349 161.7L344 162.7L382 192.3Z" fill="#0e674a" stroke="#0e674a"></path><path d="M267 270.1L300 292.9L304 237.3Z" fill="#00341b" stroke="#00341b"></path><path d="M300 292.9L289 376.4L390 328.1Z" fill="#002a12" stroke="#002a12"></path><path d="M264 313L289 376.4L300 292.9Z" fill="#065236" stroke="#065236"></path><path d="M362 406.4L358 471.3L431 412.9Z" fill="#003e24" stroke="#003e24"></path><path d="M273 286.7L269 305.9L300 292.9Z" fill="#001b00" stroke="#001b00"></path><path d="M292 230L267 270.1L304 237.3Z" fill="#03482d" stroke="#03482d"></path><path d="M273 286.7L251 297.9L269 305.9Z" fill="#002204" stroke="#002204"></path><path d="M251 297.9L264 313L269 305.9Z" fill="#0e674a" stroke="#0e674a"></path><path d="M269 305.9L264 313L300 292.9Z" fill="#03482d" stroke="#03482d"></path><path d="M528 138.4L492 131.6L481 169.3Z" fill="#000000" stroke="#000000"></path><path d="M478 161.6L402 109.9L460 188.4Z" fill="#065236" stroke="#065236"></path><path d="M365 119.4L344 162.7L349 161.7Z" fill="#03482d" stroke="#03482d"></path><path d="M365 119.4L317 162.6L344 162.7Z" fill="#065236" stroke="#065236"></path><path d="M628 349.7L606 363.6L707 399.7Z" fill="#000000" stroke="#000000"></path><path d="M549 404.7L606 363.6L524 373.4Z" fill="#003e24" stroke="#003e24"></path><path d="M586 315.1L617 248.9L574 254.9Z" fill="#002a12" stroke="#002a12"></path><path d="M365 119.4L349 161.7L375 157.7Z" fill="#065236" stroke="#065236"></path><path d="M344 162.7L317 162.6L304 237.3Z" fill="#002a12" stroke="#002a12"></path><path d="M201 212L203 254.4L267 270.1Z" fill="#002204" stroke="#002204"></path><path d="M574 173.1L528 138.4L546 178.3Z" fill="#065236" stroke="#065236"></path><path d="M546 178.3L528 138.4L481 169.3Z" fill="#0a5d40" stroke="#0a5d40"></path><path d="M566 211L574 173.1L546 178.3Z" fill="#001b00" stroke="#001b00"></path><path d="M617 248.9L566 211L574 254.9Z" fill="#003e24" stroke="#003e24"></path><path d="M629 252L617 248.9L635 292.3Z" fill="#0e674a" stroke="#0e674a"></path><path d="M206 321.1L251 297.9L203 254.4Z" fill="#003e24" stroke="#003e24"></path><path d="M267 270.1L251 297.9L273 286.7Z" fill="#000000" stroke="#000000"></path><path d="M229 332.9L276 402.6L289 376.4Z" fill="#03482d" stroke="#03482d"></path><path d="M606 363.6L627 324.9L586 315.1Z" fill="#03482d" stroke="#03482d"></path><path d="M334 459.7L358 471.3L362 406.4Z" fill="#065236" stroke="#065236"></path><path d="M299 441.7L334 459.7L362 406.4Z" fill="#001b00" stroke="#001b00"></path><path d="M409 104.9L478 161.6L492 131.6Z" fill="#065236" stroke="#065236"></path><path d="M409 104.9L402 109.9L478 161.6Z" fill="#0a5d40" stroke="#0a5d40"></path><path d="M229 332.9L289 376.4L264 313Z" fill="#03482d" stroke="#03482d"></path><path d="M289 376.4L299 441.7L362 406.4Z" fill="#065236" stroke="#065236"></path><path d="M402 109.9L365 119.4L375 157.7Z" fill="#065236" stroke="#065236"></path><path d="M574 173.1L567 116.9L528 138.4Z" fill="#0a5d40" stroke="#0a5d40"></path><path d="M586 169.6L574 173.1L566 211Z" fill="#003e24" stroke="#003e24"></path><path d="M266 137.4L298 163.4L269 127.9Z" fill="#000000" stroke="#000000"></path><path d="M317 162.6L280 177.1L292 230Z" fill="#065236" stroke="#065236"></path><path d="M635 292.3L617 248.9L586 315.1Z" fill="#000000" stroke="#000000"></path><path d="M620 205.1L586 169.6L566 211Z" fill="#0e674a" stroke="#0e674a"></path><path d="M606 363.6L628 349.7L627 324.9Z" fill="#03482d" stroke="#03482d"></path><path d="M627 324.9L635 292.3L586 315.1Z" fill="#03482d" stroke="#03482d"></path><path d="M585 430.6L606 363.6L549 404.7Z" fill="#003e24" stroke="#003e24"></path><path d="M620 205.1L566 211L617 248.9Z" fill="#00341b" stroke="#00341b"></path><path d="M659 278L635 292.3L627 324.9Z" fill="#002204" stroke="#002204"></path><path d="M402 109.9L362 45.9L365 119.4Z" fill="#001b00" stroke="#001b00"></path><path d="M479 87.6L409 104.9L492 131.6Z" fill="#0e674a" stroke="#0e674a"></path><path d="M278 426.6L278 411.9L221 456.4Z" fill="#00341b" stroke="#00341b"></path><path d="M276 402.6L278 411.9L289 376.4Z" fill="#002a12" stroke="#002a12"></path><path d="M579 462.1L585 430.6L520 428.4Z" fill="#0a5d40" stroke="#0a5d40"></path><path d="M520 428.4L585 430.6L549 404.7Z" fill="#127254" stroke="#127254"></path><path d="M278 411.9L299 441.7L289 376.4Z" fill="#002204" stroke="#002204"></path><path d="M298 163.4L280 177.1L317 162.6Z" fill="#03482d" stroke="#03482d"></path><path d="M567 116.9L527 116.3L528 138.4Z" fill="#127254" stroke="#127254"></path><path d="M528 138.4L527 116.3L492 131.6Z" fill="#065236" stroke="#065236"></path><path d="M567 116.9L574 173.1L583 167.1Z" fill="#000000" stroke="#000000"></path><path d="M629 252L620 205.1L617 248.9Z" fill="#00341b" stroke="#00341b"></path><path d="M221 456.4L278 411.9L276 402.6Z" fill="#065236" stroke="#065236"></path><path d="M278 411.9L278 426.6L299 441.7Z" fill="#03482d" stroke="#03482d"></path><path d="M215 336L229 332.9L206 321.1Z" fill="#002204" stroke="#002204"></path><path d="M251 297.9L229 332.9L264 313Z" fill="#065236" stroke="#065236"></path><path d="M527 116.3L479 87.6L492 131.6Z" fill="#002204" stroke="#002204"></path><path d="M488 515.4L579 462.1L520 428.4Z" fill="#065236" stroke="#065236"></path><path d="M585 430.6L707 399.7L606 363.6Z" fill="#002a12" stroke="#002a12"></path><path d="M488 515.4L520 428.4L449 458.1Z" fill="#065236" stroke="#065236"></path><path d="M453 522.4L462 515.6L449 458.1Z" fill="#03482d" stroke="#03482d"></path><path d="M278 426.6L298 467.1L299 441.7Z" fill="#000000" stroke="#000000"></path><path d="M299 441.7L298 467.1L334 459.7Z" fill="#0a5d40" stroke="#0a5d40"></path><path d="M334 459.7L349 513.6L358 471.3Z" fill="#065236" stroke="#065236"></path><path d="M358 471.3L453 522.4L449 458.1Z" fill="#002204" stroke="#002204"></path><path d="M295 490.1L298 467.1L221 456.4Z" fill="#0a5d40" stroke="#0a5d40"></path><path d="M635 292.3L659 278L629 252Z" fill="#00341b" stroke="#00341b"></path><path d="M629 252L647 203.3L620 205.1Z" fill="#003e24" stroke="#003e24"></path><path d="M721 371.4L659 278L627 324.9Z" fill="#000000" stroke="#000000"></path><path d="M462 515.6L488 515.4L449 458.1Z" fill="#001b00" stroke="#001b00"></path><path d="M642 123.3L583 167.1L586 169.6Z" fill="#000000" stroke="#000000"></path><path d="M642 123.3L567 116.9L583 167.1Z" fill="#003e24" stroke="#003e24"></path><path d="M527 116.3L481 70.9L479 87.6Z" fill="#0e674a" stroke="#0e674a"></path><path d="M349 513.6L453 522.4L358 471.3Z" fill="#001b00" stroke="#001b00"></path><path d="M462 515.6L453 522.4L488 515.4Z" fill="#03482d" stroke="#03482d"></path><path d="M206 321.1L229 332.9L251 297.9Z" fill="#00341b" stroke="#00341b"></path><path d="M229 332.9L198 385.6L276 402.6Z" fill="#002204" stroke="#002204"></path><path d="M690 244.9L647 203.3L629 252Z" fill="#000000" stroke="#000000"></path><path d="M620 205.1L642 123.3L586 169.6Z" fill="#002204" stroke="#002204"></path><path d="M567 74.4L481 70.9L527 116.3Z" fill="#0e674a" stroke="#0e674a"></path><path d="M479 87.6L460 54.7L409 104.9Z" fill="#002a12" stroke="#002a12"></path><path d="M296 99.9L317 162.6L365 119.4Z" fill="#065236" stroke="#065236"></path><path d="M334 517.3L349 513.6L334 459.7Z" fill="#001b00" stroke="#001b00"></path><path d="M203 254.4L251 297.9L267 270.1Z" fill="#00341b" stroke="#00341b"></path><path d="M269 127.9L298 163.4L296 99.9Z" fill="#127254" stroke="#127254"></path><path d="M298 163.4L266 137.4L280 177.1Z" fill="#002a12" stroke="#002a12"></path><path d="M219 191.1L267 270.1L292 230Z" fill="#0e674a" stroke="#0e674a"></path><path d="M298 163.4L317 162.6L296 99.9Z" fill="#003e24" stroke="#003e24"></path><path d="M221 456.4L298 467.1L278 426.6Z" fill="#0e674a" stroke="#0e674a"></path><path d="M298 467.1L295 490.1L334 459.7Z" fill="#002204" stroke="#002204"></path><path d="M304 511.6L295 490.1L236 552.1Z" fill="#127254" stroke="#127254"></path><path d="M219 191.1L292 230L280 177.1Z" fill="#002204" stroke="#002204"></path><path d="M296 99.9L365 119.4L362 45.9Z" fill="#002a12" stroke="#002a12"></path><path d="M266 137.4L219 191.1L280 177.1Z" fill="#00341b" stroke="#00341b"></path><path d="M690 244.9L657 195.4L647 203.3Z" fill="#0a5d40" stroke="#0a5d40"></path><path d="M647 203.3L657 195.4L620 205.1Z" fill="#000000" stroke="#000000"></path><path d="M295 490.1L334 517.3L334 459.7Z" fill="#03482d" stroke="#03482d"></path><path d="M349 513.6L409 567.1L453 522.4Z" fill="#002a12" stroke="#002a12"></path><path d="M242 125.3L219 191.1L266 137.4Z" fill="#127254" stroke="#127254"></path><path d="M409 52.6L402 109.9L409 104.9Z" fill="#127254" stroke="#127254"></path><path d="M471 48.9L460 54.7L481 70.9Z" fill="#127254" stroke="#127254"></path><path d="M481 70.9L460 54.7L479 87.6Z" fill="#065236" stroke="#065236"></path><path d="M296 99.9L265 123.3L269 127.9Z" fill="#002a12" stroke="#002a12"></path><path d="M269 127.9L265 123.3L266 137.4Z" fill="#001b00" stroke="#001b00"></path><path d="M460 54.7L409 52.6L409 104.9Z" fill="#002204" stroke="#002204"></path><path d="M198 385.6L229 332.9L215 336Z" fill="#127254" stroke="#127254"></path><path d="M295 490.1L304 511.6L334 517.3Z" fill="#003e24" stroke="#003e24"></path><path d="M471 38.6L471 48.9L536 28.9Z" fill="#065236" stroke="#065236"></path><path d="M471 38.6L395 41.6L409 52.6Z" fill="#002a12" stroke="#002a12"></path><path d="M188 194.3L201 212L219 191.1Z" fill="#127254" stroke="#127254"></path><path d="M219 191.1L201 212L267 270.1Z" fill="#127254" stroke="#127254"></path><path d="M164 396L198 385.6L206 321.1Z" fill="#000000" stroke="#000000"></path><path d="M304 511.6L310 517.4L334 517.3Z" fill="#065236" stroke="#065236"></path><path d="M352 586.1L409 567.1L349 513.6Z" fill="#065236" stroke="#065236"></path><path d="M171 277.9L206 321.1L203 254.4Z" fill="#127254" stroke="#127254"></path><path d="M206 321.1L198 385.6L215 336Z" fill="#03482d" stroke="#03482d"></path><path d="M735 254.1L690 244.9L659 278Z" fill="#003e24" stroke="#003e24"></path><path d="M659 278L690 244.9L629 252Z" fill="#001b00" stroke="#001b00"></path><path d="M721 371.4L627 324.9L628 349.7Z" fill="#03482d" stroke="#03482d"></path><path d="M181 228.3L185 250.4L203 254.4Z" fill="#003e24" stroke="#003e24"></path><path d="M642 123.3L567 74.4L567 116.9Z" fill="#001b00" stroke="#001b00"></path><path d="M567 116.9L567 74.4L527 116.3Z" fill="#002a12" stroke="#002a12"></path><path d="M181 228.3L182 255L185 250.4Z" fill="#000000" stroke="#000000"></path><path d="M185 250.4L182 255L203 254.4Z" fill="#127254" stroke="#127254"></path><path d="M471 38.6L409 52.6L460 54.7Z" fill="#002a12" stroke="#002a12"></path><path d="M409 52.6L362 45.9L402 109.9Z" fill="#00341b" stroke="#00341b"></path><path d="M536 28.9L471 48.9L481 70.9Z" fill="#127254" stroke="#127254"></path><path d="M471 48.9L471 38.6L460 54.7Z" fill="#0a5d40" stroke="#0a5d40"></path><path d="M225 88.6L242 125.3L265 123.3Z" fill="#00341b" stroke="#00341b"></path><path d="M265 123.3L242 125.3L266 137.4Z" fill="#001b00" stroke="#001b00"></path><path d="M225 88.6L265 123.3L296 99.9Z" fill="#065236" stroke="#065236"></path><path d="M395 41.6L362 45.9L409 52.6Z" fill="#00341b" stroke="#00341b"></path><path d="M201 212L181 228.3L203 254.4Z" fill="#127254" stroke="#127254"></path><path d="M188 194.3L181 228.3L201 212Z" fill="#002204" stroke="#002204"></path><path d="M657 195.4L642 123.3L620 205.1Z" fill="#002204" stroke="#002204"></path><path d="M674 111.4L642 123.3L657 195.4Z" fill="#000000" stroke="#000000"></path><path d="M143 263.3L171 277.9L182 255Z" fill="#0e674a" stroke="#0e674a"></path><path d="M182 255L171 277.9L203 254.4Z" fill="#0e674a" stroke="#0e674a"></path><path d="M198 385.6L221 456.4L276 402.6Z" fill="#000000" stroke="#000000"></path><path d="M304 511.6L236 552.1L310 517.4Z" fill="#002a12" stroke="#002a12"></path><path d="M415 593.3L409 567.1L399 600Z" fill="#127254" stroke="#127254"></path><path d="M453 522.4L492 596.3L488 515.4Z" fill="#065236" stroke="#065236"></path><path d="M654 507.4L585 430.6L579 462.1Z" fill="#003e24" stroke="#003e24"></path><path d="M163 144.7L188 194.3L219 191.1Z" fill="#0e674a" stroke="#0e674a"></path><path d="M654 507.4L622 555.3L655 527.4Z" fill="#127254" stroke="#127254"></path><path d="M678 491.6L707 399.7L585 430.6Z" fill="#0e674a" stroke="#0e674a"></path><path d="M591 48.9L536 28.9L567 74.4Z" fill="#127254" stroke="#127254"></path><path d="M567 74.4L536 28.9L481 70.9Z" fill="#0e674a" stroke="#0e674a"></path><path d="M471 38.6L369 0L395 41.6Z" fill="#003e24" stroke="#003e24"></path><path d="M707 399.7L721 371.4L628 349.7Z" fill="#001b00" stroke="#001b00"></path><path d="M123 379.7L164 396L206 321.1Z" fill="#001b00" stroke="#001b00"></path><path d="M198 385.6L193 461.6L221 456.4Z" fill="#0a5d40" stroke="#0a5d40"></path><path d="M735 254.1L717 208.6L690 244.9Z" fill="#0a5d40" stroke="#0a5d40"></path><path d="M690 244.9L717 208.6L657 195.4Z" fill="#002a12" stroke="#002a12"></path><path d="M654 69.9L591 48.9L642 123.3Z" fill="#065236" stroke="#065236"></path><path d="M642 123.3L591 48.9L567 74.4Z" fill="#003e24" stroke="#003e24"></path><path d="M163 144.7L158 209.6L188 194.3Z" fill="#0a5d40" stroke="#0a5d40"></path><path d="M188 194.3L158 209.6L181 228.3Z" fill="#002204" stroke="#002204"></path><path d="M181 228.3L143 263.3L182 255Z" fill="#065236" stroke="#065236"></path><path d="M171 277.9L116 302.3L206 321.1Z" fill="#003e24" stroke="#003e24"></path><path d="M160 434.7L193 461.6L198 385.6Z" fill="#127254" stroke="#127254"></path><path d="M221 456.4L201 478.7L295 490.1Z" fill="#127254" stroke="#127254"></path><path d="M352 586.1L349 513.6L334 517.3Z" fill="#003e24" stroke="#003e24"></path><path d="M352 586.1L334 517.3L310 517.4Z" fill="#002204" stroke="#002204"></path><path d="M468 600L492 596.3L453 522.4Z" fill="#03482d" stroke="#03482d"></path><path d="M158 209.6L143 263.3L181 228.3Z" fill="#0e674a" stroke="#0e674a"></path><path d="M193 461.6L201 478.7L221 456.4Z" fill="#003e24" stroke="#003e24"></path><path d="M757 281.9L735 254.1L659 278Z" fill="#03482d" stroke="#03482d"></path><path d="M622 555.3L579 462.1L488 515.4Z" fill="#065236" stroke="#065236"></path><path d="M707 399.7L749 393.4L721 371.4Z" fill="#002204" stroke="#002204"></path><path d="M233 43.6L225 88.6L296 99.9Z" fill="#003e24" stroke="#003e24"></path><path d="M242 125.3L207 107.9L219 191.1Z" fill="#065236" stroke="#065236"></path><path d="M350 600L352 586.1L245 600Z" fill="#002204" stroke="#002204"></path><path d="M225 88.6L207 107.9L242 125.3Z" fill="#002a12" stroke="#002a12"></path><path d="M728 174.6L674 111.4L657 195.4Z" fill="#001b00" stroke="#001b00"></path><path d="M468 600L453 522.4L409 567.1Z" fill="#00341b" stroke="#00341b"></path><path d="M407 656.1L468 600L415 593.3Z" fill="#000000" stroke="#000000"></path><path d="M415 593.3L468 600L409 567.1Z" fill="#002204" stroke="#002204"></path><path d="M377 596.3L399 600L409 567.1Z" fill="#003e24" stroke="#003e24"></path><path d="M352 586.1L377 596.3L409 567.1Z" fill="#002a12" stroke="#002a12"></path><path d="M545 0L498 0L536 28.9Z" fill="#0e674a" stroke="#0e674a"></path><path d="M536 28.9L498 0L471 38.6Z" fill="#065236" stroke="#065236"></path><path d="M395 41.6L369 0L362 45.9Z" fill="#003e24" stroke="#003e24"></path><path d="M262 7.7L233 43.6L296 99.9Z" fill="#00341b" stroke="#00341b"></path><path d="M468 600L491 600L492 596.3Z" fill="#001b00" stroke="#001b00"></path><path d="M492 596.3L499 600L488 515.4Z" fill="#002a12" stroke="#002a12"></path><path d="M498 0L369 0L471 38.6Z" fill="#002a12" stroke="#002a12"></path><path d="M491 600L499 600L492 596.3Z" fill="#002204" stroke="#002204"></path><path d="M654 507.4L678 491.6L585 430.6Z" fill="#001b00" stroke="#001b00"></path><path d="M591 48.9L549 11.7L536 28.9Z" fill="#002204" stroke="#002204"></path><path d="M545 0L549 11.7L571 0Z" fill="#002a12" stroke="#002a12"></path><path d="M193 461.6L117 506.3L201 478.7Z" fill="#002a12" stroke="#002a12"></path><path d="M164 396L160 434.7L198 385.6Z" fill="#00341b" stroke="#00341b"></path><path d="M151 440.4L160 434.7L164 396Z" fill="#03482d" stroke="#03482d"></path><path d="M350 600L363 600L352 586.1Z" fill="#0a5d40" stroke="#0a5d40"></path><path d="M352 586.1L363 600L377 596.3Z" fill="#001b00" stroke="#001b00"></path><path d="M377 596.3L407 656.1L399 600Z" fill="#03482d" stroke="#03482d"></path><path d="M717 208.6L727 181.6L657 195.4Z" fill="#03482d" stroke="#03482d"></path><path d="M773 170.3L727 181.6L788 210.4Z" fill="#003e24" stroke="#003e24"></path><path d="M655 527.4L681 494.6L654 507.4Z" fill="#003e24" stroke="#003e24"></path><path d="M654 507.4L681 494.6L678 491.6Z" fill="#0e674a" stroke="#0e674a"></path><path d="M678 491.6L729 493.3L707 399.7Z" fill="#003e24" stroke="#003e24"></path><path d="M123 254.4L128 265.9L143 263.3Z" fill="#003e24" stroke="#003e24"></path><path d="M143 263.3L116 302.3L171 277.9Z" fill="#00341b" stroke="#00341b"></path><path d="M123 254.4L143 263.3L158 209.6Z" fill="#000000" stroke="#000000"></path><path d="M245 600L352 586.1L310 517.4Z" fill="#0a5d40" stroke="#0a5d40"></path><path d="M668 63.7L654 69.9L674 111.4Z" fill="#0a5d40" stroke="#0a5d40"></path><path d="M674 111.4L654 69.9L642 123.3Z" fill="#001b00" stroke="#001b00"></path><path d="M622 555.3L654 507.4L579 462.1Z" fill="#000000" stroke="#000000"></path><path d="M760 154.4L728 174.6L773 170.3Z" fill="#127254" stroke="#127254"></path><path d="M727 181.6L728 174.6L657 195.4Z" fill="#03482d" stroke="#03482d"></path><path d="M514 608.1L622 555.3L488 515.4Z" fill="#127254" stroke="#127254"></path><path d="M141 117.4L163 144.7L207 107.9Z" fill="#0e674a" stroke="#0e674a"></path><path d="M207 107.9L163 144.7L219 191.1Z" fill="#002204" stroke="#002204"></path><path d="M574 7.7L549 11.7L591 48.9Z" fill="#002a12" stroke="#002a12"></path><path d="M549 11.7L545 0L536 28.9Z" fill="#065236" stroke="#065236"></path><path d="M491 600L514 608.1L499 600Z" fill="#03482d" stroke="#03482d"></path><path d="M499 600L514 608.1L488 515.4Z" fill="#00341b" stroke="#00341b"></path><path d="M468 600L514 608.1L491 600Z" fill="#002a12" stroke="#002a12"></path><path d="M549 626.1L514 608.1L407 656.1Z" fill="#000000" stroke="#000000"></path><path d="M514 608.1L468 600L407 656.1Z" fill="#0e674a" stroke="#0e674a"></path><path d="M415 593.3L399 600L407 656.1Z" fill="#00341b" stroke="#00341b"></path><path d="M721 371.4L757 281.9L659 278Z" fill="#03482d" stroke="#03482d"></path><path d="M773 170.3L728 174.6L727 181.6Z" fill="#065236" stroke="#065236"></path><path d="M766 351L757 281.9L721 371.4Z" fill="#002204" stroke="#002204"></path><path d="M65 149.6L123 254.4L158 209.6Z" fill="#065236" stroke="#065236"></path><path d="M123 379.7L151 440.4L164 396Z" fill="#00341b" stroke="#00341b"></path><path d="M160 434.7L151 440.4L193 461.6Z" fill="#127254" stroke="#127254"></path><path d="M201 478.7L236 552.1L295 490.1Z" fill="#0a5d40" stroke="#0a5d40"></path><path d="M116 302.3L143 263.3L128 265.9Z" fill="#001b00" stroke="#001b00"></path><path d="M590 0L574 7.7L591 48.9Z" fill="#0e674a" stroke="#0e674a"></path><path d="M111 296.1L116 302.3L128 265.9Z" fill="#03482d" stroke="#03482d"></path><path d="M759 403.7L749 393.4L707 399.7Z" fill="#000000" stroke="#000000"></path><path d="M219 549.3L236 552.1L201 478.7Z" fill="#003e24" stroke="#003e24"></path><path d="M116 302.3L123 379.7L206 321.1Z" fill="#001b00" stroke="#001b00"></path><path d="M590 0L571 0L574 7.7Z" fill="#0e674a" stroke="#0e674a"></path><path d="M574 7.7L571 0L549 11.7Z" fill="#03482d" stroke="#03482d"></path><path d="M123 254.4L111 296.1L128 265.9Z" fill="#002204" stroke="#002204"></path><path d="M116 302.3L97 375.4L123 379.7Z" fill="#002204" stroke="#002204"></path><path d="M303 0L296 99.9L362 45.9Z" fill="#0a5d40" stroke="#0a5d40"></path><path d="M225 88.6L136 83.9L207 107.9Z" fill="#03482d" stroke="#03482d"></path><path d="M369 0L303 0L362 45.9Z" fill="#002a12" stroke="#002a12"></path><path d="M678 62.7L668 63.7L674 111.4Z" fill="#127254" stroke="#127254"></path><path d="M656 0L590 0L591 48.9Z" fill="#002204" stroke="#002204"></path><path d="M0 -21.1L302 -1.3L369 0Z" fill="#127254" stroke="#127254"></path><path d="M369 0L302 -1.3L303 0Z" fill="#000000" stroke="#000000"></path><path d="M303 0L262 7.7L296 99.9Z" fill="#001b00" stroke="#001b00"></path><path d="M0 -21.1L369 0L498 0Z" fill="#0a5d40" stroke="#0a5d40"></path><path d="M812 -15.1L498 0L545 0Z" fill="#001b00" stroke="#001b00"></path><path d="M749 393.4L766 351L721 371.4Z" fill="#0a5d40" stroke="#0a5d40"></path><path d="M195 573.3L219 549.3L152 542.1Z" fill="#00341b" stroke="#00341b"></path><path d="M236 552.1L245 600L310 517.4Z" fill="#065236" stroke="#065236"></path><path d="M656 0L591 48.9L654 69.9Z" fill="#002204" stroke="#002204"></path><path d="M571 0L812 -15.1L545 0Z" fill="#001b00" stroke="#001b00"></path><path d="M755 69.6L678 62.7L674 111.4Z" fill="#127254" stroke="#127254"></path><path d="M668 63.7L656 0L654 69.9Z" fill="#065236" stroke="#065236"></path><path d="M771 465.1L759 403.7L707 399.7Z" fill="#002204" stroke="#002204"></path><path d="M749 393.4L790 370.9L766 351Z" fill="#065236" stroke="#065236"></path><path d="M729 493.3L678 491.6L681 494.6Z" fill="#00341b" stroke="#00341b"></path><path d="M302 -1.3L262 7.7L303 0Z" fill="#065236" stroke="#065236"></path><path d="M790 370.9L777 346.1L766 351Z" fill="#03482d" stroke="#03482d"></path><path d="M766 351L777 346.1L757 281.9Z" fill="#003e24" stroke="#003e24"></path><path d="M727 181.6L717 208.6L788 210.4Z" fill="#00341b" stroke="#00341b"></path><path d="M407 656.1L377 596.3L363 600Z" fill="#001b00" stroke="#001b00"></path><path d="M514 608.1L549 626.1L622 555.3Z" fill="#002a12" stroke="#002a12"></path><path d="M747 560.3L681 494.6L655 527.4Z" fill="#002204" stroke="#002204"></path><path d="M302 -1.3L263 0L262 7.7Z" fill="#127254" stroke="#127254"></path><path d="M224 0L211 10.7L233 43.6Z" fill="#000000" stroke="#000000"></path><path d="M136 83.9L141 117.4L207 107.9Z" fill="#003e24" stroke="#003e24"></path><path d="M136 83.9L225 88.6L233 43.6Z" fill="#0e674a" stroke="#0e674a"></path><path d="M163 144.7L65 149.6L158 209.6Z" fill="#002204" stroke="#002204"></path><path d="M26 311.7L38 343.1L111 296.1Z" fill="#000000" stroke="#000000"></path><path d="M747 560.3L729 493.3L681 494.6Z" fill="#003e24" stroke="#003e24"></path><path d="M648 600L655 527.4L622 555.3Z" fill="#00341b" stroke="#00341b"></path><path d="M79 413.4L97 375.4L38 343.1Z" fill="#003e24" stroke="#003e24"></path><path d="M38 343.1L97 375.4L116 302.3Z" fill="#002a12" stroke="#002a12"></path><path d="M123 379.7L97 418.3L151 440.4Z" fill="#065236" stroke="#065236"></path><path d="M152 542.1L219 549.3L201 478.7Z" fill="#03482d" stroke="#03482d"></path><path d="M790 370.9L788 344.6L777 346.1Z" fill="#03482d" stroke="#03482d"></path><path d="M777 346.1L788 344.6L757 281.9Z" fill="#127254" stroke="#127254"></path><path d="M790 370.9L749 393.4L759 403.7Z" fill="#000000" stroke="#000000"></path><path d="M717 208.6L735 254.1L788 210.4Z" fill="#001b00" stroke="#001b00"></path><path d="M728 174.6L753 137.7L674 111.4Z" fill="#001b00" stroke="#001b00"></path><path d="M760 154.4L753 137.7L728 174.6Z" fill="#0a5d40" stroke="#0a5d40"></path><path d="M549 626.1L609 609.3L622 555.3Z" fill="#003e24" stroke="#003e24"></path><path d="M755 69.6L686 39.9L678 62.7Z" fill="#00341b" stroke="#00341b"></path><path d="M678 62.7L686 39.9L668 63.7Z" fill="#03482d" stroke="#03482d"></path><path d="M760 154.4L779 165.4L753 137.7Z" fill="#001b00" stroke="#001b00"></path><path d="M788 210.4L735 254.1L757 281.9Z" fill="#03482d" stroke="#03482d"></path><path d="M218 600L236 552.1L219 549.3Z" fill="#03482d" stroke="#03482d"></path><path d="M218 600L245 600L236 552.1Z" fill="#0a5d40" stroke="#0a5d40"></path><path d="M350 600L407 656.1L363 600Z" fill="#00341b" stroke="#00341b"></path><path d="M792 399.4L790 370.9L759 403.7Z" fill="#065236" stroke="#065236"></path><path d="M245 600L407 656.1L350 600Z" fill="#001b00" stroke="#001b00"></path><path d="M847 313.1L757 281.9L788 344.6Z" fill="#003e24" stroke="#003e24"></path><path d="M850 264.9L788 210.4L757 281.9Z" fill="#003e24" stroke="#003e24"></path><path d="M97 375.4L95 408.9L123 379.7Z" fill="#001b00" stroke="#001b00"></path><path d="M95 408.9L97 418.3L123 379.7Z" fill="#003e24" stroke="#003e24"></path><path d="M97 418.3L99 426.7L151 440.4Z" fill="#003e24" stroke="#003e24"></path><path d="M788 210.4L779 165.4L773 170.3Z" fill="#0a5d40" stroke="#0a5d40"></path><path d="M773 170.3L779 165.4L760 154.4Z" fill="#00341b" stroke="#00341b"></path><path d="M729 0L689 0L686 39.9Z" fill="#065236" stroke="#065236"></path><path d="M696 592.3L648 600L690 635.1Z" fill="#000000" stroke="#000000"></path><path d="M609 609.3L648 600L622 555.3Z" fill="#127254" stroke="#127254"></path><path d="M152 542.1L201 478.7L117 506.3Z" fill="#002a12" stroke="#002a12"></path><path d="M811 436.7L792 399.4L759 403.7Z" fill="#003e24" stroke="#003e24"></path><path d="M790 370.9L818 365.7L788 344.6Z" fill="#002204" stroke="#002204"></path><path d="M224 0L233 43.6L262 7.7Z" fill="#002a12" stroke="#002a12"></path><path d="M302 -1.3L224 0L263 0Z" fill="#065236" stroke="#065236"></path><path d="M263 0L224 0L262 7.7Z" fill="#00341b" stroke="#00341b"></path><path d="M686 39.9L656 0L668 63.7Z" fill="#00341b" stroke="#00341b"></path><path d="M590 0L812 -15.1L571 0Z" fill="#03482d" stroke="#03482d"></path><path d="M211 10.7L136 83.9L233 43.6Z" fill="#002204" stroke="#002204"></path><path d="M141 117.4L65 149.6L163 144.7Z" fill="#001b00" stroke="#001b00"></path><path d="M768 487.6L771 465.1L729 493.3Z" fill="#000000" stroke="#000000"></path><path d="M729 493.3L771 465.1L707 399.7Z" fill="#03482d" stroke="#03482d"></path><path d="M195 573.3L218 600L219 549.3Z" fill="#000000" stroke="#000000"></path><path d="M245 600L218 600L407 656.1Z" fill="#0a5d40" stroke="#0a5d40"></path><path d="M117 506.3L193 461.6L151 440.4Z" fill="#002204" stroke="#002204"></path><path d="M195 573.3L170 600L218 600Z" fill="#00341b" stroke="#00341b"></path><path d="M97 418.3L79 413.4L99 426.7Z" fill="#002a12" stroke="#002a12"></path><path d="M97 491.3L117 506.3L151 440.4Z" fill="#127254" stroke="#127254"></path><path d="M95 408.9L79 413.4L97 418.3Z" fill="#127254" stroke="#127254"></path><path d="M97 375.4L79 413.4L95 408.9Z" fill="#00341b" stroke="#00341b"></path><path d="M38 343.1L116 302.3L111 296.1Z" fill="#03482d" stroke="#03482d"></path><path d="M780 490.4L768 487.6L773 543.3Z" fill="#0e674a" stroke="#0e674a"></path><path d="M826 360L818 365.7L832 385.9Z" fill="#003e24" stroke="#003e24"></path><path d="M97 491.3L151 440.4L99 426.7Z" fill="#002204" stroke="#002204"></path><path d="M811 436.7L759 403.7L771 465.1Z" fill="#00341b" stroke="#00341b"></path><path d="M792 399.4L818 365.7L790 370.9Z" fill="#00341b" stroke="#00341b"></path><path d="M780 490.4L778 487.3L768 487.6Z" fill="#002204" stroke="#002204"></path><path d="M768 487.6L778 487.3L771 465.1Z" fill="#001b00" stroke="#001b00"></path><path d="M755 69.6L674 111.4L753 137.7Z" fill="#001b00" stroke="#001b00"></path><path d="M686 39.9L689 0L656 0Z" fill="#03482d" stroke="#03482d"></path><path d="M656 0L812 -15.1L590 0Z" fill="#002a12" stroke="#002a12"></path><path d="M660 640.1L648 600L609 609.3Z" fill="#065236" stroke="#065236"></path><path d="M648 600L696 592.3L655 527.4Z" fill="#002204" stroke="#002204"></path><path d="M114 71.9L111 86.7L136 83.9Z" fill="#0a5d40" stroke="#0a5d40"></path><path d="M136 83.9L111 86.7L141 117.4Z" fill="#0e674a" stroke="#0e674a"></path><path d="M114 71.9L136 83.9L131 0Z" fill="#0e674a" stroke="#0e674a"></path><path d="M804 103.4L755 69.6L753 137.7Z" fill="#003e24" stroke="#003e24"></path><path d="M773 543.3L768 487.6L729 493.3Z" fill="#002204" stroke="#002204"></path><path d="M793 495.4L811 436.7L771 465.1Z" fill="#0a5d40" stroke="#0a5d40"></path><path d="M827 398L818 365.7L792 399.4Z" fill="#03482d" stroke="#03482d"></path><path d="M818 365.7L826 360L788 344.6Z" fill="#127254" stroke="#127254"></path><path d="M885 171.1L804 103.4L779 165.4Z" fill="#001b00" stroke="#001b00"></path><path d="M79 413.4L97 491.3L99 426.7Z" fill="#001b00" stroke="#001b00"></path><path d="M106 603.1L170 600L152 542.1Z" fill="#00341b" stroke="#00341b"></path><path d="M174 0L136 83.9L211 10.7Z" fill="#0e674a" stroke="#0e674a"></path><path d="M793 495.4L771 465.1L778 487.3Z" fill="#0a5d40" stroke="#0a5d40"></path><path d="M114 71.9L100 87.7L111 86.7Z" fill="#000000" stroke="#000000"></path><path d="M111 86.7L100 87.7L141 117.4Z" fill="#03482d" stroke="#03482d"></path><path d="M0 -21.1L174 0L224 0Z" fill="#0a5d40" stroke="#0a5d40"></path><path d="M224 0L174 0L211 10.7Z" fill="#003e24" stroke="#003e24"></path><path d="M38 106.7L78 104.9L100 87.7Z" fill="#0e674a" stroke="#0e674a"></path><path d="M811 436.7L827 398L792 399.4Z" fill="#002204" stroke="#002204"></path><path d="M78 104.9L65 149.6L141 117.4Z" fill="#002a12" stroke="#002a12"></path><path d="M827 398L832 385.9L818 365.7Z" fill="#0a5d40" stroke="#0a5d40"></path><path d="M26 311.7L111 296.1L0 264.3Z" fill="#002204" stroke="#002204"></path><path d="M79 413.4L0 476.6L97 491.3Z" fill="#003e24" stroke="#003e24"></path><path d="M106 603.1L152 542.1L103 600Z" fill="#003e24" stroke="#003e24"></path><path d="M152 542.1L170 600L195 573.3Z" fill="#001b00" stroke="#001b00"></path><path d="M218 600L170 600L407 656.1Z" fill="#002a12" stroke="#002a12"></path><path d="M0 -21.1L167 0L174 0Z" fill="#001b00" stroke="#001b00"></path><path d="M174 0L167 0L136 83.9Z" fill="#002204" stroke="#002204"></path><path d="M696 592.3L747 560.3L655 527.4Z" fill="#065236" stroke="#065236"></path><path d="M780 490.4L793 495.4L778 487.3Z" fill="#003e24" stroke="#003e24"></path><path d="M773 543.3L793 495.4L780 490.4Z" fill="#000000" stroke="#000000"></path><path d="M890 397.6L832 385.9L827 398Z" fill="#003e24" stroke="#003e24"></path><path d="M890 397.6L861 340L832 385.9Z" fill="#00341b" stroke="#00341b"></path><path d="M696 592.3L756 600L747 560.3Z" fill="#0a5d40" stroke="#0a5d40"></path><path d="M549 626.1L660 640.1L609 609.3Z" fill="#00341b" stroke="#00341b"></path><path d="M407 656.1L660 640.1L549 626.1Z" fill="#065236" stroke="#065236"></path><path d="M861 340L847 313.1L826 360Z" fill="#001b00" stroke="#001b00"></path><path d="M826 360L847 313.1L788 344.6Z" fill="#065236" stroke="#065236"></path><path d="M779 165.4L804 103.4L753 137.7Z" fill="#0e674a" stroke="#0e674a"></path><path d="M100 87.7L78 104.9L141 117.4Z" fill="#000000" stroke="#000000"></path><path d="M38 106.7L100 87.7L101 0Z" fill="#001b00" stroke="#001b00"></path><path d="M847 313.1L850 264.9L757 281.9Z" fill="#00341b" stroke="#00341b"></path><path d="M0 264.3L111 296.1L123 254.4Z" fill="#000000" stroke="#000000"></path><path d="M747 560.3L773 543.3L729 493.3Z" fill="#03482d" stroke="#03482d"></path><path d="M763 600L773 543.3L747 560.3Z" fill="#127254" stroke="#127254"></path><path d="M870 201.3L779 165.4L788 210.4Z" fill="#065236" stroke="#065236"></path><path d="M755 69.6L729 0L686 39.9Z" fill="#0a5d40" stroke="#0a5d40"></path><path d="M754 0L729 0L755 69.6Z" fill="#127254" stroke="#127254"></path><path d="M689 0L812 -15.1L656 0Z" fill="#002a12" stroke="#002a12"></path><path d="M850 264.9L852 228.3L788 210.4Z" fill="#000000" stroke="#000000"></path><path d="M660 640.1L690 635.1L648 600Z" fill="#127254" stroke="#127254"></path><path d="M832 385.9L861 340L826 360Z" fill="#002204" stroke="#002204"></path><path d="M847 313.1L900 286.9L850 264.9Z" fill="#003e24" stroke="#003e24"></path><path d="M900 226.3L870 201.3L852 228.3Z" fill="#0e674a" stroke="#0e674a"></path><path d="M890 397.6L827 398L900 440.6Z" fill="#0a5d40" stroke="#0a5d40"></path><path d="M900 461.1L811 436.7L900 482.4Z" fill="#003e24" stroke="#003e24"></path><path d="M0 -21.1L131 0L167 0Z" fill="#000000" stroke="#000000"></path><path d="M167 0L131 0L136 83.9Z" fill="#127254" stroke="#127254"></path><path d="M808 43.9L798 63.7L851 54.6Z" fill="#0a5d40" stroke="#0a5d40"></path><path d="M804 103.4L798 63.7L755 69.6Z" fill="#065236" stroke="#065236"></path><path d="M78 104.9L43 130.6L65 149.6Z" fill="#127254" stroke="#127254"></path><path d="M0 227L0 264.3L123 254.4Z" fill="#002204" stroke="#002204"></path><path d="M38 106.7L43 130.6L78 104.9Z" fill="#0e674a" stroke="#0e674a"></path><path d="M806 34.7L754 0L755 69.6Z" fill="#002204" stroke="#002204"></path><path d="M729 0L812 -15.1L689 0Z" fill="#001b00" stroke="#001b00"></path><path d="M690 635.1L756 600L696 592.3Z" fill="#0a5d40" stroke="#0a5d40"></path><path d="M773 543.3L815 543.1L793 495.4Z" fill="#03482d" stroke="#03482d"></path><path d="M0 264.3L0 320.7L26 311.7Z" fill="#002204" stroke="#002204"></path><path d="M26 311.7L0 320.7L38 343.1Z" fill="#000000" stroke="#000000"></path><path d="M38 343.1L0 409.9L79 413.4Z" fill="#002204" stroke="#002204"></path><path d="M0 227L123 254.4L65 149.6Z" fill="#065236" stroke="#065236"></path><path d="M690 635.1L761 600L756 600Z" fill="#065236" stroke="#065236"></path><path d="M756 600L761 600L747 560.3Z" fill="#00341b" stroke="#00341b"></path><path d="M900 237.1L852 228.3L850 264.9Z" fill="#001b00" stroke="#001b00"></path><path d="M852 228.3L870 201.3L788 210.4Z" fill="#00341b" stroke="#00341b"></path><path d="M690 635.1L763 600L761 600Z" fill="#127254" stroke="#127254"></path><path d="M761 600L763 600L747 560.3Z" fill="#001b00" stroke="#001b00"></path><path d="M101 0L100 87.7L114 71.9Z" fill="#002a12" stroke="#002a12"></path><path d="M0 198.6L0 227L65 149.6Z" fill="#000000" stroke="#000000"></path><path d="M0 198.6L65 149.6L0 184.1Z" fill="#000000" stroke="#000000"></path><path d="M800 600L815 543.1L773 543.3Z" fill="#00341b" stroke="#00341b"></path><path d="M858 85.6L798 63.7L804 103.4Z" fill="#065236" stroke="#065236"></path><path d="M798 63.7L806 34.7L755 69.6Z" fill="#001b00" stroke="#001b00"></path><path d="M0 184.1L65 149.6L43 130.6Z" fill="#0e674a" stroke="#0e674a"></path><path d="M103 600L152 542.1L117 506.3Z" fill="#065236" stroke="#065236"></path><path d="M170 600L106 603.1L407 656.1Z" fill="#127254" stroke="#127254"></path><path d="M103 600L58 565.1L90 602.3Z" fill="#003e24" stroke="#003e24"></path><path d="M0 -21.1L101 0L131 0Z" fill="#0e674a" stroke="#0e674a"></path><path d="M131 0L101 0L114 71.9Z" fill="#00341b" stroke="#00341b"></path><path d="M103 600L117 506.3L58 565.1Z" fill="#000000" stroke="#000000"></path><path d="M851 54.6L806 34.7L808 43.9Z" fill="#002a12" stroke="#002a12"></path><path d="M808 43.9L806 34.7L798 63.7Z" fill="#03482d" stroke="#03482d"></path><path d="M-30 384.6L0 409.9L38 343.1Z" fill="#002204" stroke="#002204"></path><path d="M0 134.4L0 184.1L43 130.6Z" fill="#002204" stroke="#002204"></path><path d="M826 600L833 537.1L815 543.1Z" fill="#0e674a" stroke="#0e674a"></path><path d="M815 543.1L833 537.1L793 495.4Z" fill="#03482d" stroke="#03482d"></path><path d="M900 332.7L900 286.9L847 313.1Z" fill="#0a5d40" stroke="#0a5d40"></path><path d="M900 332.7L847 313.1L861 340Z" fill="#065236" stroke="#065236"></path><path d="M900 440.6L827 398L811 436.7Z" fill="#127254" stroke="#127254"></path><path d="M58 565.1L117 506.3L97 491.3Z" fill="#002a12" stroke="#002a12"></path><path d="M103 600L90 602.3L106 603.1Z" fill="#003e24" stroke="#003e24"></path><path d="M106 603.1L0 612.3L407 656.1Z" fill="#003e24" stroke="#003e24"></path><path d="M900 366L900 332.7L861 340Z" fill="#001b00" stroke="#001b00"></path><path d="M870 201.3L885 171.1L779 165.4Z" fill="#001b00" stroke="#001b00"></path><path d="M900 200.4L885 171.1L870 201.3Z" fill="#000000" stroke="#000000"></path><path d="M0 496.4L58 565.1L97 491.3Z" fill="#127254" stroke="#127254"></path><path d="M900 286.9L900 237.1L850 264.9Z" fill="#0a5d40" stroke="#0a5d40"></path><path d="M890 397.6L900 366L861 340Z" fill="#127254" stroke="#127254"></path><path d="M900 237.1L900 226.3L852 228.3Z" fill="#002a12" stroke="#002a12"></path><path d="M0 409.9L-9 433.6L79 413.4Z" fill="#065236" stroke="#065236"></path><path d="M-30 384.6L-9 433.6L0 409.9Z" fill="#00341b" stroke="#00341b"></path><path d="M-30 384.6L38 343.1L0 320.7Z" fill="#0a5d40" stroke="#0a5d40"></path><path d="M-30 384.6L0 320.7L-48 206Z" fill="#001b00" stroke="#001b00"></path><path d="M0 320.7L0 264.3L-48 206Z" fill="#065236" stroke="#065236"></path><path d="M0 264.3L0 227L-48 206Z" fill="#000000" stroke="#000000"></path><path d="M0 108.7L0 134.4L38 106.7Z" fill="#0a5d40" stroke="#0a5d40"></path><path d="M38 106.7L0 134.4L43 130.6Z" fill="#002204" stroke="#002204"></path><path d="M-48 206L0 227L0 198.6Z" fill="#000000" stroke="#000000"></path><path d="M690 635.1L800 600L763 600Z" fill="#0e674a" stroke="#0e674a"></path><path d="M763 600L800 600L773 543.3Z" fill="#002a12" stroke="#002a12"></path><path d="M869 99.9L858 85.6L804 103.4Z" fill="#002a12" stroke="#002a12"></path><path d="M900 226.3L900 200.4L870 201.3Z" fill="#0a5d40" stroke="#0a5d40"></path><path d="M885 171.1L869 99.9L804 103.4Z" fill="#0e674a" stroke="#0e674a"></path><path d="M0 534.1L52 569.1L58 565.1Z" fill="#00341b" stroke="#00341b"></path><path d="M58 565.1L75 600L90 602.3Z" fill="#127254" stroke="#127254"></path><path d="M68 600L75 600L58 565.1Z" fill="#0e674a" stroke="#0e674a"></path><path d="M90 602.3L0 612.3L106 603.1Z" fill="#002a12" stroke="#002a12"></path><path d="M-9 433.6L0 476.6L79 413.4Z" fill="#001b00" stroke="#001b00"></path><path d="M900 127.6L869 99.9L885 171.1Z" fill="#000000" stroke="#000000"></path><path d="M-48 206L0 198.6L0 184.1Z" fill="#065236" stroke="#065236"></path><path d="M-9 433.6L0 496.4L0 476.6Z" fill="#002204" stroke="#002204"></path><path d="M52 569.1L68 600L58 565.1Z" fill="#001b00" stroke="#001b00"></path><path d="M75 600L68 600L90 602.3Z" fill="#0e674a" stroke="#0e674a"></path><path d="M0 600L68 600L52 569.1Z" fill="#000000" stroke="#000000"></path><path d="M0 0L0 108.7L38 106.7Z" fill="#0a5d40" stroke="#0a5d40"></path><path d="M0 134.4L-48 206L0 184.1Z" fill="#127254" stroke="#127254"></path><path d="M869 79.7L851 54.6L858 85.6Z" fill="#0a5d40" stroke="#0a5d40"></path><path d="M858 85.6L851 54.6L798 63.7Z" fill="#002204" stroke="#002204"></path><path d="M806 34.7L812 -15.1L754 0Z" fill="#002204" stroke="#002204"></path><path d="M-30 384.6L0 496.4L-9 433.6Z" fill="#00341b" stroke="#00341b"></path><path d="M0 476.6L0 496.4L97 491.3Z" fill="#001b00" stroke="#001b00"></path><path d="M811 436.7L793 495.4L875 523.6Z" fill="#0e674a" stroke="#0e674a"></path><path d="M900 461.1L900 440.6L811 436.7Z" fill="#001b00" stroke="#001b00"></path><path d="M890 397.6L931 424.3L900 366Z" fill="#003e24" stroke="#003e24"></path><path d="M900 110.9L869 79.7L869 99.9Z" fill="#127254" stroke="#127254"></path><path d="M869 99.9L869 79.7L858 85.6Z" fill="#0e674a" stroke="#0e674a"></path><path d="M842 0L812 -15.1L806 34.7Z" fill="#0a5d40" stroke="#0a5d40"></path><path d="M754 0L812 -15.1L729 0Z" fill="#065236" stroke="#065236"></path><path d="M302 -1.3L0 -21.1L224 0Z" fill="#065236" stroke="#065236"></path><path d="M842 0L806 34.7L851 54.6Z" fill="#003e24" stroke="#003e24"></path><path d="M875 523.6L793 495.4L833 537.1Z" fill="#0e674a" stroke="#0e674a"></path><path d="M800 600L826 600L815 543.1Z" fill="#065236" stroke="#065236"></path><path d="M690 635.1L826 600L800 600Z" fill="#001b00" stroke="#001b00"></path><path d="M900 584.3L875 523.6L833 537.1Z" fill="#000000" stroke="#000000"></path><path d="M900 200.4L900 127.6L885 171.1Z" fill="#003e24" stroke="#003e24"></path><path d="M857 0L842 0L851 54.6Z" fill="#00341b" stroke="#00341b"></path><path d="M0 108.7L-48 206L0 134.4Z" fill="#002a12" stroke="#002a12"></path><path d="M931 424.3L890 397.6L900 440.6Z" fill="#00341b" stroke="#00341b"></path><path d="M931 424.3L934 327.7L900 366Z" fill="#0e674a" stroke="#0e674a"></path><path d="M900 366L934 327.7L900 332.7Z" fill="#000000" stroke="#000000"></path><path d="M900 332.7L934 327.7L900 286.9Z" fill="#001b00" stroke="#001b00"></path><path d="M900 286.9L934 327.7L900 237.1Z" fill="#003e24" stroke="#003e24"></path><path d="M900 237.1L934 327.7L900 226.3Z" fill="#002204" stroke="#002204"></path><path d="M900 226.3L934 327.7L900 200.4Z" fill="#003e24" stroke="#003e24"></path><path d="M900 200.4L934 327.7L900 127.6Z" fill="#0e674a" stroke="#0e674a"></path><path d="M875 523.6L900 482.4L811 436.7Z" fill="#03482d" stroke="#03482d"></path><path d="M900 461.1L931 424.3L900 440.6Z" fill="#00341b" stroke="#00341b"></path><path d="M-1 539.4L0 534.1L0 496.4Z" fill="#0e674a" stroke="#0e674a"></path><path d="M0 496.4L0 534.1L58 565.1Z" fill="#065236" stroke="#065236"></path><path d="M934 327.7L900 110.9L900 127.6Z" fill="#127254" stroke="#127254"></path><path d="M900 127.6L900 110.9L869 99.9Z" fill="#00341b" stroke="#00341b"></path><path d="M-30 384.6L-1 539.4L0 496.4Z" fill="#003e24" stroke="#003e24"></path><path d="M0 534.1L-1 539.4L52 569.1Z" fill="#003e24" stroke="#003e24"></path><path d="M857 0L851 54.6L900 0Z" fill="#002a12" stroke="#002a12"></path><path d="M900 482.4L931 424.3L900 461.1Z" fill="#127254" stroke="#127254"></path><path d="M900 64.7L851 54.6L869 79.7Z" fill="#065236" stroke="#065236"></path><path d="M842 0L857 0L812 -15.1Z" fill="#065236" stroke="#065236"></path><path d="M934 327.7L900 64.7L900 110.9Z" fill="#000000" stroke="#000000"></path><path d="M900 110.9L900 64.7L869 79.7Z" fill="#00341b" stroke="#00341b"></path><path d="M101 0L0 0L38 106.7Z" fill="#001b00" stroke="#001b00"></path><path d="M0 108.7L0 0L-48 206Z" fill="#00341b" stroke="#00341b"></path><path d="M0 -21.1L0 0L101 0Z" fill="#03482d" stroke="#03482d"></path><path d="M-30 384.6L0 600L-1 539.4Z" fill="#0e674a" stroke="#0e674a"></path><path d="M-1 539.4L0 600L52 569.1Z" fill="#001b00" stroke="#001b00"></path><path d="M68 600L0 612.3L90 602.3Z" fill="#00341b" stroke="#00341b"></path><path d="M-30 384.6L0 612.3L0 600Z" fill="#065236" stroke="#065236"></path><path d="M0 600L0 612.3L68 600Z" fill="#0a5d40" stroke="#0a5d40"></path><path d="M875 523.6L900 584.3L900 482.4Z" fill="#001b00" stroke="#001b00"></path><path d="M900 482.4L900 584.3L931 424.3Z" fill="#0e674a" stroke="#0e674a"></path><path d="M826 600L900 584.3L833 537.1Z" fill="#001b00" stroke="#001b00"></path><path d="M900 600L900 584.3L826 600Z" fill="#002a12" stroke="#002a12"></path><path d="M812 -15.1L0 -21.1L498 0Z" fill="#0e674a" stroke="#0e674a"></path><path d="M0 0L0 -21.1L-48 206Z" fill="#065236" stroke="#065236"></path><path d="M934 327.7L900 0L900 64.7Z" fill="#065236" stroke="#065236"></path><path d="M900 64.7L900 0L851 54.6Z" fill="#002204" stroke="#002204"></path><path d="M857 0L900 0L812 -15.1Z" fill="#0e674a" stroke="#0e674a"></path><path d="M690 635.1L900 600L826 600Z" fill="#0e674a" stroke="#0e674a"></path><path d="M900 584.3L900 600L931 424.3Z" fill="#0e674a" stroke="#0e674a"></path></g></svg>