<svg id="visual" viewBox="0 0 900 600" width="900" height="600" xmlns="http://www.w3.org/2000/svg" xmlns:xlink="http://www.w3.org/1999/xlink" version="1.1"><g stroke-width="1" stroke-linejoin="bevel"><path d="M470 335.7L504 308.9L496 276.1Z" fill="#5b1a9b" stroke="#5b1a9b"></path><path d="M504 308.9L505 304.9L496 276.1Z" fill="#000000" stroke="#000000"></path><path d="M504 308.9L522 288.7L505 304.9Z" fill="#39007b" stroke="#39007b"></path><path d="M505 304.9L522 288.7L496 276.1Z" fill="#000000" stroke="#000000"></path><path d="M522 288.7L527 258L496 276.1Z" fill="#39007b" stroke="#39007b"></path><path d="M389 301.1L419 361.6L470 335.7Z" fill="#500e90" stroke="#500e90"></path><path d="M429 230.4L389 301.1L496 276.1Z" fill="#000000" stroke="#000000"></path><path d="M496 276.1L389 301.1L470 335.7Z" fill="#500e90" stroke="#500e90"></path><path d="M484 203.1L429 230.4L496 276.1Z" fill="#000000" stroke="#000000"></path><path d="M429 230.4L409 229.3L389 301.1Z" fill="#6624a5" stroke="#6624a5"></path><path d="M419 361.6L462 392.7L470 335.7Z" fill="#2e0071" stroke="#2e0071"></path><path d="M559 366.6L575 325.1L504 308.9Z" fill="#000000" stroke="#000000"></path><path d="M575 325.1L572 294.3L522 288.7Z" fill="#14005d" stroke="#14005d"></path><path d="M357 295.9L376 317L389 301.1Z" fill="#712eb0" stroke="#712eb0"></path><path d="M389 301.1L376 317L419 361.6Z" fill="#14005d" stroke="#14005d"></path><path d="M397 372L425 385.6L419 361.6Z" fill="#500e90" stroke="#500e90"></path><path d="M419 361.6L425 385.6L462 392.7Z" fill="#210067" stroke="#210067"></path><path d="M527 258L484 203.1L496 276.1Z" fill="#500e90" stroke="#500e90"></path><path d="M405 187.6L398 221.1L409 229.3Z" fill="#39007b" stroke="#39007b"></path><path d="M376 317L397 372L419 361.6Z" fill="#000000" stroke="#000000"></path><path d="M422 412.9L464 402.6L462 392.7Z" fill="#2e0071" stroke="#2e0071"></path><path d="M559 366.6L504 308.9L470 335.7Z" fill="#39007b" stroke="#39007b"></path><path d="M575 325.1L522 288.7L504 308.9Z" fill="#5b1a9b" stroke="#5b1a9b"></path><path d="M522 288.7L572 294.3L527 258Z" fill="#39007b" stroke="#39007b"></path><path d="M527 258L520 203.4L484 203.1Z" fill="#7c38bb" stroke="#7c38bb"></path><path d="M409 229.3L385 241L389 301.1Z" fill="#450086" stroke="#450086"></path><path d="M405 187.6L409 229.3L429 230.4Z" fill="#39007b" stroke="#39007b"></path><path d="M409 229.3L398 221.1L385 241Z" fill="#6624a5" stroke="#6624a5"></path><path d="M494 406.9L470 335.7L462 392.7Z" fill="#450086" stroke="#450086"></path><path d="M545 219.6L520 203.4L527 258Z" fill="#6624a5" stroke="#6624a5"></path><path d="M464 402.6L494 406.9L462 392.7Z" fill="#14005d" stroke="#14005d"></path><path d="M572 294.3L545 219.6L527 258Z" fill="#450086" stroke="#450086"></path><path d="M494 406.9L559 366.6L470 335.7Z" fill="#000000" stroke="#000000"></path><path d="M385 241L357 295.9L389 301.1Z" fill="#712eb0" stroke="#712eb0"></path><path d="M376 317L335 368.6L397 372Z" fill="#2e0071" stroke="#2e0071"></path><path d="M397 372L412 400.7L425 385.6Z" fill="#2e0071" stroke="#2e0071"></path><path d="M425 385.6L422 412.9L462 392.7Z" fill="#6624a5" stroke="#6624a5"></path><path d="M464 402.6L481 436.3L494 406.9Z" fill="#712eb0" stroke="#712eb0"></path><path d="M376 424.3L412 400.7L397 372Z" fill="#712eb0" stroke="#712eb0"></path><path d="M490 171.3L460 179.3L484 203.1Z" fill="#210067" stroke="#210067"></path><path d="M484 203.1L460 179.3L429 230.4Z" fill="#39007b" stroke="#39007b"></path><path d="M412 400.7L422 412.9L425 385.6Z" fill="#450086" stroke="#450086"></path><path d="M405 187.6L375 221.1L398 221.1Z" fill="#000000" stroke="#000000"></path><path d="M398 221.1L375 221.1L385 241Z" fill="#5b1a9b" stroke="#5b1a9b"></path><path d="M385 241L351 254L357 295.9Z" fill="#5b1a9b" stroke="#5b1a9b"></path><path d="M354 245.9L351 254L385 241Z" fill="#39007b" stroke="#39007b"></path><path d="M375 221.1L354 245.9L385 241Z" fill="#6624a5" stroke="#6624a5"></path><path d="M494 406.9L559 391.4L559 366.6Z" fill="#7c38bb" stroke="#7c38bb"></path><path d="M614 369L601 303.7L575 325.1Z" fill="#6624a5" stroke="#6624a5"></path><path d="M460 179.3L405 187.6L429 230.4Z" fill="#450086" stroke="#450086"></path><path d="M545 219.6L541 191.4L520 203.4Z" fill="#2e0071" stroke="#2e0071"></path><path d="M512 173.1L490 171.3L484 203.1Z" fill="#000000" stroke="#000000"></path><path d="M548 170.7L541 191.4L558 171.6Z" fill="#2e0071" stroke="#2e0071"></path><path d="M512 173.1L484 203.1L520 203.4Z" fill="#2e0071" stroke="#2e0071"></path><path d="M460 179.3L426 150.7L405 187.6Z" fill="#210067" stroke="#210067"></path><path d="M587 384.4L575 325.1L559 366.6Z" fill="#450086" stroke="#450086"></path><path d="M575 325.1L601 303.7L572 294.3Z" fill="#14005d" stroke="#14005d"></path><path d="M572 294.3L618 272.9L545 219.6Z" fill="#39007b" stroke="#39007b"></path><path d="M541 191.4L512 173.1L520 203.4Z" fill="#39007b" stroke="#39007b"></path><path d="M430 454.7L481 436.3L464 402.6Z" fill="#14005d" stroke="#14005d"></path><path d="M494 406.9L558 488.4L559 391.4Z" fill="#210067" stroke="#210067"></path><path d="M621 397.4L587 384.4L597 475.1Z" fill="#5b1a9b" stroke="#5b1a9b"></path><path d="M559 391.4L587 384.4L559 366.6Z" fill="#14005d" stroke="#14005d"></path><path d="M306 378.6L335 368.6L254 301Z" fill="#712eb0" stroke="#712eb0"></path><path d="M357 295.9L335 368.6L376 317Z" fill="#450086" stroke="#450086"></path><path d="M412 400.7L376 424.3L422 412.9Z" fill="#210067" stroke="#210067"></path><path d="M659 328L618 272.9L601 303.7Z" fill="#712eb0" stroke="#712eb0"></path><path d="M601 303.7L618 272.9L572 294.3Z" fill="#000000" stroke="#000000"></path><path d="M558 171.6L541 191.4L545 219.6Z" fill="#7c38bb" stroke="#7c38bb"></path><path d="M541 191.4L548 170.7L512 173.1Z" fill="#7c38bb" stroke="#7c38bb"></path><path d="M426 150.7L460 179.3L456 98.6Z" fill="#712eb0" stroke="#712eb0"></path><path d="M406 115.3L426 150.7L419 106.4Z" fill="#5b1a9b" stroke="#5b1a9b"></path><path d="M444 103.4L426 150.7L456 98.6Z" fill="#5b1a9b" stroke="#5b1a9b"></path><path d="M316 182.6L320 213.3L375 221.1Z" fill="#5b1a9b" stroke="#5b1a9b"></path><path d="M375 221.1L320 213.3L354 245.9Z" fill="#39007b" stroke="#39007b"></path><path d="M335 368.6L376 424.3L397 372Z" fill="#2e0071" stroke="#2e0071"></path><path d="M422 412.9L430 454.7L464 402.6Z" fill="#712eb0" stroke="#712eb0"></path><path d="M620 213.4L558 171.6L545 219.6Z" fill="#5b1a9b" stroke="#5b1a9b"></path><path d="M460 179.3L490 171.3L456 98.6Z" fill="#000000" stroke="#000000"></path><path d="M376 424.3L430 454.7L422 412.9Z" fill="#000000" stroke="#000000"></path><path d="M587 384.4L614 369L575 325.1Z" fill="#6624a5" stroke="#6624a5"></path><path d="M335 368.6L362 427.6L376 424.3Z" fill="#7c38bb" stroke="#7c38bb"></path><path d="M392 470.6L433 474.1L430 454.7Z" fill="#14005d" stroke="#14005d"></path><path d="M354 245.9L320 213.3L351 254Z" fill="#2e0071" stroke="#2e0071"></path><path d="M351 254L293 250.1L357 295.9Z" fill="#712eb0" stroke="#712eb0"></path><path d="M316 182.6L375 221.1L320 161.3Z" fill="#000000" stroke="#000000"></path><path d="M618 272.9L620 213.4L545 219.6Z" fill="#712eb0" stroke="#712eb0"></path><path d="M392 470.6L430 454.7L376 424.3Z" fill="#14005d" stroke="#14005d"></path><path d="M430 454.7L447 485.3L481 436.3Z" fill="#500e90" stroke="#500e90"></path><path d="M597 475.1L587 384.4L559 391.4Z" fill="#712eb0" stroke="#712eb0"></path><path d="M587 384.4L621 397.4L614 369Z" fill="#712eb0" stroke="#712eb0"></path><path d="M558 488.4L494 406.9L481 436.3Z" fill="#210067" stroke="#210067"></path><path d="M614 369L649 354.1L601 303.7Z" fill="#7c38bb" stroke="#7c38bb"></path><path d="M618 272.9L626 210.3L620 213.4Z" fill="#6624a5" stroke="#6624a5"></path><path d="M682 218.3L626 210.3L618 272.9Z" fill="#000000" stroke="#000000"></path><path d="M620 213.4L626 210.3L558 171.6Z" fill="#712eb0" stroke="#712eb0"></path><path d="M254 301L335 368.6L357 295.9Z" fill="#210067" stroke="#210067"></path><path d="M335 368.6L316 408.7L362 427.6Z" fill="#210067" stroke="#210067"></path><path d="M320 213.3L293 250.1L351 254Z" fill="#712eb0" stroke="#712eb0"></path><path d="M449 510.4L447 485.3L433 474.1Z" fill="#500e90" stroke="#500e90"></path><path d="M433 474.1L447 485.3L430 454.7Z" fill="#712eb0" stroke="#712eb0"></path><path d="M304 473.7L392 470.6L362 427.6Z" fill="#000000" stroke="#000000"></path><path d="M362 427.6L392 470.6L376 424.3Z" fill="#2e0071" stroke="#2e0071"></path><path d="M621 397.4L649 354.1L614 369Z" fill="#500e90" stroke="#500e90"></path><path d="M306 378.6L316 408.7L335 368.6Z" fill="#6624a5" stroke="#6624a5"></path><path d="M649 354.1L659 328L601 303.7Z" fill="#2e0071" stroke="#2e0071"></path><path d="M320 161.3L375 221.1L405 187.6Z" fill="#2e0071" stroke="#2e0071"></path><path d="M320 213.3L268 159.6L293 250.1Z" fill="#210067" stroke="#210067"></path><path d="M490 171.3L498 90.7L456 98.6Z" fill="#712eb0" stroke="#712eb0"></path><path d="M426 150.7L406 115.3L405 187.6Z" fill="#2e0071" stroke="#2e0071"></path><path d="M490 171.3L512 173.1L498 90.7Z" fill="#39007b" stroke="#39007b"></path><path d="M512 173.1L548 170.7L498 90.7Z" fill="#450086" stroke="#450086"></path><path d="M444 103.4L419 106.4L426 150.7Z" fill="#500e90" stroke="#500e90"></path><path d="M214 384.6L295 400.7L306 378.6Z" fill="#210067" stroke="#210067"></path><path d="M306 378.6L295 400.7L316 408.7Z" fill="#39007b" stroke="#39007b"></path><path d="M316 408.7L297 451.4L362 427.6Z" fill="#14005d" stroke="#14005d"></path><path d="M498 90.7L548 170.7L509 81.4Z" fill="#7c38bb" stroke="#7c38bb"></path><path d="M373 36.6L362 68.9L419 106.4Z" fill="#6624a5" stroke="#6624a5"></path><path d="M338 123.6L405 187.6L406 115.3Z" fill="#39007b" stroke="#39007b"></path><path d="M338 123.6L320 161.3L405 187.6Z" fill="#500e90" stroke="#500e90"></path><path d="M253 275.9L254 301L293 250.1Z" fill="#450086" stroke="#450086"></path><path d="M278 421.4L295 406.9L295 400.7Z" fill="#6624a5" stroke="#6624a5"></path><path d="M295 400.7L295 406.9L316 408.7Z" fill="#6624a5" stroke="#6624a5"></path><path d="M675 329.9L675 295.9L659 328Z" fill="#712eb0" stroke="#712eb0"></path><path d="M659 328L675 295.9L618 272.9Z" fill="#210067" stroke="#210067"></path><path d="M680 353.7L659 328L649 354.1Z" fill="#2e0071" stroke="#2e0071"></path><path d="M680 353.7L675 329.9L659 328Z" fill="#39007b" stroke="#39007b"></path><path d="M517 540.1L558 488.4L481 436.3Z" fill="#5b1a9b" stroke="#5b1a9b"></path><path d="M672 429.3L680 353.7L649 354.1Z" fill="#450086" stroke="#450086"></path><path d="M509 81.4L548 170.7L552 57.7Z" fill="#712eb0" stroke="#712eb0"></path><path d="M392 470.6L449 510.4L433 474.1Z" fill="#500e90" stroke="#500e90"></path><path d="M447 485.3L517 540.1L481 436.3Z" fill="#5b1a9b" stroke="#5b1a9b"></path><path d="M411 549.1L449 510.4L398 546.4Z" fill="#210067" stroke="#210067"></path><path d="M682 218.3L646 183.3L626 210.3Z" fill="#7c38bb" stroke="#7c38bb"></path><path d="M626 210.3L646 183.3L558 171.6Z" fill="#2e0071" stroke="#2e0071"></path><path d="M253 275.9L293 250.1L249 270.4Z" fill="#6624a5" stroke="#6624a5"></path><path d="M293 250.1L254 301L357 295.9Z" fill="#500e90" stroke="#500e90"></path><path d="M558 488.4L597 475.1L559 391.4Z" fill="#450086" stroke="#450086"></path><path d="M672 429.3L649 354.1L621 397.4Z" fill="#500e90" stroke="#500e90"></path><path d="M675 329.9L701 332L675 295.9Z" fill="#2e0071" stroke="#2e0071"></path><path d="M249 270.4L293 250.1L227 239Z" fill="#500e90" stroke="#500e90"></path><path d="M314 98.4L338 123.6L362 68.9Z" fill="#7c38bb" stroke="#7c38bb"></path><path d="M268 159.6L320 213.3L316 182.6Z" fill="#500e90" stroke="#500e90"></path><path d="M325 120.7L338 123.6L314 98.4Z" fill="#14005d" stroke="#14005d"></path><path d="M552 57.7L548 170.7L558 171.6Z" fill="#14005d" stroke="#14005d"></path><path d="M498 90.7L464 0L456 98.6Z" fill="#7c38bb" stroke="#7c38bb"></path><path d="M362 68.9L406 115.3L419 106.4Z" fill="#7c38bb" stroke="#7c38bb"></path><path d="M268 159.6L316 182.6L320 161.3Z" fill="#000000" stroke="#000000"></path><path d="M253 275.9L215 285.9L254 301Z" fill="#14005d" stroke="#14005d"></path><path d="M214 384.6L278 421.4L295 400.7Z" fill="#712eb0" stroke="#712eb0"></path><path d="M289 442.4L297 451.4L316 408.7Z" fill="#6624a5" stroke="#6624a5"></path><path d="M675 295.9L682 218.3L618 272.9Z" fill="#712eb0" stroke="#712eb0"></path><path d="M740 248.1L682 218.3L675 295.9Z" fill="#7c38bb" stroke="#7c38bb"></path><path d="M289 442.4L316 408.7L295 406.9Z" fill="#39007b" stroke="#39007b"></path><path d="M278 421.4L289 442.4L295 406.9Z" fill="#2e0071" stroke="#2e0071"></path><path d="M338 123.6L406 115.3L362 68.9Z" fill="#210067" stroke="#210067"></path><path d="M338 123.6L325 120.7L320 161.3Z" fill="#6624a5" stroke="#6624a5"></path><path d="M558 488.4L612 483.6L597 475.1Z" fill="#39007b" stroke="#39007b"></path><path d="M597 475.1L612 483.6L621 397.4Z" fill="#210067" stroke="#210067"></path><path d="M548 533.1L612 483.6L558 488.4Z" fill="#7c38bb" stroke="#7c38bb"></path><path d="M701 346.7L675 329.9L680 353.7Z" fill="#450086" stroke="#450086"></path><path d="M701 346.7L701 332L675 329.9Z" fill="#712eb0" stroke="#712eb0"></path><path d="M726 355.1L701 346.7L729 359.6Z" fill="#7c38bb" stroke="#7c38bb"></path><path d="M268 504.1L304 473.7L266 503.3Z" fill="#712eb0" stroke="#712eb0"></path><path d="M297 451.4L304 473.7L362 427.6Z" fill="#000000" stroke="#000000"></path><path d="M304 473.7L297 451.4L266 503.3Z" fill="#5b1a9b" stroke="#5b1a9b"></path><path d="M612 483.6L672 429.3L621 397.4Z" fill="#712eb0" stroke="#712eb0"></path><path d="M724 182.6L647 136.3L646 183.3Z" fill="#000000" stroke="#000000"></path><path d="M646 183.3L647 136.3L558 171.6Z" fill="#5b1a9b" stroke="#5b1a9b"></path><path d="M647 136.3L641 125.6L558 171.6Z" fill="#2e0071" stroke="#2e0071"></path><path d="M486 600L517 540.1L449 510.4Z" fill="#14005d" stroke="#14005d"></path><path d="M449 510.4L517 540.1L447 485.3Z" fill="#450086" stroke="#450086"></path><path d="M275 147.4L268 159.6L320 161.3Z" fill="#5b1a9b" stroke="#5b1a9b"></path><path d="M517 540.1L548 533.1L558 488.4Z" fill="#14005d" stroke="#14005d"></path><path d="M325 120.7L275 147.4L320 161.3Z" fill="#6624a5" stroke="#6624a5"></path><path d="M304 473.7L345 515.3L392 470.6Z" fill="#6624a5" stroke="#6624a5"></path><path d="M233 175.4L227 239L293 250.1Z" fill="#39007b" stroke="#39007b"></path><path d="M249 270.4L215 285.9L253 275.9Z" fill="#39007b" stroke="#39007b"></path><path d="M214 384.6L251 437.6L278 421.4Z" fill="#500e90" stroke="#500e90"></path><path d="M419 106.4L399 16.9L373 36.6Z" fill="#5b1a9b" stroke="#5b1a9b"></path><path d="M325 120.7L314 98.4L275 147.4Z" fill="#450086" stroke="#450086"></path><path d="M227 239L215 285.9L249 270.4Z" fill="#712eb0" stroke="#712eb0"></path><path d="M419 106.4L444 103.4L399 16.9Z" fill="#210067" stroke="#210067"></path><path d="M398 546.4L449 510.4L392 470.6Z" fill="#39007b" stroke="#39007b"></path><path d="M641 125.6L552 57.7L558 171.6Z" fill="#7c38bb" stroke="#7c38bb"></path><path d="M509 81.4L464 0L498 90.7Z" fill="#210067" stroke="#210067"></path><path d="M345 515.3L398 546.4L392 470.6Z" fill="#450086" stroke="#450086"></path><path d="M612 483.6L684 442.7L672 429.3Z" fill="#450086" stroke="#450086"></path><path d="M729 359.6L701 346.7L680 353.7Z" fill="#7c38bb" stroke="#7c38bb"></path><path d="M681 514.1L684 442.7L612 483.6Z" fill="#500e90" stroke="#500e90"></path><path d="M214 384.6L306 378.6L254 301Z" fill="#6624a5" stroke="#6624a5"></path><path d="M278 421.4L251 437.6L289 442.4Z" fill="#2e0071" stroke="#2e0071"></path><path d="M304 473.7L268 504.1L345 515.3Z" fill="#39007b" stroke="#39007b"></path><path d="M729 359.6L680 353.7L721 418.6Z" fill="#000000" stroke="#000000"></path><path d="M701 346.7L726 355.1L701 332Z" fill="#712eb0" stroke="#712eb0"></path><path d="M701 332L739 301.3L675 295.9Z" fill="#5b1a9b" stroke="#5b1a9b"></path><path d="M552 57.7L526 42.7L509 81.4Z" fill="#450086" stroke="#450086"></path><path d="M275 147.4L261 138.7L268 159.6Z" fill="#2e0071" stroke="#2e0071"></path><path d="M268 159.6L233 175.4L293 250.1Z" fill="#450086" stroke="#450086"></path><path d="M314 98.4L261 138.7L275 147.4Z" fill="#450086" stroke="#450086"></path><path d="M729 359.6L728 354.9L726 355.1Z" fill="#500e90" stroke="#500e90"></path><path d="M726 355.1L728 354.9L701 332Z" fill="#6624a5" stroke="#6624a5"></path><path d="M721 418.6L680 353.7L672 429.3Z" fill="#6624a5" stroke="#6624a5"></path><path d="M261 138.7L233 175.4L268 159.6Z" fill="#500e90" stroke="#500e90"></path><path d="M227 239L208 241.1L215 285.9Z" fill="#2e0071" stroke="#2e0071"></path><path d="M199 211.4L208 241.1L227 239Z" fill="#5b1a9b" stroke="#5b1a9b"></path><path d="M206 378.4L214 384.6L254 301Z" fill="#500e90" stroke="#500e90"></path><path d="M195 309L254 301L215 285.9Z" fill="#450086" stroke="#450086"></path><path d="M764 344.6L739 301.3L728 354.9Z" fill="#39007b" stroke="#39007b"></path><path d="M728 354.9L739 301.3L701 332Z" fill="#500e90" stroke="#500e90"></path><path d="M682 218.3L724 182.6L646 183.3Z" fill="#712eb0" stroke="#712eb0"></path><path d="M261 138.7L226 175.1L233 175.4Z" fill="#14005d" stroke="#14005d"></path><path d="M233 175.4L199 211.4L227 239Z" fill="#7c38bb" stroke="#7c38bb"></path><path d="M326 63.9L316 72.4L314 98.4Z" fill="#5b1a9b" stroke="#5b1a9b"></path><path d="M314 98.4L316 72.4L261 138.7Z" fill="#2e0071" stroke="#2e0071"></path><path d="M174 153.3L174 167.1L226 175.1Z" fill="#2e0071" stroke="#2e0071"></path><path d="M326 63.9L314 98.4L362 68.9Z" fill="#712eb0" stroke="#712eb0"></path><path d="M178 249.3L195 309L215 285.9Z" fill="#7c38bb" stroke="#7c38bb"></path><path d="M195 309L206 378.4L254 301Z" fill="#6624a5" stroke="#6624a5"></path><path d="M203 396.4L236 455.3L251 437.6Z" fill="#712eb0" stroke="#712eb0"></path><path d="M739 301.3L740 248.1L675 295.9Z" fill="#500e90" stroke="#500e90"></path><path d="M647 136.3L653 93.6L641 125.6Z" fill="#7c38bb" stroke="#7c38bb"></path><path d="M373 36.6L326 63.9L362 68.9Z" fill="#6624a5" stroke="#6624a5"></path><path d="M719 74.4L653 93.6L647 136.3Z" fill="#000000" stroke="#000000"></path><path d="M641 125.6L602 48.9L552 57.7Z" fill="#000000" stroke="#000000"></path><path d="M552 57.7L570 36.9L526 42.7Z" fill="#712eb0" stroke="#712eb0"></path><path d="M738 442.6L721 418.6L684 442.7Z" fill="#500e90" stroke="#500e90"></path><path d="M684 442.7L721 418.6L672 429.3Z" fill="#210067" stroke="#210067"></path><path d="M729 359.6L764 344.6L728 354.9Z" fill="#39007b" stroke="#39007b"></path><path d="M417 588.3L418 575.3L385 600Z" fill="#450086" stroke="#450086"></path><path d="M398 546.4L418 575.3L411 549.1Z" fill="#6624a5" stroke="#6624a5"></path><path d="M411 549.1L418 575.3L449 510.4Z" fill="#000000" stroke="#000000"></path><path d="M517 540.1L551 581.3L548 533.1Z" fill="#14005d" stroke="#14005d"></path><path d="M203 396.4L251 437.6L214 384.6Z" fill="#14005d" stroke="#14005d"></path><path d="M251 437.6L236 455.3L289 442.4Z" fill="#2e0071" stroke="#2e0071"></path><path d="M385 600L418 575.3L398 546.4Z" fill="#39007b" stroke="#39007b"></path><path d="M733 201.6L724 182.6L682 218.3Z" fill="#14005d" stroke="#14005d"></path><path d="M399 16.9L444 103.4L456 98.6Z" fill="#2e0071" stroke="#2e0071"></path><path d="M740 248.1L733 201.6L682 218.3Z" fill="#712eb0" stroke="#712eb0"></path><path d="M602 48.9L570 36.9L552 57.7Z" fill="#14005d" stroke="#14005d"></path><path d="M464 0L399 16.9L456 98.6Z" fill="#500e90" stroke="#500e90"></path><path d="M145 406.4L203 396.4L206 378.4Z" fill="#712eb0" stroke="#712eb0"></path><path d="M206 378.4L203 396.4L214 384.6Z" fill="#450086" stroke="#450086"></path><path d="M653 93.6L602 48.9L641 125.6Z" fill="#7c38bb" stroke="#7c38bb"></path><path d="M226 175.1L199 211.4L233 175.4Z" fill="#450086" stroke="#450086"></path><path d="M208 241.1L178 249.3L215 285.9Z" fill="#7c38bb" stroke="#7c38bb"></path><path d="M266 503.3L297 451.4L289 442.4Z" fill="#450086" stroke="#450086"></path><path d="M236 455.3L266 503.3L289 442.4Z" fill="#500e90" stroke="#500e90"></path><path d="M385 600L398 546.4L331 600Z" fill="#000000" stroke="#000000"></path><path d="M203 396.4L228 461.7L236 455.3Z" fill="#5b1a9b" stroke="#5b1a9b"></path><path d="M236 455.3L228 461.7L266 503.3Z" fill="#712eb0" stroke="#712eb0"></path><path d="M464 0L509 81.4L526 42.7Z" fill="#2e0071" stroke="#2e0071"></path><path d="M373 36.6L316 47.9L326 63.9Z" fill="#39007b" stroke="#39007b"></path><path d="M530 0L526 42.7L570 36.9Z" fill="#500e90" stroke="#500e90"></path><path d="M530 0L517 11.9L526 42.7Z" fill="#712eb0" stroke="#712eb0"></path><path d="M516 600L551 581.3L517 540.1Z" fill="#14005d" stroke="#14005d"></path><path d="M548 533.1L593 600L612 483.6Z" fill="#000000" stroke="#000000"></path><path d="M398 546.4L345 515.3L331 600Z" fill="#6624a5" stroke="#6624a5"></path><path d="M418 575.3L486 600L449 510.4Z" fill="#5b1a9b" stroke="#5b1a9b"></path><path d="M364 15.7L316 47.9L373 36.6Z" fill="#500e90" stroke="#500e90"></path><path d="M326 63.9L316 47.9L316 72.4Z" fill="#5b1a9b" stroke="#5b1a9b"></path><path d="M316 72.4L288 12.7L261 138.7Z" fill="#712eb0" stroke="#712eb0"></path><path d="M174 167.1L185 212.3L199 211.4Z" fill="#7c38bb" stroke="#7c38bb"></path><path d="M185 212.3L178 249.3L208 241.1Z" fill="#7c38bb" stroke="#7c38bb"></path><path d="M195 309L149 305.9L206 378.4Z" fill="#7c38bb" stroke="#7c38bb"></path><path d="M174 167.1L199 211.4L226 175.1Z" fill="#14005d" stroke="#14005d"></path><path d="M199 211.4L185 212.3L208 241.1Z" fill="#5b1a9b" stroke="#5b1a9b"></path><path d="M779 389.7L764 344.6L729 359.6Z" fill="#712eb0" stroke="#712eb0"></path><path d="M739 301.3L792 276L740 248.1Z" fill="#5b1a9b" stroke="#5b1a9b"></path><path d="M740 248.1L766 213.3L733 201.6Z" fill="#6624a5" stroke="#6624a5"></path><path d="M517 11.9L464 0L526 42.7Z" fill="#000000" stroke="#000000"></path><path d="M764 344.6L769 321L739 301.3Z" fill="#6624a5" stroke="#6624a5"></path><path d="M437 600L486 600L418 575.3Z" fill="#500e90" stroke="#500e90"></path><path d="M641 600L681 514.1L612 483.6Z" fill="#210067" stroke="#210067"></path><path d="M721 418.6L779 389.7L729 359.6Z" fill="#6624a5" stroke="#6624a5"></path><path d="M417 588.3L437 600L418 575.3Z" fill="#14005d" stroke="#14005d"></path><path d="M385 600L437 600L417 588.3Z" fill="#6624a5" stroke="#6624a5"></path><path d="M653 93.6L624 39.7L602 48.9Z" fill="#39007b" stroke="#39007b"></path><path d="M606 0L576 0L570 36.9Z" fill="#500e90" stroke="#500e90"></path><path d="M653 24.9L624 39.7L653 93.6Z" fill="#5b1a9b" stroke="#5b1a9b"></path><path d="M356 0L364 15.7L399 16.9Z" fill="#14005d" stroke="#14005d"></path><path d="M399 16.9L364 15.7L373 36.6Z" fill="#14005d" stroke="#14005d"></path><path d="M486 600L516 600L517 540.1Z" fill="#14005d" stroke="#14005d"></path><path d="M551 581.3L593 600L548 533.1Z" fill="#000000" stroke="#000000"></path><path d="M751 490.4L738 442.6L684 442.7Z" fill="#7c38bb" stroke="#7c38bb"></path><path d="M228 461.7L249 511.6L266 503.3Z" fill="#14005d" stroke="#14005d"></path><path d="M266 503.3L249 511.6L268 504.1Z" fill="#210067" stroke="#210067"></path><path d="M576 0L530 0L570 36.9Z" fill="#5b1a9b" stroke="#5b1a9b"></path><path d="M517 11.9L530 0L464 0Z" fill="#500e90" stroke="#500e90"></path><path d="M516 600L537 600L551 581.3Z" fill="#7c38bb" stroke="#7c38bb"></path><path d="M733 201.6L766 213.3L724 182.6Z" fill="#14005d" stroke="#14005d"></path><path d="M724 182.6L751 129.9L647 136.3Z" fill="#000000" stroke="#000000"></path><path d="M792 276L766 213.3L740 248.1Z" fill="#000000" stroke="#000000"></path><path d="M464 0L426 -6.3L399 16.9Z" fill="#450086" stroke="#450086"></path><path d="M418 -18.1L426 -6.3L464 0Z" fill="#2e0071" stroke="#2e0071"></path><path d="M331 600L345 515.3L301 600Z" fill="#7c38bb" stroke="#7c38bb"></path><path d="M211 535.1L245 521.3L249 511.6Z" fill="#450086" stroke="#450086"></path><path d="M249 511.6L245 521.3L268 504.1Z" fill="#500e90" stroke="#500e90"></path><path d="M211 535.1L249 511.6L228 461.7Z" fill="#000000" stroke="#000000"></path><path d="M606 0L570 36.9L602 48.9Z" fill="#14005d" stroke="#14005d"></path><path d="M530 0L418 -18.1L464 0Z" fill="#210067" stroke="#210067"></path><path d="M140 258.1L149 305.9L178 249.3Z" fill="#450086" stroke="#450086"></path><path d="M178 249.3L149 305.9L195 309Z" fill="#450086" stroke="#450086"></path><path d="M203 396.4L175 489.6L228 461.7Z" fill="#210067" stroke="#210067"></path><path d="M418 -18.1L356 0L399 16.9Z" fill="#500e90" stroke="#500e90"></path><path d="M364 15.7L326 0L316 47.9Z" fill="#14005d" stroke="#14005d"></path><path d="M303 -14.1L353 0L356 0Z" fill="#450086" stroke="#450086"></path><path d="M356 0L353 0L364 15.7Z" fill="#500e90" stroke="#500e90"></path><path d="M174 153.3L226 175.1L261 138.7Z" fill="#7c38bb" stroke="#7c38bb"></path><path d="M576 0L418 -18.1L530 0Z" fill="#14005d" stroke="#14005d"></path><path d="M426 -6.3L418 -18.1L399 16.9Z" fill="#6624a5" stroke="#6624a5"></path><path d="M738 442.6L779 389.7L721 418.6Z" fill="#712eb0" stroke="#712eb0"></path><path d="M764 344.6L806 355.9L769 321Z" fill="#6624a5" stroke="#6624a5"></path><path d="M769 321L792 276L739 301.3Z" fill="#6624a5" stroke="#6624a5"></path><path d="M806 355.9L792 276L769 321Z" fill="#14005d" stroke="#14005d"></path><path d="M174 153.3L261 138.7L159 124.4Z" fill="#450086" stroke="#450086"></path><path d="M185 212.3L140 258.1L178 249.3Z" fill="#712eb0" stroke="#712eb0"></path><path d="M537 600L593 600L551 581.3Z" fill="#7c38bb" stroke="#7c38bb"></path><path d="M800 126.7L751 129.9L766 213.3Z" fill="#14005d" stroke="#14005d"></path><path d="M766 213.3L751 129.9L724 182.6Z" fill="#712eb0" stroke="#712eb0"></path><path d="M624 39.7L606 0L602 48.9Z" fill="#000000" stroke="#000000"></path><path d="M613 0L606 0L624 39.7Z" fill="#5b1a9b" stroke="#5b1a9b"></path><path d="M576 0L779 -26.1L418 -18.1Z" fill="#6624a5" stroke="#6624a5"></path><path d="M288 12.7L316 72.4L316 47.9Z" fill="#712eb0" stroke="#712eb0"></path><path d="M140 169.7L140 258.1L185 212.3Z" fill="#450086" stroke="#450086"></path><path d="M301 600L345 515.3L268 504.1Z" fill="#210067" stroke="#210067"></path><path d="M719 74.4L653 24.9L653 93.6Z" fill="#210067" stroke="#210067"></path><path d="M129 263L140 258.1L115 262Z" fill="#5b1a9b" stroke="#5b1a9b"></path><path d="M303 -14.1L326 0L353 0Z" fill="#210067" stroke="#210067"></path><path d="M353 0L326 0L364 15.7Z" fill="#14005d" stroke="#14005d"></path><path d="M653 24.9L613 0L624 39.7Z" fill="#6624a5" stroke="#6624a5"></path><path d="M606 0L779 -26.1L576 0Z" fill="#000000" stroke="#000000"></path><path d="M738 442.6L789 404.4L779 389.7Z" fill="#712eb0" stroke="#712eb0"></path><path d="M779 389.7L806 355.9L764 344.6Z" fill="#712eb0" stroke="#712eb0"></path><path d="M774 460.3L789 404.4L738 442.6Z" fill="#000000" stroke="#000000"></path><path d="M751 129.9L719 74.4L647 136.3Z" fill="#7c38bb" stroke="#7c38bb"></path><path d="M307 0L288 12.7L316 47.9Z" fill="#39007b" stroke="#39007b"></path><path d="M681 514.1L751 490.4L684 442.7Z" fill="#000000" stroke="#000000"></path><path d="M727 538.3L751 490.4L681 514.1Z" fill="#14005d" stroke="#14005d"></path><path d="M326 0L307 0L316 47.9Z" fill="#712eb0" stroke="#712eb0"></path><path d="M303 -14.1L307 0L326 0Z" fill="#712eb0" stroke="#712eb0"></path><path d="M798 394L806 355.9L779 389.7Z" fill="#5b1a9b" stroke="#5b1a9b"></path><path d="M136 423.9L145 406.4L96 426.3Z" fill="#7c38bb" stroke="#7c38bb"></path><path d="M149 305.9L145 406.4L206 378.4Z" fill="#450086" stroke="#450086"></path><path d="M812 397.7L798 394L789 404.4Z" fill="#210067" stroke="#210067"></path><path d="M789 404.4L798 394L779 389.7Z" fill="#210067" stroke="#210067"></path><path d="M140 169.7L185 212.3L174 167.1Z" fill="#7c38bb" stroke="#7c38bb"></path><path d="M140 258.1L129 263L149 305.9Z" fill="#2e0071" stroke="#2e0071"></path><path d="M300 600L268 504.1L245 521.3Z" fill="#210067" stroke="#210067"></path><path d="M300 600L301 600L268 504.1Z" fill="#712eb0" stroke="#712eb0"></path><path d="M773 468.7L774 460.3L738 442.6Z" fill="#2e0071" stroke="#2e0071"></path><path d="M264 600L300 600L245 521.3Z" fill="#000000" stroke="#000000"></path><path d="M593 600L641 600L612 483.6Z" fill="#712eb0" stroke="#712eb0"></path><path d="M793 488.1L773 468.7L751 490.4Z" fill="#500e90" stroke="#500e90"></path><path d="M751 490.4L773 468.7L738 442.6Z" fill="#7c38bb" stroke="#7c38bb"></path><path d="M774 460.3L812 397.7L789 404.4Z" fill="#2e0071" stroke="#2e0071"></path><path d="M176 506.3L211 535.1L228 461.7Z" fill="#712eb0" stroke="#712eb0"></path><path d="M136 423.9L175 489.6L203 396.4Z" fill="#210067" stroke="#210067"></path><path d="M706 600L727 538.3L681 514.1Z" fill="#39007b" stroke="#39007b"></path><path d="M303 -14.1L288 12.7L307 0Z" fill="#210067" stroke="#210067"></path><path d="M303 -14.1L275 4.7L288 12.7Z" fill="#39007b" stroke="#39007b"></path><path d="M288 12.7L275 4.7L261 138.7Z" fill="#7c38bb" stroke="#7c38bb"></path><path d="M144 157.6L174 167.1L174 153.3Z" fill="#6624a5" stroke="#6624a5"></path><path d="M144 157.6L140 169.7L174 167.1Z" fill="#6624a5" stroke="#6624a5"></path><path d="M727 538.3L753 513.6L751 490.4Z" fill="#712eb0" stroke="#712eb0"></path><path d="M144 130.7L144 157.6L174 153.3Z" fill="#7c38bb" stroke="#7c38bb"></path><path d="M418 -18.1L303 -14.1L356 0Z" fill="#39007b" stroke="#39007b"></path><path d="M102 343.9L145 406.4L149 305.9Z" fill="#450086" stroke="#450086"></path><path d="M145 406.4L136 423.9L203 396.4Z" fill="#712eb0" stroke="#712eb0"></path><path d="M798 394L812 397.7L806 355.9Z" fill="#000000" stroke="#000000"></path><path d="M793 488.1L812 397.7L774 460.3Z" fill="#14005d" stroke="#14005d"></path><path d="M793 488.1L774 460.3L773 468.7Z" fill="#6624a5" stroke="#6624a5"></path><path d="M93 189.3L115 262L140 258.1Z" fill="#500e90" stroke="#500e90"></path><path d="M129 263L111 303.7L149 305.9Z" fill="#14005d" stroke="#14005d"></path><path d="M226 0L159 124.4L261 138.7Z" fill="#6624a5" stroke="#6624a5"></path><path d="M771 529.4L741 532.3L744 600Z" fill="#5b1a9b" stroke="#5b1a9b"></path><path d="M727 538.3L741 532.3L753 513.6Z" fill="#450086" stroke="#450086"></path><path d="M115 262L111 303.7L129 263Z" fill="#712eb0" stroke="#712eb0"></path><path d="M123 482.7L176 506.3L175 489.6Z" fill="#5b1a9b" stroke="#5b1a9b"></path><path d="M175 489.6L176 506.3L228 461.7Z" fill="#7c38bb" stroke="#7c38bb"></path><path d="M301 600L314 628.1L331 600Z" fill="#500e90" stroke="#500e90"></path><path d="M331 600L314 628.1L385 600Z" fill="#14005d" stroke="#14005d"></path><path d="M385 600L314 628.1L437 600Z" fill="#450086" stroke="#450086"></path><path d="M437 600L622 638.1L486 600Z" fill="#5b1a9b" stroke="#5b1a9b"></path><path d="M486 600L622 638.1L516 600Z" fill="#6624a5" stroke="#6624a5"></path><path d="M516 600L622 638.1L537 600Z" fill="#450086" stroke="#450086"></path><path d="M537 600L622 638.1L593 600Z" fill="#210067" stroke="#210067"></path><path d="M593 600L622 638.1L641 600Z" fill="#712eb0" stroke="#712eb0"></path><path d="M300 600L314 628.1L301 600Z" fill="#450086" stroke="#450086"></path><path d="M264 600L314 628.1L300 600Z" fill="#2e0071" stroke="#2e0071"></path><path d="M264 600L245 521.3L256 600Z" fill="#14005d" stroke="#14005d"></path><path d="M215 562.4L245 521.3L211 535.1Z" fill="#500e90" stroke="#500e90"></path><path d="M864 285.1L820 201.4L792 276Z" fill="#7c38bb" stroke="#7c38bb"></path><path d="M792 276L820 201.4L766 213.3Z" fill="#210067" stroke="#210067"></path><path d="M751 129.9L770 46.6L719 74.4Z" fill="#14005d" stroke="#14005d"></path><path d="M864 285.1L792 276L806 355.9Z" fill="#7c38bb" stroke="#7c38bb"></path><path d="M176 506.3L215 562.4L211 535.1Z" fill="#210067" stroke="#210067"></path><path d="M136 92.6L144 130.7L159 124.4Z" fill="#39007b" stroke="#39007b"></path><path d="M159 124.4L144 130.7L174 153.3Z" fill="#500e90" stroke="#500e90"></path><path d="M80 136.4L93 189.3L140 169.7Z" fill="#2e0071" stroke="#2e0071"></path><path d="M0 267.1L84 313L115 262Z" fill="#6624a5" stroke="#6624a5"></path><path d="M215 562.4L256 600L245 521.3Z" fill="#14005d" stroke="#14005d"></path><path d="M264 600L235 649.1L314 628.1Z" fill="#6624a5" stroke="#6624a5"></path><path d="M84 313L102 343.9L111 303.7Z" fill="#2e0071" stroke="#2e0071"></path><path d="M111 303.7L102 343.9L149 305.9Z" fill="#500e90" stroke="#500e90"></path><path d="M314 628.1L622 638.1L437 600Z" fill="#2e0071" stroke="#2e0071"></path><path d="M641 600L706 600L681 514.1Z" fill="#2e0071" stroke="#2e0071"></path><path d="M820 201.4L800 126.7L766 213.3Z" fill="#712eb0" stroke="#712eb0"></path><path d="M719 74.4L685 -5.1L653 24.9Z" fill="#6624a5" stroke="#6624a5"></path><path d="M742 13.9L685 -5.1L719 74.4Z" fill="#14005d" stroke="#14005d"></path><path d="M653 24.9L685 -5.1L613 0Z" fill="#500e90" stroke="#500e90"></path><path d="M613 0L685 -5.1L606 0Z" fill="#450086" stroke="#450086"></path><path d="M136 423.9L122 437.7L175 489.6Z" fill="#6624a5" stroke="#6624a5"></path><path d="M102 600L218 600L215 562.4Z" fill="#210067" stroke="#210067"></path><path d="M96 426.3L122 437.7L136 423.9Z" fill="#14005d" stroke="#14005d"></path><path d="M797 516.4L793 488.1L753 513.6Z" fill="#500e90" stroke="#500e90"></path><path d="M753 513.6L793 488.1L751 490.4Z" fill="#39007b" stroke="#39007b"></path><path d="M771 529.4L753 513.6L741 532.3Z" fill="#450086" stroke="#450086"></path><path d="M744 600L741 532.3L727 538.3Z" fill="#5b1a9b" stroke="#5b1a9b"></path><path d="M622 638.1L706 600L641 600Z" fill="#2e0071" stroke="#2e0071"></path><path d="M115 262L84 313L111 303.7Z" fill="#712eb0" stroke="#712eb0"></path><path d="M102 343.9L96 426.3L145 406.4Z" fill="#14005d" stroke="#14005d"></path><path d="M93 189.3L140 258.1L140 169.7Z" fill="#000000" stroke="#000000"></path><path d="M303 -14.1L226 0L275 4.7Z" fill="#500e90" stroke="#500e90"></path><path d="M275 4.7L226 0L261 138.7Z" fill="#6624a5" stroke="#6624a5"></path><path d="M102 600L215 562.4L176 506.3Z" fill="#712eb0" stroke="#712eb0"></path><path d="M215 562.4L218 600L256 600Z" fill="#000000" stroke="#000000"></path><path d="M256 600L235 649.1L264 600Z" fill="#14005d" stroke="#14005d"></path><path d="M96 426.3L123 482.7L122 437.7Z" fill="#39007b" stroke="#39007b"></path><path d="M122 437.7L123 482.7L175 489.6Z" fill="#500e90" stroke="#500e90"></path><path d="M80 136.4L144 157.6L144 130.7Z" fill="#39007b" stroke="#39007b"></path><path d="M80 136.4L140 169.7L144 157.6Z" fill="#210067" stroke="#210067"></path><path d="M157 16.9L136 92.6L159 124.4Z" fill="#210067" stroke="#210067"></path><path d="M813 559.1L797 516.4L771 529.4Z" fill="#000000" stroke="#000000"></path><path d="M771 529.4L797 516.4L753 513.6Z" fill="#6624a5" stroke="#6624a5"></path><path d="M862 481.1L880 419.4L812 397.7Z" fill="#000000" stroke="#000000"></path><path d="M800 126.7L770 46.6L751 129.9Z" fill="#39007b" stroke="#39007b"></path><path d="M67 364L96 426.3L102 343.9Z" fill="#712eb0" stroke="#712eb0"></path><path d="M900 353L864 285.1L806 355.9Z" fill="#000000" stroke="#000000"></path><path d="M820 201.4L857 179.4L800 126.7Z" fill="#450086" stroke="#450086"></path><path d="M800 126.7L815 32.7L770 46.6Z" fill="#5b1a9b" stroke="#5b1a9b"></path><path d="M888 258.1L864 285.1L928 266.9Z" fill="#450086" stroke="#450086"></path><path d="M770 46.6L742 13.9L719 74.4Z" fill="#712eb0" stroke="#712eb0"></path><path d="M900 229.3L857 179.4L820 201.4Z" fill="#14005d" stroke="#14005d"></path><path d="M622 638.1L744 600L706 600Z" fill="#000000" stroke="#000000"></path><path d="M706 600L744 600L727 538.3Z" fill="#712eb0" stroke="#712eb0"></path><path d="M0 345L67 364L84 313Z" fill="#39007b" stroke="#39007b"></path><path d="M84 313L67 364L102 343.9Z" fill="#5b1a9b" stroke="#5b1a9b"></path><path d="M900 229.3L862 178.7L857 179.4Z" fill="#712eb0" stroke="#712eb0"></path><path d="M857 179.4L839 118.7L800 126.7Z" fill="#6624a5" stroke="#6624a5"></path><path d="M885 141.4L839 118.7L857 179.4Z" fill="#2e0071" stroke="#2e0071"></path><path d="M770 46.6L788 0L742 13.9Z" fill="#5b1a9b" stroke="#5b1a9b"></path><path d="M223 646.1L235 649.1L218 600Z" fill="#712eb0" stroke="#712eb0"></path><path d="M218 600L235 649.1L256 600Z" fill="#14005d" stroke="#14005d"></path><path d="M314 628.1L235 649.1L622 638.1Z" fill="#39007b" stroke="#39007b"></path><path d="M900 353L806 355.9L900 382.6Z" fill="#7c38bb" stroke="#7c38bb"></path><path d="M864 285.1L888 258.1L820 201.4Z" fill="#2e0071" stroke="#2e0071"></path><path d="M226 0L157 16.9L159 124.4Z" fill="#7c38bb" stroke="#7c38bb"></path><path d="M136 92.6L80 136.4L144 130.7Z" fill="#450086" stroke="#450086"></path><path d="M86 30.6L80 136.4L136 92.6Z" fill="#712eb0" stroke="#712eb0"></path><path d="M93 189.3L0 267.1L115 262Z" fill="#7c38bb" stroke="#7c38bb"></path><path d="M226 0L169 0L157 16.9Z" fill="#000000" stroke="#000000"></path><path d="M303 -14.1L169 0L226 0Z" fill="#000000" stroke="#000000"></path><path d="M102 600L223 646.1L218 600Z" fill="#2e0071" stroke="#2e0071"></path><path d="M862 481.1L793 488.1L797 516.4Z" fill="#712eb0" stroke="#712eb0"></path><path d="M862 481.1L812 397.7L793 488.1Z" fill="#39007b" stroke="#39007b"></path><path d="M801 600L813 559.1L771 529.4Z" fill="#6624a5" stroke="#6624a5"></path><path d="M813 559.1L862 481.1L797 516.4Z" fill="#7c38bb" stroke="#7c38bb"></path><path d="M900 382.6L812 397.7L880 419.4Z" fill="#210067" stroke="#210067"></path><path d="M900 382.6L806 355.9L812 397.7Z" fill="#2e0071" stroke="#2e0071"></path><path d="M905 241L900 241.1L888 258.1Z" fill="#210067" stroke="#210067"></path><path d="M888 258.1L900 229.3L820 201.4Z" fill="#210067" stroke="#210067"></path><path d="M862 178.7L885 141.4L857 179.4Z" fill="#450086" stroke="#450086"></path><path d="M900 241.1L900 240.4L888 258.1Z" fill="#500e90" stroke="#500e90"></path><path d="M900 240.4L900 229.3L888 258.1Z" fill="#000000" stroke="#000000"></path><path d="M900 68.9L815 32.7L839 118.7Z" fill="#7c38bb" stroke="#7c38bb"></path><path d="M839 118.7L815 32.7L800 126.7Z" fill="#500e90" stroke="#500e90"></path><path d="M742 13.9L779 -26.1L685 -5.1Z" fill="#712eb0" stroke="#712eb0"></path><path d="M0 -51.1L151 0L169 0Z" fill="#6624a5" stroke="#6624a5"></path><path d="M169 0L151 0L157 16.9Z" fill="#000000" stroke="#000000"></path><path d="M157 16.9L86 30.6L136 92.6Z" fill="#5b1a9b" stroke="#5b1a9b"></path><path d="M815 32.7L788 0L770 46.6Z" fill="#2e0071" stroke="#2e0071"></path><path d="M900 386.4L900 382.6L880 419.4Z" fill="#712eb0" stroke="#712eb0"></path><path d="M900 416.7L900 386.4L880 419.4Z" fill="#5b1a9b" stroke="#5b1a9b"></path><path d="M900 240.4L905 241L900 229.3Z" fill="#7c38bb" stroke="#7c38bb"></path><path d="M900 241.1L905 241L900 240.4Z" fill="#450086" stroke="#450086"></path><path d="M928 266.9L905 241L888 258.1Z" fill="#712eb0" stroke="#712eb0"></path><path d="M928 266.9L864 285.1L900 353Z" fill="#000000" stroke="#000000"></path><path d="M928 266.9L900 353L900 382.6Z" fill="#6624a5" stroke="#6624a5"></path><path d="M902 139.6L885 141.4L862 178.7Z" fill="#5b1a9b" stroke="#5b1a9b"></path><path d="M902 139.6L862 178.7L936 174.6Z" fill="#6624a5" stroke="#6624a5"></path><path d="M900 435.9L900 416.7L880 419.4Z" fill="#450086" stroke="#450086"></path><path d="M900 386.4L928 266.9L900 382.6Z" fill="#14005d" stroke="#14005d"></path><path d="M817 605.3L801 600L744 600Z" fill="#5b1a9b" stroke="#5b1a9b"></path><path d="M744 600L801 600L771 529.4Z" fill="#14005d" stroke="#14005d"></path><path d="M900 496.1L900 476.3L862 481.1Z" fill="#39007b" stroke="#39007b"></path><path d="M862 481.1L900 435.9L880 419.4Z" fill="#000000" stroke="#000000"></path><path d="M815 0L779 -26.1L788 0Z" fill="#210067" stroke="#210067"></path><path d="M788 0L779 -26.1L742 13.9Z" fill="#210067" stroke="#210067"></path><path d="M685 -5.1L779 -26.1L606 0Z" fill="#2e0071" stroke="#2e0071"></path><path d="M815 0L788 0L815 32.7Z" fill="#7c38bb" stroke="#7c38bb"></path><path d="M130 0L131 1.9L151 0Z" fill="#2e0071" stroke="#2e0071"></path><path d="M151 0L131 1.9L157 16.9Z" fill="#000000" stroke="#000000"></path><path d="M900 476.3L900 435.9L862 481.1Z" fill="#210067" stroke="#210067"></path><path d="M900 416.7L928 266.9L900 386.4Z" fill="#14005d" stroke="#14005d"></path><path d="M0 -51.1L130 0L151 0Z" fill="#39007b" stroke="#39007b"></path><path d="M131 1.9L86 30.6L157 16.9Z" fill="#500e90" stroke="#500e90"></path><path d="M96 426.3L50 471.6L123 482.7Z" fill="#7c38bb" stroke="#7c38bb"></path><path d="M123 482.7L71 530.3L176 506.3Z" fill="#000000" stroke="#000000"></path><path d="M0 412.9L50 471.6L96 426.3Z" fill="#000000" stroke="#000000"></path><path d="M0 412.9L96 426.3L67 364Z" fill="#14005d" stroke="#14005d"></path><path d="M893 0L815 0L815 32.7Z" fill="#6624a5" stroke="#6624a5"></path><path d="M900 435.9L928 266.9L900 416.7Z" fill="#500e90" stroke="#500e90"></path><path d="M905 241L936 174.6L900 229.3Z" fill="#450086" stroke="#450086"></path><path d="M50 471.6L71 530.3L123 482.7Z" fill="#000000" stroke="#000000"></path><path d="M936 174.6L862 178.7L900 229.3Z" fill="#000000" stroke="#000000"></path><path d="M885 141.4L900 116.6L839 118.7Z" fill="#39007b" stroke="#39007b"></path><path d="M622 638.1L817 605.3L744 600Z" fill="#14005d" stroke="#14005d"></path><path d="M801 600L817 605.3L813 559.1Z" fill="#450086" stroke="#450086"></path><path d="M900 496.1L862 481.1L813 559.1Z" fill="#712eb0" stroke="#712eb0"></path><path d="M900 435.9L900 476.3L928 266.9Z" fill="#500e90" stroke="#500e90"></path><path d="M0 -51.1L113 0L130 0Z" fill="#500e90" stroke="#500e90"></path><path d="M130 0L113 0L131 1.9Z" fill="#5b1a9b" stroke="#5b1a9b"></path><path d="M0 157.6L21 169.3L0 126.4Z" fill="#6624a5" stroke="#6624a5"></path><path d="M80 136.4L21 169.3L93 189.3Z" fill="#450086" stroke="#450086"></path><path d="M902 84.9L900 116.6L941 114.3Z" fill="#5b1a9b" stroke="#5b1a9b"></path><path d="M902 139.6L900 116.6L885 141.4Z" fill="#000000" stroke="#000000"></path><path d="M113 0L86 30.6L131 1.9Z" fill="#712eb0" stroke="#712eb0"></path><path d="M-6 204.1L0 267.1L93 189.3Z" fill="#2e0071" stroke="#2e0071"></path><path d="M-11 302.9L0 345L84 313Z" fill="#6624a5" stroke="#6624a5"></path><path d="M0 524.6L48 562.1L71 530.3Z" fill="#712eb0" stroke="#712eb0"></path><path d="M900 600L900 496.1L813 559.1Z" fill="#39007b" stroke="#39007b"></path><path d="M900 476.3L900 496.1L928 266.9Z" fill="#712eb0" stroke="#712eb0"></path><path d="M71 530.3L102 600L176 506.3Z" fill="#14005d" stroke="#14005d"></path><path d="M0 345L0 369.7L67 364Z" fill="#39007b" stroke="#39007b"></path><path d="M817 605.3L839 600L813 559.1Z" fill="#6624a5" stroke="#6624a5"></path><path d="M0 267.1L-11 302.9L84 313Z" fill="#6624a5" stroke="#6624a5"></path><path d="M0 345L-12 353.1L0 369.7Z" fill="#210067" stroke="#210067"></path><path d="M-30 188.6L-11 302.9L0 267.1Z" fill="#210067" stroke="#210067"></path><path d="M-12 353.1L0 412.9L0 369.7Z" fill="#500e90" stroke="#500e90"></path><path d="M0 369.7L0 412.9L67 364Z" fill="#7c38bb" stroke="#7c38bb"></path><path d="M48 562.1L85 605.1L102 600Z" fill="#39007b" stroke="#39007b"></path><path d="M941 114.3L900 116.6L902 139.6Z" fill="#6624a5" stroke="#6624a5"></path><path d="M900 116.6L902 84.9L839 118.7Z" fill="#450086" stroke="#450086"></path><path d="M928 266.9L936 174.6L905 241Z" fill="#6624a5" stroke="#6624a5"></path><path d="M0 178.3L0 181.7L21 169.3Z" fill="#39007b" stroke="#39007b"></path><path d="M21 169.3L-6 204.1L93 189.3Z" fill="#2e0071" stroke="#2e0071"></path><path d="M-11 302.9L-12 353.1L0 345Z" fill="#2e0071" stroke="#2e0071"></path><path d="M0 157.6L0 178.3L21 169.3Z" fill="#500e90" stroke="#500e90"></path><path d="M0 181.7L-6 204.1L21 169.3Z" fill="#14005d" stroke="#14005d"></path><path d="M-30 188.6L-6 204.1L0 181.7Z" fill="#000000" stroke="#000000"></path><path d="M900 38.7L900 68.9L953 0Z" fill="#7c38bb" stroke="#7c38bb"></path><path d="M902 84.9L900 68.9L839 118.7Z" fill="#2e0071" stroke="#2e0071"></path><path d="M0 126.4L21 169.3L80 136.4Z" fill="#7c38bb" stroke="#7c38bb"></path><path d="M0 178.3L-30 188.6L0 181.7Z" fill="#450086" stroke="#450086"></path><path d="M48 562.1L102 600L71 530.3Z" fill="#500e90" stroke="#500e90"></path><path d="M102 600L60 619.1L223 646.1Z" fill="#6624a5" stroke="#6624a5"></path><path d="M113 0L62 23.9L86 30.6Z" fill="#712eb0" stroke="#712eb0"></path><path d="M86 30.6L62 23.9L80 136.4Z" fill="#6624a5" stroke="#6624a5"></path><path d="M839 600L857 606.1L813 559.1Z" fill="#210067" stroke="#210067"></path><path d="M817 605.3L857 606.1L839 600Z" fill="#6624a5" stroke="#6624a5"></path><path d="M878 609.3L857 606.1L817 605.3Z" fill="#5b1a9b" stroke="#5b1a9b"></path><path d="M0 517.3L71 530.3L50 471.6Z" fill="#14005d" stroke="#14005d"></path><path d="M62 23.9L0 126.4L80 136.4Z" fill="#712eb0" stroke="#712eb0"></path><path d="M0 157.6L-30 188.6L0 178.3Z" fill="#500e90" stroke="#500e90"></path><path d="M941 114.3L900 68.9L902 84.9Z" fill="#7c38bb" stroke="#7c38bb"></path><path d="M900 68.9L900 38.7L815 32.7Z" fill="#5b1a9b" stroke="#5b1a9b"></path><path d="M815 0L893 0L779 -26.1Z" fill="#210067" stroke="#210067"></path><path d="M0 412.9L0 484.1L50 471.6Z" fill="#000000" stroke="#000000"></path><path d="M-12 353.1L0 484.1L0 412.9Z" fill="#000000" stroke="#000000"></path><path d="M936 174.6L941 114.3L902 139.6Z" fill="#6624a5" stroke="#6624a5"></path><path d="M60 619.1L60 600L0 600Z" fill="#5b1a9b" stroke="#5b1a9b"></path><path d="M48 562.1L60 600L85 605.1Z" fill="#000000" stroke="#000000"></path><path d="M85 605.1L60 619.1L102 600Z" fill="#5b1a9b" stroke="#5b1a9b"></path><path d="M-8 535.4L0 498.4L0 484.1Z" fill="#2e0071" stroke="#2e0071"></path><path d="M0 484.1L0 498.4L50 471.6Z" fill="#7c38bb" stroke="#7c38bb"></path><path d="M-33 103.9L-30 188.6L0 157.6Z" fill="#712eb0" stroke="#712eb0"></path><path d="M-6 204.1L-30 188.6L0 267.1Z" fill="#000000" stroke="#000000"></path><path d="M-11 302.9L-30 188.6L-12 353.1Z" fill="#39007b" stroke="#39007b"></path><path d="M-8 535.4L0 517.3L0 498.4Z" fill="#712eb0" stroke="#712eb0"></path><path d="M622 638.1L878 609.3L817 605.3Z" fill="#450086" stroke="#450086"></path><path d="M857 606.1L900 600L813 559.1Z" fill="#39007b" stroke="#39007b"></path><path d="M0 524.6L0 517.3L-8 535.4Z" fill="#7c38bb" stroke="#7c38bb"></path><path d="M0 498.4L0 517.3L50 471.6Z" fill="#712eb0" stroke="#712eb0"></path><path d="M900 0L893 0L900 38.7Z" fill="#5b1a9b" stroke="#5b1a9b"></path><path d="M900 38.7L893 0L815 32.7Z" fill="#2e0071" stroke="#2e0071"></path><path d="M0 600L60 600L48 562.1Z" fill="#7c38bb" stroke="#7c38bb"></path><path d="M60 600L60 619.1L85 605.1Z" fill="#2e0071" stroke="#2e0071"></path><path d="M223 646.1L60 619.1L235 649.1Z" fill="#7c38bb" stroke="#7c38bb"></path><path d="M-8 535.4L0 484.1L-12 353.1Z" fill="#712eb0" stroke="#712eb0"></path><path d="M0 517.3L0 524.6L71 530.3Z" fill="#210067" stroke="#210067"></path><path d="M953 0L900 0L900 38.7Z" fill="#450086" stroke="#450086"></path><path d="M893 0L900 0L779 -26.1Z" fill="#000000" stroke="#000000"></path><path d="M878 609.3L900 600L857 606.1Z" fill="#14005d" stroke="#14005d"></path><path d="M900 496.1L900 600L928 266.9Z" fill="#2e0071" stroke="#2e0071"></path><path d="M928 266.9L953 0L936 174.6Z" fill="#7c38bb" stroke="#7c38bb"></path><path d="M-30 188.6L-8 535.4L-12 353.1Z" fill="#5b1a9b" stroke="#5b1a9b"></path><path d="M0 524.6L-8 535.4L48 562.1Z" fill="#7c38bb" stroke="#7c38bb"></path><path d="M62 23.9L-33 103.9L0 126.4Z" fill="#5b1a9b" stroke="#5b1a9b"></path><path d="M0 126.4L-33 103.9L0 157.6Z" fill="#5b1a9b" stroke="#5b1a9b"></path><path d="M0 -51.1L0 0L62 23.9Z" fill="#6624a5" stroke="#6624a5"></path><path d="M62 23.9L0 0L-33 103.9Z" fill="#450086" stroke="#450086"></path><path d="M-21 -1.3L0 0L0 -51.1Z" fill="#39007b" stroke="#39007b"></path><path d="M-8 535.4L0 600L48 562.1Z" fill="#6624a5" stroke="#6624a5"></path><path d="M936 174.6L953 0L941 114.3Z" fill="#5b1a9b" stroke="#5b1a9b"></path><path d="M941 114.3L953 0L900 68.9Z" fill="#6624a5" stroke="#6624a5"></path><path d="M900 0L953 0L779 -26.1Z" fill="#210067" stroke="#210067"></path><path d="M900 600L953 0L928 266.9Z" fill="#210067" stroke="#210067"></path><path d="M0 -51.1L62 23.9L113 0Z" fill="#2e0071" stroke="#2e0071"></path><path d="M0 0L-21 -1.3L-33 103.9Z" fill="#39007b" stroke="#39007b"></path><path d="M303 -14.1L0 -51.1L169 0Z" fill="#5b1a9b" stroke="#5b1a9b"></path><path d="M418 -18.1L0 -51.1L303 -14.1Z" fill="#7c38bb" stroke="#7c38bb"></path><path d="M779 -26.1L0 -51.1L418 -18.1Z" fill="#39007b" stroke="#39007b"></path></g></svg>