<svg id="visual" viewBox="0 0 900 600" width="900" height="600" xmlns="http://www.w3.org/2000/svg" xmlns:xlink="http://www.w3.org/1999/xlink" version="1.1"><g stroke-width="1" stroke-linejoin="bevel"><path d="M424 306.1L488 251L410 279Z" fill="#b54618" stroke="#b54618"></path><path d="M520 288.7L496 250.9L488 251Z" fill="#dc6731" stroke="#dc6731"></path><path d="M496 250.9L482 234.3L488 251Z" fill="#490000" stroke="#490000"></path><path d="M488 251L482 234.3L410 279Z" fill="#000000" stroke="#000000"></path><path d="M424 306.1L520 288.7L488 251Z" fill="#f0783d" stroke="#f0783d"></path><path d="M482 234.3L429 206.4L410 279Z" fill="#dc6731" stroke="#dc6731"></path><path d="M483 356.9L532 303.3L520 288.7Z" fill="#590000" stroke="#590000"></path><path d="M550 235.3L527 215L496 250.9Z" fill="#b54618" stroke="#b54618"></path><path d="M429 206.4L402 202.6L410 279Z" fill="#7b1100" stroke="#7b1100"></path><path d="M361 239.4L365 265.1L410 279Z" fill="#8e2500" stroke="#8e2500"></path><path d="M410 279L370 359L424 306.1Z" fill="#7b1100" stroke="#7b1100"></path><path d="M426 369L483 356.9L424 306.1Z" fill="#490000" stroke="#490000"></path><path d="M424 306.1L483 356.9L520 288.7Z" fill="#c85725" stroke="#c85725"></path><path d="M548 266.1L496 250.9L520 288.7Z" fill="#a1360c" stroke="#a1360c"></path><path d="M496 250.9L527 215L482 234.3Z" fill="#7b1100" stroke="#7b1100"></path><path d="M482 234.3L436 169.3L429 206.4Z" fill="#a1360c" stroke="#a1360c"></path><path d="M429 206.4L436 169.3L402 202.6Z" fill="#690000" stroke="#690000"></path><path d="M532 303.3L548 266.1L520 288.7Z" fill="#000000" stroke="#000000"></path><path d="M402 202.6L361 239.4L410 279Z" fill="#a1360c" stroke="#a1360c"></path><path d="M370 359L426 369L424 306.1Z" fill="#b54618" stroke="#b54618"></path><path d="M548 266.1L550 235.3L496 250.9Z" fill="#690000" stroke="#690000"></path><path d="M361 239.4L349 252.4L365 265.1Z" fill="#490000" stroke="#490000"></path><path d="M365 265.1L370 359L410 279Z" fill="#c85725" stroke="#c85725"></path><path d="M527 215L436 169.3L482 234.3Z" fill="#590000" stroke="#590000"></path><path d="M402 202.6L383 181.6L361 239.4Z" fill="#b54618" stroke="#b54618"></path><path d="M575 326.1L556 299.7L532 303.3Z" fill="#8e2500" stroke="#8e2500"></path><path d="M532 303.3L556 299.7L548 266.1Z" fill="#b54618" stroke="#b54618"></path><path d="M548 266.1L590 236.3L550 235.3Z" fill="#dc6731" stroke="#dc6731"></path><path d="M332 229L342 257.3L349 252.4Z" fill="#590000" stroke="#590000"></path><path d="M349 252.4L342 257.3L365 265.1Z" fill="#f0783d" stroke="#f0783d"></path><path d="M426 369L451 390L483 356.9Z" fill="#b54618" stroke="#b54618"></path><path d="M578 337.1L575 326.1L532 303.3Z" fill="#c85725" stroke="#c85725"></path><path d="M389 170.7L383 181.6L402 202.6Z" fill="#7b1100" stroke="#7b1100"></path><path d="M361 239.4L332 229L349 252.4Z" fill="#a1360c" stroke="#a1360c"></path><path d="M326 285.9L370 359L365 265.1Z" fill="#b54618" stroke="#b54618"></path><path d="M426 369L392 376.9L451 390Z" fill="#590000" stroke="#590000"></path><path d="M370 359L392 376.9L426 369Z" fill="#490000" stroke="#490000"></path><path d="M436 169.3L389 170.7L402 202.6Z" fill="#8e2500" stroke="#8e2500"></path><path d="M294 250.1L326 285.9L342 257.3Z" fill="#8e2500" stroke="#8e2500"></path><path d="M342 257.3L326 285.9L365 265.1Z" fill="#690000" stroke="#690000"></path><path d="M302 189.4L332 229L383 181.6Z" fill="#c85725" stroke="#c85725"></path><path d="M383 181.6L332 229L361 239.4Z" fill="#7b1100" stroke="#7b1100"></path><path d="M578 337.1L532 303.3L483 356.9Z" fill="#690000" stroke="#690000"></path><path d="M598 302.9L590 236.3L548 266.1Z" fill="#590000" stroke="#590000"></path><path d="M564 396.9L578 337.1L483 356.9Z" fill="#590000" stroke="#590000"></path><path d="M598 302.9L556 299.7L575 326.1Z" fill="#000000" stroke="#000000"></path><path d="M598 302.9L548 266.1L556 299.7Z" fill="#000000" stroke="#000000"></path><path d="M550 235.3L593 154.6L527 215Z" fill="#8e2500" stroke="#8e2500"></path><path d="M527 215L497 127.6L436 169.3Z" fill="#8e2500" stroke="#8e2500"></path><path d="M294 250.1L309 306.7L326 285.9Z" fill="#a1360c" stroke="#a1360c"></path><path d="M326 285.9L309 306.7L370 359Z" fill="#490000" stroke="#490000"></path><path d="M578 337.1L598 302.9L575 326.1Z" fill="#b54618" stroke="#b54618"></path><path d="M553 135.3L497 127.6L527 215Z" fill="#690000" stroke="#690000"></path><path d="M404 84.7L365 116.9L389 170.7Z" fill="#b54618" stroke="#b54618"></path><path d="M445 430.6L506 419.6L451 390Z" fill="#8e2500" stroke="#8e2500"></path><path d="M451 390L506 419.6L483 356.9Z" fill="#000000" stroke="#000000"></path><path d="M440 444.4L445 430.6L401 463.1Z" fill="#490000" stroke="#490000"></path><path d="M392 376.9L445 430.6L451 390Z" fill="#8e2500" stroke="#8e2500"></path><path d="M445 430.6L392 376.9L401 463.1Z" fill="#a1360c" stroke="#a1360c"></path><path d="M302 189.4L294 250.1L332 229Z" fill="#490000" stroke="#490000"></path><path d="M332 229L294 250.1L342 257.3Z" fill="#8e2500" stroke="#8e2500"></path><path d="M506 419.6L564 396.9L483 356.9Z" fill="#000000" stroke="#000000"></path><path d="M633 344.1L620 293.3L598 302.9Z" fill="#b54618" stroke="#b54618"></path><path d="M633 344.1L598 302.9L578 337.1Z" fill="#c85725" stroke="#c85725"></path><path d="M598 302.9L620 293.3L590 236.3Z" fill="#590000" stroke="#590000"></path><path d="M357 437.6L392 376.9L370 359Z" fill="#c85725" stroke="#c85725"></path><path d="M445 430.6L440 444.4L506 419.6Z" fill="#dc6731" stroke="#dc6731"></path><path d="M593 154.6L550 235.3L590 236.3Z" fill="#b54618" stroke="#b54618"></path><path d="M593 154.6L553 135.3L527 215Z" fill="#490000" stroke="#490000"></path><path d="M321 153.3L383 181.6L389 170.7Z" fill="#dc6731" stroke="#dc6731"></path><path d="M306 171.1L302 189.4L383 181.6Z" fill="#690000" stroke="#690000"></path><path d="M506 419.6L540 427.3L564 396.9Z" fill="#590000" stroke="#590000"></path><path d="M539 435.4L540 427.3L506 419.6Z" fill="#7b1100" stroke="#7b1100"></path><path d="M365 116.9L321 153.3L389 170.7Z" fill="#b54618" stroke="#b54618"></path><path d="M294 250.1L276 303L309 306.7Z" fill="#490000" stroke="#490000"></path><path d="M335 445.3L357 437.6L370 359Z" fill="#000000" stroke="#000000"></path><path d="M236 256.9L276 303L294 250.1Z" fill="#b54618" stroke="#b54618"></path><path d="M321 153.3L306 171.1L383 181.6Z" fill="#c85725" stroke="#c85725"></path><path d="M302 189.4L253 193.6L294 250.1Z" fill="#490000" stroke="#490000"></path><path d="M641 252.1L623 219.6L590 236.3Z" fill="#b54618" stroke="#b54618"></path><path d="M404 84.7L389 170.7L436 169.3Z" fill="#a1360c" stroke="#a1360c"></path><path d="M503 491.1L539 435.4L506 419.6Z" fill="#7b1100" stroke="#7b1100"></path><path d="M540 427.3L586 435.9L564 396.9Z" fill="#f0783d" stroke="#f0783d"></path><path d="M623 219.6L593 154.6L590 236.3Z" fill="#000000" stroke="#000000"></path><path d="M335 445.3L370 359L270 415.9Z" fill="#000000" stroke="#000000"></path><path d="M620 293.3L641 252.1L590 236.3Z" fill="#b54618" stroke="#b54618"></path><path d="M626 161.6L591 128.9L593 154.6Z" fill="#590000" stroke="#590000"></path><path d="M620 385.4L578 337.1L564 396.9Z" fill="#8e2500" stroke="#8e2500"></path><path d="M620 385.4L633 344.1L578 337.1Z" fill="#8e2500" stroke="#8e2500"></path><path d="M669 295L664 252.4L641 252.1Z" fill="#c85725" stroke="#c85725"></path><path d="M357 437.6L401 463.1L392 376.9Z" fill="#dc6731" stroke="#dc6731"></path><path d="M440 444.4L503 491.1L506 419.6Z" fill="#b54618" stroke="#b54618"></path><path d="M407 83.4L436 169.3L497 127.6Z" fill="#a1360c" stroke="#a1360c"></path><path d="M407 83.4L404 84.7L436 169.3Z" fill="#490000" stroke="#490000"></path><path d="M477 73.9L407 83.4L497 127.6Z" fill="#590000" stroke="#590000"></path><path d="M593 154.6L591 128.9L553 135.3Z" fill="#b54618" stroke="#b54618"></path><path d="M561 61.7L477 73.9L497 127.6Z" fill="#b54618" stroke="#b54618"></path><path d="M630 170.4L593 154.6L623 219.6Z" fill="#b54618" stroke="#b54618"></path><path d="M625 415.3L620 385.4L564 396.9Z" fill="#a1360c" stroke="#a1360c"></path><path d="M561 61.7L497 127.6L553 135.3Z" fill="#b54618" stroke="#b54618"></path><path d="M410 502.3L415 475.4L401 463.1Z" fill="#dc6731" stroke="#dc6731"></path><path d="M401 463.1L415 475.4L440 444.4Z" fill="#a1360c" stroke="#a1360c"></path><path d="M645 191.4L630 170.4L623 219.6Z" fill="#8e2500" stroke="#8e2500"></path><path d="M638 405.6L628 382.9L620 385.4Z" fill="#000000" stroke="#000000"></path><path d="M620 385.4L628 382.9L633 344.1Z" fill="#490000" stroke="#490000"></path><path d="M477 73.9L409 72.4L407 83.4Z" fill="#c85725" stroke="#c85725"></path><path d="M407 83.4L409 72.4L404 84.7Z" fill="#f0783d" stroke="#f0783d"></path><path d="M318 62.7L318 98.6L365 116.9Z" fill="#490000" stroke="#490000"></path><path d="M252 161.6L269 171.6L279 111.9Z" fill="#b54618" stroke="#b54618"></path><path d="M630 170.4L626 161.6L593 154.6Z" fill="#590000" stroke="#590000"></path><path d="M270 415.9L370 359L309 306.7Z" fill="#490000" stroke="#490000"></path><path d="M357 437.6L368 465.7L401 463.1Z" fill="#590000" stroke="#590000"></path><path d="M637 102.6L586 113.7L591 128.9Z" fill="#8e2500" stroke="#8e2500"></path><path d="M591 128.9L586 113.7L553 135.3Z" fill="#000000" stroke="#000000"></path><path d="M335 445.3L368 465.7L357 437.6Z" fill="#590000" stroke="#590000"></path><path d="M584 461.4L586 435.9L539 435.4Z" fill="#590000" stroke="#590000"></path><path d="M539 435.4L586 435.9L540 427.3Z" fill="#690000" stroke="#690000"></path><path d="M630 170.4L687 143.4L626 161.6Z" fill="#490000" stroke="#490000"></path><path d="M667 218L645 191.4L623 219.6Z" fill="#8e2500" stroke="#8e2500"></path><path d="M279 111.9L269 171.6L306 171.1Z" fill="#a1360c" stroke="#a1360c"></path><path d="M306 171.1L269 171.6L302 189.4Z" fill="#000000" stroke="#000000"></path><path d="M318 98.6L321 153.3L365 116.9Z" fill="#f0783d" stroke="#f0783d"></path><path d="M269 171.6L263 180.6L302 189.4Z" fill="#8e2500" stroke="#8e2500"></path><path d="M665 300L641 252.1L620 293.3Z" fill="#490000" stroke="#490000"></path><path d="M641 252.1L667 218L623 219.6Z" fill="#7b1100" stroke="#7b1100"></path><path d="M665 300L620 293.3L633 344.1Z" fill="#8e2500" stroke="#8e2500"></path><path d="M674 364.6L665 300L633 344.1Z" fill="#7b1100" stroke="#7b1100"></path><path d="M252 161.6L253 193.6L263 180.6Z" fill="#690000" stroke="#690000"></path><path d="M263 180.6L253 193.6L302 189.4Z" fill="#490000" stroke="#490000"></path><path d="M253 193.6L236 256.9L294 250.1Z" fill="#690000" stroke="#690000"></path><path d="M276 303L270 415.9L309 306.7Z" fill="#dc6731" stroke="#dc6731"></path><path d="M708 300.1L669 295L708 313.3Z" fill="#590000" stroke="#590000"></path><path d="M665 300L669 295L641 252.1Z" fill="#000000" stroke="#000000"></path><path d="M410 502.3L433 491.6L415 475.4Z" fill="#f0783d" stroke="#f0783d"></path><path d="M415 475.4L433 491.6L440 444.4Z" fill="#000000" stroke="#000000"></path><path d="M318 62.7L365 116.9L404 84.7Z" fill="#000000" stroke="#000000"></path><path d="M269 171.6L252 161.6L263 180.6Z" fill="#f0783d" stroke="#f0783d"></path><path d="M715 204L667 218L664 252.4Z" fill="#8e2500" stroke="#8e2500"></path><path d="M664 252.4L667 218L641 252.1Z" fill="#8e2500" stroke="#8e2500"></path><path d="M645 191.4L659 190.4L630 170.4Z" fill="#690000" stroke="#690000"></path><path d="M433 491.6L503 491.1L440 444.4Z" fill="#c85725" stroke="#c85725"></path><path d="M604 467.1L625 415.3L586 435.9Z" fill="#dc6731" stroke="#dc6731"></path><path d="M586 435.9L625 415.3L564 396.9Z" fill="#000000" stroke="#000000"></path><path d="M628 382.9L674 364.6L633 344.1Z" fill="#490000" stroke="#490000"></path><path d="M667 218L659 190.4L645 191.4Z" fill="#b54618" stroke="#b54618"></path><path d="M591 64.7L561 61.7L586 113.7Z" fill="#a1360c" stroke="#a1360c"></path><path d="M236 256.9L227 297.3L276 303Z" fill="#7b1100" stroke="#7b1100"></path><path d="M625 415.3L638 405.6L620 385.4Z" fill="#f0783d" stroke="#f0783d"></path><path d="M556 483.7L584 461.4L539 435.4Z" fill="#f0783d" stroke="#f0783d"></path><path d="M625 415.3L676 439.9L638 405.6Z" fill="#8e2500" stroke="#8e2500"></path><path d="M279 111.9L306 171.1L321 153.3Z" fill="#dc6731" stroke="#dc6731"></path><path d="M219 213.1L218 270.1L236 256.9Z" fill="#590000" stroke="#590000"></path><path d="M236 256.9L218 270.1L227 297.3Z" fill="#690000" stroke="#690000"></path><path d="M209 351L270 415.9L276 303Z" fill="#590000" stroke="#590000"></path><path d="M389 508.6L401 463.1L368 465.7Z" fill="#7b1100" stroke="#7b1100"></path><path d="M320 465.7L368 465.7L335 445.3Z" fill="#590000" stroke="#590000"></path><path d="M389 508.6L410 502.3L401 463.1Z" fill="#dc6731" stroke="#dc6731"></path><path d="M462 539.4L538 520.3L503 491.1Z" fill="#c85725" stroke="#c85725"></path><path d="M287 461.4L320 465.7L335 445.3Z" fill="#590000" stroke="#590000"></path><path d="M503 491.1L556 483.7L539 435.4Z" fill="#490000" stroke="#490000"></path><path d="M219 213.1L236 256.9L253 193.6Z" fill="#c85725" stroke="#c85725"></path><path d="M318 98.6L279 111.9L321 153.3Z" fill="#8e2500" stroke="#8e2500"></path><path d="M640 107.9L591 128.9L626 161.6Z" fill="#590000" stroke="#590000"></path><path d="M586 113.7L561 61.7L553 135.3Z" fill="#a1360c" stroke="#a1360c"></path><path d="M441 0L383 24.9L409 72.4Z" fill="#c85725" stroke="#c85725"></path><path d="M638 405.6L674 364.6L628 382.9Z" fill="#c85725" stroke="#c85725"></path><path d="M669 295L708 300.1L664 252.4Z" fill="#b54618" stroke="#b54618"></path><path d="M217 190.3L219 213.1L253 193.6Z" fill="#f0783d" stroke="#f0783d"></path><path d="M217 190.3L253 193.6L252 161.6Z" fill="#f0783d" stroke="#f0783d"></path><path d="M313 474.6L389 508.6L368 465.7Z" fill="#7b1100" stroke="#7b1100"></path><path d="M410 502.3L462 539.4L433 491.6Z" fill="#490000" stroke="#490000"></path><path d="M503 491.1L538 520.3L556 483.7Z" fill="#000000" stroke="#000000"></path><path d="M287 461.4L313 474.6L320 465.7Z" fill="#dc6731" stroke="#dc6731"></path><path d="M320 465.7L313 474.6L368 465.7Z" fill="#b54618" stroke="#b54618"></path><path d="M575 520.6L604 467.1L584 461.4Z" fill="#dc6731" stroke="#dc6731"></path><path d="M584 461.4L604 467.1L586 435.9Z" fill="#590000" stroke="#590000"></path><path d="M714 398L693 359.9L674 364.6Z" fill="#590000" stroke="#590000"></path><path d="M270 415.9L287 461.4L335 445.3Z" fill="#000000" stroke="#000000"></path><path d="M162 202L217 190.3L138 106.4Z" fill="#dc6731" stroke="#dc6731"></path><path d="M219 213.1L189 267.3L218 270.1Z" fill="#490000" stroke="#490000"></path><path d="M318 98.6L318 62.7L279 111.9Z" fill="#690000" stroke="#690000"></path><path d="M383 24.9L318 62.7L404 84.7Z" fill="#690000" stroke="#690000"></path><path d="M383 24.9L404 84.7L409 72.4Z" fill="#000000" stroke="#000000"></path><path d="M687 143.4L640 107.9L626 161.6Z" fill="#a1360c" stroke="#a1360c"></path><path d="M687 143.4L630 170.4L659 190.4Z" fill="#a1360c" stroke="#a1360c"></path><path d="M637 102.6L591 64.7L586 113.7Z" fill="#a1360c" stroke="#a1360c"></path><path d="M640 107.9L637 102.6L591 128.9Z" fill="#c85725" stroke="#c85725"></path><path d="M354 549.1L396 520.4L389 508.6Z" fill="#490000" stroke="#490000"></path><path d="M389 508.6L396 520.4L410 502.3Z" fill="#f0783d" stroke="#f0783d"></path><path d="M354 549.1L389 508.6L313 474.6Z" fill="#b54618" stroke="#b54618"></path><path d="M506 0L508 26.7L570 0Z" fill="#7b1100" stroke="#7b1100"></path><path d="M561 61.7L508 26.7L477 73.9Z" fill="#b54618" stroke="#b54618"></path><path d="M227 297.3L209 351L276 303Z" fill="#8e2500" stroke="#8e2500"></path><path d="M270 415.9L273 461.7L287 461.4Z" fill="#7b1100" stroke="#7b1100"></path><path d="M176 320.7L209 351L227 297.3Z" fill="#490000" stroke="#490000"></path><path d="M189 267.3L227 297.3L218 270.1Z" fill="#7b1100" stroke="#7b1100"></path><path d="M676 439.9L674 364.6L638 405.6Z" fill="#590000" stroke="#590000"></path><path d="M674 364.6L693 359.9L665 300Z" fill="#490000" stroke="#490000"></path><path d="M708 313.3L669 295L665 300Z" fill="#490000" stroke="#490000"></path><path d="M715 204L687 143.4L659 190.4Z" fill="#7b1100" stroke="#7b1100"></path><path d="M693 359.9L708 313.3L665 300Z" fill="#000000" stroke="#000000"></path><path d="M441 0L409 72.4L477 73.9Z" fill="#b54618" stroke="#b54618"></path><path d="M218 444.7L273 461.7L270 415.9Z" fill="#c85725" stroke="#c85725"></path><path d="M287 461.4L282 489.4L313 474.6Z" fill="#7b1100" stroke="#7b1100"></path><path d="M462 539.4L503 491.1L433 491.6Z" fill="#f0783d" stroke="#f0783d"></path><path d="M556 483.7L575 520.6L584 461.4Z" fill="#a1360c" stroke="#a1360c"></path><path d="M162 202L189 267.3L219 213.1Z" fill="#b54618" stroke="#b54618"></path><path d="M396 520.4L462 539.4L410 502.3Z" fill="#590000" stroke="#590000"></path><path d="M383 24.9L325 39.7L318 62.7Z" fill="#590000" stroke="#590000"></path><path d="M240 21.9L219 76.7L279 111.9Z" fill="#f0783d" stroke="#f0783d"></path><path d="M219 76.7L217 190.3L252 161.6Z" fill="#000000" stroke="#000000"></path><path d="M715 204L659 190.4L667 218Z" fill="#c85725" stroke="#c85725"></path><path d="M640 107.9L687 60.6L637 102.6Z" fill="#a1360c" stroke="#a1360c"></path><path d="M661 0L589 29.7L591 64.7Z" fill="#8e2500" stroke="#8e2500"></path><path d="M738 220.6L664 252.4L708 300.1Z" fill="#c85725" stroke="#c85725"></path><path d="M738 220.6L715 204L664 252.4Z" fill="#f0783d" stroke="#f0783d"></path><path d="M612 550.4L566 521.6L577 600Z" fill="#dc6731" stroke="#dc6731"></path><path d="M538 520.3L566 521.6L556 483.7Z" fill="#000000" stroke="#000000"></path><path d="M604 467.1L642 472.3L625 415.3Z" fill="#a1360c" stroke="#a1360c"></path><path d="M612 550.4L642 472.3L604 467.1Z" fill="#590000" stroke="#590000"></path><path d="M240 535.4L282 489.4L273 461.7Z" fill="#690000" stroke="#690000"></path><path d="M273 461.7L282 489.4L287 461.4Z" fill="#a1360c" stroke="#a1360c"></path><path d="M396 520.4L428 600L462 539.4Z" fill="#b54618" stroke="#b54618"></path><path d="M508 26.7L441 0L477 73.9Z" fill="#b54618" stroke="#b54618"></path><path d="M383 24.9L355 0L325 39.7Z" fill="#690000" stroke="#690000"></path><path d="M612 550.4L575 520.6L566 521.6Z" fill="#490000" stroke="#490000"></path><path d="M566 521.6L575 520.6L556 483.7Z" fill="#f0783d" stroke="#f0783d"></path><path d="M642 472.3L676 439.9L625 415.3Z" fill="#590000" stroke="#590000"></path><path d="M693 359.9L727 322.7L708 313.3Z" fill="#7b1100" stroke="#7b1100"></path><path d="M731 383.7L727 322.7L693 359.9Z" fill="#490000" stroke="#490000"></path><path d="M708 313.3L727 322.7L708 300.1Z" fill="#690000" stroke="#690000"></path><path d="M570 0L508 26.7L561 61.7Z" fill="#690000" stroke="#690000"></path><path d="M508 26.7L506 0L441 0Z" fill="#c85725" stroke="#c85725"></path><path d="M687 60.6L591 64.7L637 102.6Z" fill="#a1360c" stroke="#a1360c"></path><path d="M591 64.7L589 29.7L561 61.7Z" fill="#8e2500" stroke="#8e2500"></path><path d="M167 294.9L176 320.7L227 297.3Z" fill="#7b1100" stroke="#7b1100"></path><path d="M209 351L210 423.3L270 415.9Z" fill="#690000" stroke="#690000"></path><path d="M176 320.7L182 348.7L209 351Z" fill="#590000" stroke="#590000"></path><path d="M162 407.9L210 423.3L209 351Z" fill="#7b1100" stroke="#7b1100"></path><path d="M116 389L162 407.9L182 348.7Z" fill="#000000" stroke="#000000"></path><path d="M189 267.3L167 294.9L227 297.3Z" fill="#b54618" stroke="#b54618"></path><path d="M149 268.4L167 294.9L189 267.3Z" fill="#c85725" stroke="#c85725"></path><path d="M676 439.9L714 398L674 364.6Z" fill="#7b1100" stroke="#7b1100"></path><path d="M202 447.6L218 444.7L210 423.3Z" fill="#f0783d" stroke="#f0783d"></path><path d="M210 423.3L218 444.7L270 415.9Z" fill="#b54618" stroke="#b54618"></path><path d="M813 298L738 220.6L708 300.1Z" fill="#8e2500" stroke="#8e2500"></path><path d="M730 144.7L726 137.4L687 143.4Z" fill="#7b1100" stroke="#7b1100"></path><path d="M441 0L355 0L383 24.9Z" fill="#a1360c" stroke="#a1360c"></path><path d="M318 544.3L313 474.6L282 489.4Z" fill="#a1360c" stroke="#a1360c"></path><path d="M318 544.3L354 549.1L313 474.6Z" fill="#a1360c" stroke="#a1360c"></path><path d="M589 29.7L570 0L561 61.7Z" fill="#490000" stroke="#490000"></path><path d="M661 0L570 0L589 29.7Z" fill="#7b1100" stroke="#7b1100"></path><path d="M219 76.7L252 161.6L279 111.9Z" fill="#a1360c" stroke="#a1360c"></path><path d="M217 190.3L162 202L219 213.1Z" fill="#c85725" stroke="#c85725"></path><path d="M279 111.9L318 62.7L240 21.9Z" fill="#7b1100" stroke="#7b1100"></path><path d="M748 413.4L731 383.7L714 398Z" fill="#7b1100" stroke="#7b1100"></path><path d="M714 398L731 383.7L693 359.9Z" fill="#c85725" stroke="#c85725"></path><path d="M773 194.1L744 177.3L738 220.6Z" fill="#dc6731" stroke="#dc6731"></path><path d="M276 526.1L318 544.3L282 489.4Z" fill="#c85725" stroke="#c85725"></path><path d="M719 425.7L716 421.6L676 439.9Z" fill="#590000" stroke="#590000"></path><path d="M676 439.9L716 421.6L714 398Z" fill="#c85725" stroke="#c85725"></path><path d="M719 425.7L676 439.9L729 471.1Z" fill="#b54618" stroke="#b54618"></path><path d="M144 263.3L149 268.4L189 267.3Z" fill="#8e2500" stroke="#8e2500"></path><path d="M167 294.9L133 302.1L176 320.7Z" fill="#490000" stroke="#490000"></path><path d="M181 443.3L202 447.6L210 423.3Z" fill="#f0783d" stroke="#f0783d"></path><path d="M162 407.9L209 351L182 348.7Z" fill="#f0783d" stroke="#f0783d"></path><path d="M240 535.4L276 526.1L282 489.4Z" fill="#490000" stroke="#490000"></path><path d="M281 0L318 62.7L325 39.7Z" fill="#490000" stroke="#490000"></path><path d="M730 144.7L687 143.4L715 204Z" fill="#490000" stroke="#490000"></path><path d="M704 75.7L687 60.6L640 107.9Z" fill="#b54618" stroke="#b54618"></path><path d="M744 177.3L730 144.7L715 204Z" fill="#f0783d" stroke="#f0783d"></path><path d="M729 471.1L676 439.9L642 472.3Z" fill="#a1360c" stroke="#a1360c"></path><path d="M716 421.6L748 413.4L714 398Z" fill="#b54618" stroke="#b54618"></path><path d="M738 220.6L744 177.3L715 204Z" fill="#b54618" stroke="#b54618"></path><path d="M769 182.7L744 177.3L773 194.1Z" fill="#a1360c" stroke="#a1360c"></path><path d="M240 535.4L273 461.7L218 444.7Z" fill="#c85725" stroke="#c85725"></path><path d="M162 202L144 263.3L189 267.3Z" fill="#590000" stroke="#590000"></path><path d="M149 268.4L143 275.3L167 294.9Z" fill="#f0783d" stroke="#f0783d"></path><path d="M144 263.3L143 275.3L149 268.4Z" fill="#8e2500" stroke="#8e2500"></path><path d="M355 0L298 0L325 39.7Z" fill="#8e2500" stroke="#8e2500"></path><path d="M704 75.7L687 143.4L726 137.4Z" fill="#000000" stroke="#000000"></path><path d="M704 75.7L640 107.9L687 143.4Z" fill="#590000" stroke="#590000"></path><path d="M577 600L566 521.6L538 520.3Z" fill="#a1360c" stroke="#a1360c"></path><path d="M575 520.6L612 550.4L604 467.1Z" fill="#dc6731" stroke="#dc6731"></path><path d="M506 592.3L538 520.3L462 539.4Z" fill="#dc6731" stroke="#dc6731"></path><path d="M133 302.1L182 348.7L176 320.7Z" fill="#b54618" stroke="#b54618"></path><path d="M202 447.6L184 475.4L218 444.7Z" fill="#a1360c" stroke="#a1360c"></path><path d="M162 407.9L181 443.3L210 423.3Z" fill="#b54618" stroke="#b54618"></path><path d="M549 -38.1L538 -34.1L570 0Z" fill="#dc6731" stroke="#dc6731"></path><path d="M570 0L538 -34.1L506 0Z" fill="#c85725" stroke="#c85725"></path><path d="M506 0L538 -34.1L441 0Z" fill="#690000" stroke="#690000"></path><path d="M441 0L264 -51.1L355 0Z" fill="#8e2500" stroke="#8e2500"></path><path d="M355 0L291 -6.3L298 0Z" fill="#590000" stroke="#590000"></path><path d="M80 251.9L133 302.1L143 275.3Z" fill="#490000" stroke="#490000"></path><path d="M143 275.3L133 302.1L167 294.9Z" fill="#590000" stroke="#590000"></path><path d="M769 114.3L726 137.4L730 144.7Z" fill="#8e2500" stroke="#8e2500"></path><path d="M710 56.9L704 75.7L760 87.9Z" fill="#c85725" stroke="#c85725"></path><path d="M162 202L132 241.1L144 263.3Z" fill="#dc6731" stroke="#dc6731"></path><path d="M144 263.3L132 241.1L143 275.3Z" fill="#000000" stroke="#000000"></path><path d="M90 149.6L132 241.1L162 202Z" fill="#8e2500" stroke="#8e2500"></path><path d="M428 600L396 520.4L413 600Z" fill="#b54618" stroke="#b54618"></path><path d="M493 600L506 592.3L462 539.4Z" fill="#590000" stroke="#590000"></path><path d="M298 0L281 0L325 39.7Z" fill="#490000" stroke="#490000"></path><path d="M291 -6.3L281 0L298 0Z" fill="#000000" stroke="#000000"></path><path d="M264 -51.1L291 -6.3L355 0Z" fill="#690000" stroke="#690000"></path><path d="M413 600L354 549.1L373 600Z" fill="#a1360c" stroke="#a1360c"></path><path d="M413 600L396 520.4L354 549.1Z" fill="#c85725" stroke="#c85725"></path><path d="M719 425.7L748 413.4L716 421.6Z" fill="#590000" stroke="#590000"></path><path d="M824 348.9L813 298L727 322.7Z" fill="#8e2500" stroke="#8e2500"></path><path d="M729 471.1L748 413.4L719 425.7Z" fill="#b54618" stroke="#b54618"></path><path d="M676 -35.1L549 -38.1L570 0Z" fill="#590000" stroke="#590000"></path><path d="M538 -34.1L264 -51.1L441 0Z" fill="#7b1100" stroke="#7b1100"></path><path d="M373 600L354 549.1L335 600Z" fill="#c85725" stroke="#c85725"></path><path d="M471 610.3L493 600L462 539.4Z" fill="#b54618" stroke="#b54618"></path><path d="M506 592.3L577 600L538 520.3Z" fill="#f0783d" stroke="#f0783d"></path><path d="M773 194.1L738 220.6L813 298Z" fill="#000000" stroke="#000000"></path><path d="M744 177.3L769 182.7L730 144.7Z" fill="#b54618" stroke="#b54618"></path><path d="M264 -51.1L240 21.9L281 0Z" fill="#7b1100" stroke="#7b1100"></path><path d="M281 0L240 21.9L318 62.7Z" fill="#a1360c" stroke="#a1360c"></path><path d="M219 76.7L138 106.4L217 190.3Z" fill="#7b1100" stroke="#7b1100"></path><path d="M797 175.4L773 194.1L815 200.1Z" fill="#dc6731" stroke="#dc6731"></path><path d="M493 600L509 600L506 592.3Z" fill="#f0783d" stroke="#f0783d"></path><path d="M335 600L354 549.1L318 544.3Z" fill="#b54618" stroke="#b54618"></path><path d="M170 463.4L184 475.4L181 443.3Z" fill="#490000" stroke="#490000"></path><path d="M181 443.3L184 475.4L202 447.6Z" fill="#490000" stroke="#490000"></path><path d="M276 526.1L277 560.4L318 544.3Z" fill="#b54618" stroke="#b54618"></path><path d="M240 535.4L277 560.4L276 526.1Z" fill="#7b1100" stroke="#7b1100"></path><path d="M428 600L471 610.3L462 539.4Z" fill="#590000" stroke="#590000"></path><path d="M493 600L461 635.1L509 600Z" fill="#490000" stroke="#490000"></path><path d="M461 635.1L471 610.3L428 600Z" fill="#8e2500" stroke="#8e2500"></path><path d="M461 635.1L428 600L413 600Z" fill="#000000" stroke="#000000"></path><path d="M184 475.4L240 535.4L218 444.7Z" fill="#590000" stroke="#590000"></path><path d="M704 75.7L710 56.9L687 60.6Z" fill="#a1360c" stroke="#a1360c"></path><path d="M687 60.6L661 0L591 64.7Z" fill="#490000" stroke="#490000"></path><path d="M760 87.9L704 75.7L726 137.4Z" fill="#000000" stroke="#000000"></path><path d="M729 557.1L729 471.1L642 472.3Z" fill="#b54618" stroke="#b54618"></path><path d="M162 407.9L170 463.4L181 443.3Z" fill="#a1360c" stroke="#a1360c"></path><path d="M184 475.4L216 539.1L240 535.4Z" fill="#8e2500" stroke="#8e2500"></path><path d="M92 451.4L170 463.4L162 407.9Z" fill="#8e2500" stroke="#8e2500"></path><path d="M240 535.4L281 573.1L277 560.4Z" fill="#c85725" stroke="#c85725"></path><path d="M277 560.4L281 573.1L318 544.3Z" fill="#dc6731" stroke="#dc6731"></path><path d="M668 0L661 0L687 60.6Z" fill="#7b1100" stroke="#7b1100"></path><path d="M293 600L335 600L318 544.3Z" fill="#b54618" stroke="#b54618"></path><path d="M373 600L461 635.1L413 600Z" fill="#490000" stroke="#490000"></path><path d="M565 615.1L577 600L509 600Z" fill="#dc6731" stroke="#dc6731"></path><path d="M509 600L577 600L506 592.3Z" fill="#dc6731" stroke="#dc6731"></path><path d="M612 550.4L665 572.1L642 472.3Z" fill="#000000" stroke="#000000"></path><path d="M676 0L668 0L687 60.6Z" fill="#f0783d" stroke="#f0783d"></path><path d="M661 0L676 -35.1L570 0Z" fill="#c85725" stroke="#c85725"></path><path d="M565 615.1L578 600L577 600Z" fill="#490000" stroke="#490000"></path><path d="M577 600L578 600L612 550.4Z" fill="#dc6731" stroke="#dc6731"></path><path d="M565 615.1L583 600L578 600Z" fill="#490000" stroke="#490000"></path><path d="M578 600L583 600L612 550.4Z" fill="#f0783d" stroke="#f0783d"></path><path d="M681 0L676 0L687 60.6Z" fill="#690000" stroke="#690000"></path><path d="M668 0L676 -35.1L661 0Z" fill="#f0783d" stroke="#f0783d"></path><path d="M797 175.4L769 114.3L769 182.7Z" fill="#000000" stroke="#000000"></path><path d="M769 182.7L769 114.3L730 144.7Z" fill="#000000" stroke="#000000"></path><path d="M710 56.9L681 0L687 60.6Z" fill="#f0783d" stroke="#f0783d"></path><path d="M240 535.4L216 539.1L281 573.1Z" fill="#8e2500" stroke="#8e2500"></path><path d="M153 493.6L216 539.1L184 475.4Z" fill="#dc6731" stroke="#dc6731"></path><path d="M133 302.1L116 389L182 348.7Z" fill="#690000" stroke="#690000"></path><path d="M170 463.4L153 493.6L184 475.4Z" fill="#dc6731" stroke="#dc6731"></path><path d="M71 328.9L116 389L133 302.1Z" fill="#490000" stroke="#490000"></path><path d="M129 103.4L138 106.4L122 76.7Z" fill="#f0783d" stroke="#f0783d"></path><path d="M132 241.1L80 251.9L143 275.3Z" fill="#dc6731" stroke="#dc6731"></path><path d="M742 0L681 0L710 56.9Z" fill="#f0783d" stroke="#f0783d"></path><path d="M676 0L676 -35.1L668 0Z" fill="#b54618" stroke="#b54618"></path><path d="M773 194.1L797 175.4L769 182.7Z" fill="#dc6731" stroke="#dc6731"></path><path d="M813 298L708 300.1L727 322.7Z" fill="#dc6731" stroke="#dc6731"></path><path d="M461 635.1L565 615.1L509 600Z" fill="#a1360c" stroke="#a1360c"></path><path d="M804 125.3L760 87.9L769 114.3Z" fill="#8e2500" stroke="#8e2500"></path><path d="M769 114.3L760 87.9L726 137.4Z" fill="#7b1100" stroke="#7b1100"></path><path d="M335 600L461 635.1L373 600Z" fill="#8e2500" stroke="#8e2500"></path><path d="M471 610.3L461 635.1L493 600Z" fill="#490000" stroke="#490000"></path><path d="M824 348.9L731 383.7L748 413.4Z" fill="#7b1100" stroke="#7b1100"></path><path d="M824 348.9L727 322.7L731 383.7Z" fill="#dc6731" stroke="#dc6731"></path><path d="M281 573.1L293 600L318 544.3Z" fill="#f0783d" stroke="#f0783d"></path><path d="M335 600L293 600L461 635.1Z" fill="#590000" stroke="#590000"></path><path d="M189 600L293 600L281 573.1Z" fill="#000000" stroke="#000000"></path><path d="M139 65.6L138 106.4L219 76.7Z" fill="#000000" stroke="#000000"></path><path d="M138 106.4L114 134.9L162 202Z" fill="#a1360c" stroke="#a1360c"></path><path d="M714 600L665 572.1L583 600Z" fill="#f0783d" stroke="#f0783d"></path><path d="M583 600L665 572.1L612 550.4Z" fill="#dc6731" stroke="#dc6731"></path><path d="M129 103.4L114 134.9L138 106.4Z" fill="#490000" stroke="#490000"></path><path d="M813 298L815 200.1L773 194.1Z" fill="#000000" stroke="#000000"></path><path d="M797 175.4L804 125.3L769 114.3Z" fill="#590000" stroke="#590000"></path><path d="M92 451.4L153 493.6L170 463.4Z" fill="#dc6731" stroke="#dc6731"></path><path d="M216 539.1L188 572.3L281 573.1Z" fill="#7b1100" stroke="#7b1100"></path><path d="M90 149.6L80 251.9L132 241.1Z" fill="#7b1100" stroke="#7b1100"></path><path d="M291 -6.3L264 -51.1L281 0Z" fill="#590000" stroke="#590000"></path><path d="M162 0L139 65.6L219 76.7Z" fill="#490000" stroke="#490000"></path><path d="M549 -38.1L264 -51.1L538 -34.1Z" fill="#590000" stroke="#590000"></path><path d="M777 465.7L781 457.3L729 471.1Z" fill="#590000" stroke="#590000"></path><path d="M729 471.1L781 457.3L748 413.4Z" fill="#7b1100" stroke="#7b1100"></path><path d="M76 137.4L90 149.6L114 134.9Z" fill="#7b1100" stroke="#7b1100"></path><path d="M162 0L219 76.7L240 21.9Z" fill="#c85725" stroke="#c85725"></path><path d="M767 490.1L777 465.7L729 471.1Z" fill="#000000" stroke="#000000"></path><path d="M781 457.3L824 348.9L748 413.4Z" fill="#8e2500" stroke="#8e2500"></path><path d="M813 298L900 279L815 200.1Z" fill="#590000" stroke="#590000"></path><path d="M777 465.7L817 461.7L781 457.3Z" fill="#000000" stroke="#000000"></path><path d="M768 494.6L767 490.1L729 471.1Z" fill="#f0783d" stroke="#f0783d"></path><path d="M742 0L676 -35.1L681 0Z" fill="#a1360c" stroke="#a1360c"></path><path d="M681 0L676 -35.1L676 0Z" fill="#490000" stroke="#490000"></path><path d="M549 -38.1L676 -35.1L264 -51.1Z" fill="#c85725" stroke="#c85725"></path><path d="M813 124.6L804 125.3L797 175.4Z" fill="#7b1100" stroke="#7b1100"></path><path d="M762 4.9L742 0L710 56.9Z" fill="#490000" stroke="#490000"></path><path d="M76 137.4L114 134.9L129 103.4Z" fill="#490000" stroke="#490000"></path><path d="M114 134.9L90 149.6L162 202Z" fill="#490000" stroke="#490000"></path><path d="M729 557.1L768 494.6L729 471.1Z" fill="#590000" stroke="#590000"></path><path d="M767 490.1L768 494.6L777 465.7Z" fill="#590000" stroke="#590000"></path><path d="M781 457.3L817 461.7L824 348.9Z" fill="#490000" stroke="#490000"></path><path d="M120 64.7L122 76.7L139 65.6Z" fill="#a1360c" stroke="#a1360c"></path><path d="M139 65.6L122 76.7L138 106.4Z" fill="#490000" stroke="#490000"></path><path d="M64 291.1L133 302.1L80 251.9Z" fill="#000000" stroke="#000000"></path><path d="M63 306.7L71 328.9L133 302.1Z" fill="#490000" stroke="#490000"></path><path d="M92 451.4L138 509.3L153 493.6Z" fill="#7b1100" stroke="#7b1100"></path><path d="M47 311.9L64 291.1L0 284Z" fill="#7b1100" stroke="#7b1100"></path><path d="M815 200.1L813 124.6L797 175.4Z" fill="#490000" stroke="#490000"></path><path d="M804 125.3L840 87.7L760 87.9Z" fill="#c85725" stroke="#c85725"></path><path d="M845 103.4L813 124.6L900 132.4Z" fill="#690000" stroke="#690000"></path><path d="M64 291.1L63 306.7L133 302.1Z" fill="#dc6731" stroke="#dc6731"></path><path d="M92 451.4L162 407.9L116 389Z" fill="#8e2500" stroke="#8e2500"></path><path d="M153 493.6L145 527.6L216 539.1Z" fill="#a1360c" stroke="#a1360c"></path><path d="M63 306.7L47 311.9L71 328.9Z" fill="#690000" stroke="#690000"></path><path d="M71 328.9L84 412.7L116 389Z" fill="#a1360c" stroke="#a1360c"></path><path d="M64 291.1L61 304.1L63 306.7Z" fill="#7b1100" stroke="#7b1100"></path><path d="M47 311.9L61 304.1L64 291.1Z" fill="#a1360c" stroke="#a1360c"></path><path d="M122 76.7L76 137.4L129 103.4Z" fill="#c85725" stroke="#c85725"></path><path d="M113 39.6L120 64.7L139 65.6Z" fill="#590000" stroke="#590000"></path><path d="M28 398L84 412.7L71 328.9Z" fill="#590000" stroke="#590000"></path><path d="M714 600L729 557.1L665 572.1Z" fill="#000000" stroke="#000000"></path><path d="M665 572.1L729 557.1L642 472.3Z" fill="#b54618" stroke="#b54618"></path><path d="M101 551.4L145 527.6L138 509.3Z" fill="#7b1100" stroke="#7b1100"></path><path d="M138 509.3L145 527.6L153 493.6Z" fill="#a1360c" stroke="#a1360c"></path><path d="M145 527.6L188 572.3L216 539.1Z" fill="#7b1100" stroke="#7b1100"></path><path d="M762 4.9L710 56.9L760 87.9Z" fill="#690000" stroke="#690000"></path><path d="M264 -51.1L162 0L240 21.9Z" fill="#c85725" stroke="#c85725"></path><path d="M120 64.7L76 137.4L122 76.7Z" fill="#c85725" stroke="#c85725"></path><path d="M90 149.6L49 162.7L80 251.9Z" fill="#590000" stroke="#590000"></path><path d="M73 487.1L92 451.4L0 465.4Z" fill="#690000" stroke="#690000"></path><path d="M84 412.7L92 451.4L116 389Z" fill="#dc6731" stroke="#dc6731"></path><path d="M0 284L64 291.1L80 251.9Z" fill="#f0783d" stroke="#f0783d"></path><path d="M61 304.1L47 311.9L63 306.7Z" fill="#490000" stroke="#490000"></path><path d="M808 527.4L817 461.7L768 494.6Z" fill="#dc6731" stroke="#dc6731"></path><path d="M768 494.6L817 461.7L777 465.7Z" fill="#490000" stroke="#490000"></path><path d="M817 0L762 4.9L760 87.9Z" fill="#c85725" stroke="#c85725"></path><path d="M742 0L817 0L676 -35.1Z" fill="#8e2500" stroke="#8e2500"></path><path d="M141 -19.1L146 0L162 0Z" fill="#dc6731" stroke="#dc6731"></path><path d="M162 0L146 0L139 65.6Z" fill="#b54618" stroke="#b54618"></path><path d="M0 112.7L0 119.9L76 137.4Z" fill="#7b1100" stroke="#7b1100"></path><path d="M146 0L113 39.6L139 65.6Z" fill="#690000" stroke="#690000"></path><path d="M565 615.1L714 600L583 600Z" fill="#490000" stroke="#490000"></path><path d="M798 547.1L808 527.4L768 494.6Z" fill="#7b1100" stroke="#7b1100"></path><path d="M734 600L714 600L565 615.1Z" fill="#490000" stroke="#490000"></path><path d="M0 130.3L49 162.7L0 119.9Z" fill="#a1360c" stroke="#a1360c"></path><path d="M76 137.4L49 162.7L90 149.6Z" fill="#a1360c" stroke="#a1360c"></path><path d="M178 604.1L188 572.3L156 598.1Z" fill="#490000" stroke="#490000"></path><path d="M178 604.1L189 600L188 572.3Z" fill="#7b1100" stroke="#7b1100"></path><path d="M188 572.3L189 600L281 573.1Z" fill="#f0783d" stroke="#f0783d"></path><path d="M293 600L165 608.3L461 635.1Z" fill="#dc6731" stroke="#dc6731"></path><path d="M264 -51.1L141 -19.1L162 0Z" fill="#7b1100" stroke="#7b1100"></path><path d="M146 0L120 0L113 39.6Z" fill="#490000" stroke="#490000"></path><path d="M0 192.1L29 182.4L0 130.3Z" fill="#8e2500" stroke="#8e2500"></path><path d="M893 192.1L813 124.6L815 200.1Z" fill="#590000" stroke="#590000"></path><path d="M813 124.6L840 87.7L804 125.3Z" fill="#a1360c" stroke="#a1360c"></path><path d="M900 279L813 298L900 289.1Z" fill="#a1360c" stroke="#a1360c"></path><path d="M156 598.1L188 572.3L145 527.6Z" fill="#8e2500" stroke="#8e2500"></path><path d="M189 600L178 604.1L293 600Z" fill="#490000" stroke="#490000"></path><path d="M845 103.4L840 87.7L813 124.6Z" fill="#590000" stroke="#590000"></path><path d="M756 600L734 600L565 615.1Z" fill="#690000" stroke="#690000"></path><path d="M714 600L734 600L729 557.1Z" fill="#490000" stroke="#490000"></path><path d="M141 -19.1L120 0L146 0Z" fill="#7b1100" stroke="#7b1100"></path><path d="M49 162.7L76 137.4L0 119.9Z" fill="#f0783d" stroke="#f0783d"></path><path d="M49 162.7L29 182.4L80 251.9Z" fill="#b54618" stroke="#b54618"></path><path d="M28 398L92 451.4L84 412.7Z" fill="#8e2500" stroke="#8e2500"></path><path d="M92 451.4L73 487.1L138 509.3Z" fill="#f0783d" stroke="#f0783d"></path><path d="M798 547.1L768 494.6L729 557.1Z" fill="#690000" stroke="#690000"></path><path d="M894 450.6L857 440.7L895 496.6Z" fill="#c85725" stroke="#c85725"></path><path d="M817 461.7L857 440.7L824 348.9Z" fill="#b54618" stroke="#b54618"></path><path d="M141 -19.1L111 0L120 0Z" fill="#590000" stroke="#590000"></path><path d="M120 0L111 0L113 39.6Z" fill="#a1360c" stroke="#a1360c"></path><path d="M101 551.4L156 598.1L145 527.6Z" fill="#8e2500" stroke="#8e2500"></path><path d="M756 600L798 547.1L729 557.1Z" fill="#b54618" stroke="#b54618"></path><path d="M900 407.6L878 418.3L900 426.3Z" fill="#a1360c" stroke="#a1360c"></path><path d="M156 598.1L165 608.3L178 604.1Z" fill="#b54618" stroke="#b54618"></path><path d="M178 604.1L165 608.3L293 600Z" fill="#590000" stroke="#590000"></path><path d="M47 311.9L28 398L71 328.9Z" fill="#b54618" stroke="#b54618"></path><path d="M0 390.6L28 398L47 311.9Z" fill="#490000" stroke="#490000"></path><path d="M461 635.1L756 600L565 615.1Z" fill="#b54618" stroke="#b54618"></path><path d="M734 600L756 600L729 557.1Z" fill="#a1360c" stroke="#a1360c"></path><path d="M52 507.6L101 551.4L73 487.1Z" fill="#b54618" stroke="#b54618"></path><path d="M73 487.1L101 551.4L138 509.3Z" fill="#590000" stroke="#590000"></path><path d="M156 598.1L107 600L165 608.3Z" fill="#7b1100" stroke="#7b1100"></path><path d="M900 289.1L813 298L900 307.3Z" fill="#7b1100" stroke="#7b1100"></path><path d="M900 307.3L813 298L824 348.9Z" fill="#b54618" stroke="#b54618"></path><path d="M878 418.3L882 401.4L857 440.7Z" fill="#000000" stroke="#000000"></path><path d="M857 440.7L882 401.4L824 348.9Z" fill="#000000" stroke="#000000"></path><path d="M900 279L893 192.1L815 200.1Z" fill="#dc6731" stroke="#dc6731"></path><path d="M845 103.4L880 71.6L840 87.7Z" fill="#c85725" stroke="#c85725"></path><path d="M900 339.7L900 307.3L824 348.9Z" fill="#000000" stroke="#000000"></path><path d="M878 418.3L894 450.6L900 426.3Z" fill="#590000" stroke="#590000"></path><path d="M900 367.9L900 339.7L824 348.9Z" fill="#a1360c" stroke="#a1360c"></path><path d="M900 367.9L824 348.9L882 401.4Z" fill="#a1360c" stroke="#a1360c"></path><path d="M0 192.1L0 284L80 251.9Z" fill="#c85725" stroke="#c85725"></path><path d="M0 284L0 301.7L47 311.9Z" fill="#f0783d" stroke="#f0783d"></path><path d="M52 507.6L55 497.6L8 480.3Z" fill="#b54618" stroke="#b54618"></path><path d="M8 480.3L55 497.6L73 487.1Z" fill="#a1360c" stroke="#a1360c"></path><path d="M900 339.7L907 311.9L900 307.3Z" fill="#7b1100" stroke="#7b1100"></path><path d="M900 307.3L909 312L900 289.1Z" fill="#f0783d" stroke="#f0783d"></path><path d="M900 289.1L909 312L900 279Z" fill="#000000" stroke="#000000"></path><path d="M900 279L943 68.9L893 192.1Z" fill="#dc6731" stroke="#dc6731"></path><path d="M859 0L817 0L840 87.7Z" fill="#690000" stroke="#690000"></path><path d="M840 87.7L817 0L760 87.9Z" fill="#8e2500" stroke="#8e2500"></path><path d="M762 4.9L817 0L742 0Z" fill="#f0783d" stroke="#f0783d"></path><path d="M900 388.4L900 367.9L882 401.4Z" fill="#a1360c" stroke="#a1360c"></path><path d="M900 339.7L909 312L907 311.9Z" fill="#590000" stroke="#590000"></path><path d="M900 367.9L909 312L900 339.7Z" fill="#c85725" stroke="#c85725"></path><path d="M907 311.9L909 312L900 307.3Z" fill="#dc6731" stroke="#dc6731"></path><path d="M52 507.6L96 564.1L101 551.4Z" fill="#590000" stroke="#590000"></path><path d="M101 551.4L96 564.1L156 598.1Z" fill="#8e2500" stroke="#8e2500"></path><path d="M0 130.3L29 182.4L49 162.7Z" fill="#000000" stroke="#000000"></path><path d="M29 182.4L0 192.1L80 251.9Z" fill="#590000" stroke="#590000"></path><path d="M900 407.6L900 388.4L882 401.4Z" fill="#f0783d" stroke="#f0783d"></path><path d="M900 367.9L900 388.4L909 312Z" fill="#000000" stroke="#000000"></path><path d="M900 407.6L882 401.4L878 418.3Z" fill="#690000" stroke="#690000"></path><path d="M0 430.9L92 451.4L28 398Z" fill="#490000" stroke="#490000"></path><path d="M55 497.6L52 507.6L73 487.1Z" fill="#690000" stroke="#690000"></path><path d="M0 301.7L0 390.6L47 311.9Z" fill="#7b1100" stroke="#7b1100"></path><path d="M878 418.3L857 440.7L894 450.6Z" fill="#dc6731" stroke="#dc6731"></path><path d="M900 388.4L900 407.6L909 312Z" fill="#b54618" stroke="#b54618"></path><path d="M893 192.1L900 132.4L813 124.6Z" fill="#c85725" stroke="#c85725"></path><path d="M943 68.9L900 132.4L893 192.1Z" fill="#b54618" stroke="#b54618"></path><path d="M817 461.7L808 527.4L860 541.3Z" fill="#000000" stroke="#000000"></path><path d="M857 440.7L817 461.7L895 496.6Z" fill="#b54618" stroke="#b54618"></path><path d="M900 407.6L900 426.3L909 312Z" fill="#590000" stroke="#590000"></path><path d="M900 103.7L880 71.6L845 103.4Z" fill="#590000" stroke="#590000"></path><path d="M96 600L107 600L96 564.1Z" fill="#7b1100" stroke="#7b1100"></path><path d="M96 564.1L107 600L156 598.1Z" fill="#c85725" stroke="#c85725"></path><path d="M76 137.4L0 96.4L0 112.7Z" fill="#a1360c" stroke="#a1360c"></path><path d="M860 541.3L808 527.4L798 547.1Z" fill="#690000" stroke="#690000"></path><path d="M943 68.9L900 107.6L900 132.4Z" fill="#690000" stroke="#690000"></path><path d="M900 132.4L900 107.6L845 103.4Z" fill="#000000" stroke="#000000"></path><path d="M76 137.4L8 50.7L0 96.4Z" fill="#b54618" stroke="#b54618"></path><path d="M-11 407.7L0 430.9L28 398Z" fill="#dc6731" stroke="#dc6731"></path><path d="M92 600L96 600L96 564.1Z" fill="#a1360c" stroke="#a1360c"></path><path d="M943 68.9L900 103.7L900 107.6Z" fill="#490000" stroke="#490000"></path><path d="M900 107.6L900 103.7L845 103.4Z" fill="#490000" stroke="#490000"></path><path d="M0 119.9L-5 129.3L0 130.3Z" fill="#b54618" stroke="#b54618"></path><path d="M0 130.3L-5 129.3L0 192.1Z" fill="#c85725" stroke="#c85725"></path><path d="M0 192.1L-5 129.3L0 284Z" fill="#8e2500" stroke="#8e2500"></path><path d="M0 284L-11 407.7L0 301.7Z" fill="#490000" stroke="#490000"></path><path d="M0 301.7L-11 407.7L0 390.6Z" fill="#7b1100" stroke="#7b1100"></path><path d="M0 390.6L-11 407.7L28 398Z" fill="#a1360c" stroke="#a1360c"></path><path d="M76 137.4L120 64.7L8 50.7Z" fill="#490000" stroke="#490000"></path><path d="M0 119.9L0 112.7L-5 129.3Z" fill="#590000" stroke="#590000"></path><path d="M461 635.1L806 600.1L756 600Z" fill="#dc6731" stroke="#dc6731"></path><path d="M756 600L806 600.1L798 547.1Z" fill="#b54618" stroke="#b54618"></path><path d="M-5 129.3L-11 407.7L0 284Z" fill="#590000" stroke="#590000"></path><path d="M92 600L96 564.1L0 581.1Z" fill="#690000" stroke="#690000"></path><path d="M107 600L96 600L165 608.3Z" fill="#a1360c" stroke="#a1360c"></path><path d="M0 552.3L96 564.1L52 507.6Z" fill="#490000" stroke="#490000"></path><path d="M96 600L92 600L165 608.3Z" fill="#b54618" stroke="#b54618"></path><path d="M0 112.7L0 96.4L-5 129.3Z" fill="#a1360c" stroke="#a1360c"></path><path d="M8 50.7L120 64.7L113 39.6Z" fill="#a1360c" stroke="#a1360c"></path><path d="M836 592.3L860 541.3L798 547.1Z" fill="#690000" stroke="#690000"></path><path d="M0 465.4L92 451.4L0 430.9Z" fill="#590000" stroke="#590000"></path><path d="M0 465.4L8 480.3L73 487.1Z" fill="#590000" stroke="#590000"></path><path d="M900 32.9L859 0L880 71.6Z" fill="#8e2500" stroke="#8e2500"></path><path d="M880 71.6L859 0L840 87.7Z" fill="#a1360c" stroke="#a1360c"></path><path d="M817 0L859 0L676 -35.1Z" fill="#490000" stroke="#490000"></path><path d="M-11 407.7L0 465.4L0 430.9Z" fill="#590000" stroke="#590000"></path><path d="M860 541.3L895 496.6L817 461.7Z" fill="#8e2500" stroke="#8e2500"></path><path d="M894 450.6L895 496.6L900 426.3Z" fill="#b54618" stroke="#b54618"></path><path d="M900 585.1L943 68.9L909 312Z" fill="#7b1100" stroke="#7b1100"></path><path d="M26 10.9L8 50.7L113 39.6Z" fill="#000000" stroke="#000000"></path><path d="M26 10.9L113 39.6L111 0Z" fill="#a1360c" stroke="#a1360c"></path><path d="M8 50.7L0 66.6L0 96.4Z" fill="#490000" stroke="#490000"></path><path d="M0 96.4L0 66.6L-5 129.3Z" fill="#690000" stroke="#690000"></path><path d="M461 635.1L829 600L806 600.1Z" fill="#000000" stroke="#000000"></path><path d="M806 600.1L836 592.3L798 547.1Z" fill="#590000" stroke="#590000"></path><path d="M860 541.3L900 585.1L895 496.6Z" fill="#c85725" stroke="#c85725"></path><path d="M829 600L836 592.3L806 600.1Z" fill="#c85725" stroke="#c85725"></path><path d="M46 -26.1L26 10.9L111 0Z" fill="#a1360c" stroke="#a1360c"></path><path d="M8 50.7L0 0L0 66.6Z" fill="#b54618" stroke="#b54618"></path><path d="M141 -19.1L46 -26.1L111 0Z" fill="#000000" stroke="#000000"></path><path d="M264 -51.1L46 -26.1L141 -19.1Z" fill="#dc6731" stroke="#dc6731"></path><path d="M943 68.9L880 71.6L900 103.7Z" fill="#8e2500" stroke="#8e2500"></path><path d="M943 68.9L900 32.9L880 71.6Z" fill="#f0783d" stroke="#f0783d"></path><path d="M46 -26.1L20 0L26 10.9Z" fill="#a1360c" stroke="#a1360c"></path><path d="M26 10.9L0 0L8 50.7Z" fill="#490000" stroke="#490000"></path><path d="M943 68.9L900 0L900 32.9Z" fill="#8e2500" stroke="#8e2500"></path><path d="M900 32.9L900 0L859 0Z" fill="#dc6731" stroke="#dc6731"></path><path d="M859 0L900 0L676 -35.1Z" fill="#f0783d" stroke="#f0783d"></path><path d="M461 635.1L865 600L829 600Z" fill="#490000" stroke="#490000"></path><path d="M829 600L865 600L836 592.3Z" fill="#c85725" stroke="#c85725"></path><path d="M836 592.3L865 600L860 541.3Z" fill="#7b1100" stroke="#7b1100"></path><path d="M46 -26.1L0 0L20 0Z" fill="#490000" stroke="#490000"></path><path d="M20 0L0 0L26 10.9Z" fill="#c85725" stroke="#c85725"></path><path d="M0 66.6L0 0L-5 129.3Z" fill="#690000" stroke="#690000"></path><path d="M-11 407.7L0 552.3L0 465.4Z" fill="#690000" stroke="#690000"></path><path d="M0 465.4L0 552.3L8 480.3Z" fill="#c85725" stroke="#c85725"></path><path d="M8 480.3L0 552.3L52 507.6Z" fill="#690000" stroke="#690000"></path><path d="M909 312L943 68.9L900 279Z" fill="#dc6731" stroke="#dc6731"></path><path d="M900 585.1L909 312L900 426.3Z" fill="#a1360c" stroke="#a1360c"></path><path d="M865 600L900 585.1L860 541.3Z" fill="#f0783d" stroke="#f0783d"></path><path d="M895 496.6L900 585.1L900 426.3Z" fill="#000000" stroke="#000000"></path><path d="M-11 407.7L0 581.1L0 552.3Z" fill="#dc6731" stroke="#dc6731"></path><path d="M0 552.3L0 581.1L96 564.1Z" fill="#f0783d" stroke="#f0783d"></path><path d="M461 635.1L900 600L865 600Z" fill="#590000" stroke="#590000"></path><path d="M865 600L900 600L900 585.1Z" fill="#dc6731" stroke="#dc6731"></path><path d="M900 585.1L900 600L943 68.9Z" fill="#7b1100" stroke="#7b1100"></path><path d="M-11 407.7L0 600L0 581.1Z" fill="#f0783d" stroke="#f0783d"></path><path d="M0 581.1L0 600L92 600Z" fill="#c85725" stroke="#c85725"></path><path d="M92 600L0 600L165 608.3Z" fill="#c85725" stroke="#c85725"></path><path d="M165 608.3L0 600L461 635.1Z" fill="#490000" stroke="#490000"></path></g></svg>